<svg xmlns="http://www.w3.org/2000/svg" xmlns:xlink="http://www.w3.org/1999/xlink" width="500" zoomAndPan="magnify" viewBox="0 0 375 374.999991" height="500" preserveAspectRatio="xMidYMid meet" version="1.0"><defs><clipPath id="13ab32cb9a"><path d="M 34.234375 134.128906 L 271 134.128906 L 271 371 L 34.234375 371 Z M 34.234375 134.128906 " clip-rule="nonzero"/></clipPath><clipPath id="e255d0490a"><path d="M 53 4.195312 L 340.886719 4.195312 L 340.886719 235 L 53 235 Z M 53 4.195312 " clip-rule="nonzero"/></clipPath></defs><g clip-path="url(#13ab32cb9a)"><path fill="#ebb22f" d="M 152.609375 134.089844 C 217.96875 134.089844 270.945312 187.074219 270.945312 252.425781 C 270.945312 302.304688 240.085938 344.972656 196.410156 362.386719 L 194.683594 325.101562 L 194.683594 325.027344 C 194.777344 317.652344 197.894531 311.84375 204.800781 308.921875 L 205.6875 308.5625 L 205.738281 308.546875 L 205.792969 308.523438 L 205.878906 308.492188 C 210.964844 306.433594 215.109375 303.660156 217.929688 298.859375 C 221.457031 292.875 222.136719 284.90625 222.136719 278.121094 C 222.136719 265.082031 218.296875 249.683594 211.671875 238.410156 C 206.964844 230.398438 199.539062 222.292969 189.519531 222.292969 C 179.496094 222.292969 172.070312 230.398438 167.363281 238.410156 C 160.738281 249.683594 156.898438 265.082031 156.898438 278.121094 C 156.898438 284.914062 157.578125 292.882812 161.105469 298.859375 C 163.957031 303.691406 168.148438 306.472656 173.257812 308.53125 C 173.402344 308.589844 173.542969 308.652344 173.6875 308.707031 L 173.726562 308.707031 L 174.171875 308.898438 C 181.101562 311.8125 184.257812 317.558594 184.351562 325.027344 L 184.351562 325.101562 L 182.410156 366.984375 C 172.886719 369.457031 162.902344 370.769531 152.609375 370.769531 C 141.953125 370.769531 131.628906 369.351562 121.804688 366.714844 L 119.988281 327.5 L 119.988281 327.414062 C 120.085938 319.855469 123.308594 313.898438 130.386719 310.902344 L 131.289062 310.546875 L 131.320312 310.535156 L 131.351562 310.519531 L 131.453125 310.480469 C 136.445312 308.460938 140.519531 305.742188 143.292969 301.027344 C 146.769531 295.125 147.4375 287.210938 147.4375 280.515625 C 147.4375 279.867188 147.414062 279.214844 147.375 278.566406 C 147.347656 278.195312 147.316406 277.820312 147.269531 277.457031 L 147.207031 276.910156 L 147.308594 276.539062 L 143.007812 226.484375 L 138.507812 226.492188 L 138.117188 279.390625 L 130.625 280.136719 L 126.171875 220.34375 L 121.289062 220.636719 L 120.324219 280.871094 L 117.667969 280.984375 C 117.113281 281.007812 116.558594 281.015625 116.011719 281.015625 C 115.457031 281.015625 114.894531 281.007812 114.339844 280.984375 L 111.703125 280.871094 L 110.347656 220.636719 L 105.464844 220.351562 L 101.402344 280.144531 L 93.898438 279.398438 L 93.519531 226.492188 L 88.992188 226.492188 L 83.179688 276.5625 L 83.273438 276.917969 L 83.210938 277.449219 C 83.167969 277.820312 83.136719 278.195312 83.113281 278.566406 C 83.074219 279.214844 83.050781 279.867188 83.050781 280.515625 C 83.050781 287.210938 83.714844 295.125 87.195312 301.027344 C 89.992188 305.78125 94.113281 308.5 99.136719 310.519531 C 99.253906 310.570312 99.375 310.617188 99.484375 310.664062 L 99.523438 310.664062 L 100.046875 310.886719 C 107.136719 313.871094 110.394531 319.769531 110.496094 327.414062 L 110.496094 327.5 L 108.882812 362.441406 C 65.152344 345.058594 34.242188 302.359375 34.242188 252.433594 C 34.273438 187.066406 87.25 134.089844 152.609375 134.089844 " fill-opacity="1" fill-rule="evenodd"/></g><path fill="#f6f5f4" d="M 198.511719 60.003906 C 200.617188 60.003906 200.617188 56.703125 198.511719 56.703125 C 196.402344 56.703125 196.402344 60.003906 198.511719 60.003906 Z M 198.511719 60.003906 " fill-opacity="1" fill-rule="nonzero"/><g clip-path="url(#e255d0490a)"><path fill="#4d433a" d="M 62.230469 48.625 C 63.988281 44.761719 66.023438 40.828125 68.695312 36.964844 C 71.292969 33.101562 74.382812 29.167969 78.457031 25.371094 C 80.496094 23.476562 82.8125 21.578125 85.414062 19.824219 C 86.535156 19.050781 87.519531 18.417969 88.644531 17.714844 C 89.699219 17.011719 90.820312 16.382812 91.945312 15.75 C 96.441406 13.148438 101.359375 10.761719 106.839844 8.792969 C 112.246094 6.828125 118.21875 5.351562 124.257812 4.71875 C 125.804688 4.578125 127.28125 4.4375 128.824219 4.367188 C 130.371094 4.296875 131.847656 4.296875 133.320312 4.367188 C 136.339844 4.4375 139.222656 4.789062 142.03125 5.28125 C 147.652344 6.265625 152.710938 7.882812 157.273438 9.917969 C 161.769531 11.957031 165.773438 14.273438 169.359375 16.800781 C 171.113281 18.066406 172.871094 19.402344 174.484375 20.738281 C 176.101562 22.070312 177.648438 23.476562 179.050781 24.882812 C 180.527344 26.285156 181.933594 27.691406 183.265625 29.167969 C 183.96875 29.867188 184.601562 30.640625 185.234375 31.34375 L 186.21875 32.46875 L 187.058594 33.519531 C 188.183594 34.855469 189.238281 36.121094 190.363281 37.457031 L 192.046875 39.421875 L 193.804688 41.390625 C 202.445312 50.941406 211.785156 60.355469 221.410156 69.699219 C 222.886719 69.347656 224.359375 69.066406 225.90625 68.855469 C 227.875 68.503906 229.839844 68.292969 231.878906 68.082031 C 233.84375 67.871094 235.882812 67.730469 237.847656 67.660156 C 238.832031 67.589844 239.886719 67.589844 240.867188 67.589844 C 241.851562 67.589844 242.90625 67.589844 243.890625 67.589844 C 251.898438 67.730469 260.046875 68.925781 267.5625 71.523438 C 269.460938 72.15625 271.285156 72.929688 273.113281 73.773438 C 274.9375 74.617188 276.625 75.597656 278.308594 76.582031 C 279.996094 77.636719 281.542969 78.761719 283.015625 79.953125 C 284.492188 81.148438 285.898438 82.484375 287.160156 83.886719 C 287.792969 84.589844 288.425781 85.292969 288.988281 85.996094 C 289.550781 86.699219 290.113281 87.472656 290.671875 88.242188 C 291.726562 89.71875 292.640625 91.335938 293.484375 92.878906 C 294.117188 94.074219 294.679688 95.339844 295.167969 96.601562 C 296.785156 96.8125 298.332031 97.09375 299.804688 97.445312 C 303.386719 98.21875 306.902344 99.203125 310.273438 100.535156 C 317.015625 103.136719 323.128906 106.859375 327.976562 111.636719 C 330.433594 114.023438 332.46875 116.625 334.226562 119.433594 C 335.070312 120.839844 335.84375 122.242188 336.542969 123.648438 C 337.246094 125.125 337.808594 126.597656 338.300781 128.074219 C 339.285156 131.023438 339.988281 134.042969 340.339844 137.066406 C 340.410156 137.835938 340.480469 138.539062 340.546875 139.3125 C 340.617188 140.085938 340.617188 140.789062 340.6875 141.5625 C 340.6875 142.332031 340.757812 143.035156 340.757812 143.808594 L 340.757812 146.058594 C 340.617188 149.21875 340.128906 152.519531 339.144531 156.03125 C 338.089844 159.542969 336.472656 163.195312 333.945312 166.851562 C 332.679688 168.675781 331.207031 170.503906 329.449219 172.1875 C 327.695312 173.875 325.796875 175.488281 323.761719 176.964844 C 321.722656 178.441406 319.546875 179.703125 317.296875 180.757812 C 315.050781 181.882812 312.800781 182.726562 310.554688 183.5 C 306.058594 185.042969 301.703125 185.957031 297.488281 186.519531 C 293.34375 187.082031 289.339844 187.292969 285.476562 187.363281 C 283.71875 187.363281 281.964844 187.292969 280.277344 187.222656 C 279.363281 191.226562 278.449219 195.160156 277.539062 199.164062 C 276.554688 203.378906 275.5 207.59375 274.445312 211.808594 C 273.394531 216.023438 272.339844 220.238281 271.214844 224.453125 L 270.652344 226.628906 C 270.019531 229.019531 268.265625 231.265625 265.457031 232.8125 C 260.1875 235.832031 253.371094 235.128906 250.210938 231.265625 C 250.210938 231.265625 250.070312 231.125 250 231.054688 L 249.789062 230.84375 L 249.296875 230.421875 L 248.316406 229.511719 C 247.683594 228.878906 246.980469 228.316406 246.277344 227.683594 C 244.871094 226.488281 243.46875 225.296875 242.0625 224.101562 C 239.183594 221.710938 236.234375 219.324219 233.28125 217.074219 C 227.3125 212.441406 220.988281 208.015625 214.527344 203.730469 C 207.992188 199.445312 201.25 195.371094 194.226562 191.507812 C 187.199219 187.644531 179.824219 184.058594 172.167969 180.617188 C 174.414062 180.828125 176.664062 181.039062 178.910156 181.390625 C 180.035156 181.53125 181.160156 181.742188 182.28125 181.882812 L 185.585938 182.445312 L 187.269531 182.726562 L 188.886719 183.078125 L 192.1875 183.777344 C 193.242188 183.988281 194.367188 184.269531 195.417969 184.550781 C 196.472656 184.832031 197.597656 185.042969 198.652344 185.324219 C 207.21875 187.503906 215.578125 190.242188 223.589844 193.402344 C 231.597656 196.5625 239.394531 200.148438 246.839844 204.082031 C 247.753906 204.570312 248.597656 205.0625 249.507812 205.484375 C 249.648438 204.222656 249.789062 203.027344 250 201.761719 C 249.71875 201.550781 249.4375 201.269531 249.15625 201.058594 C 248.316406 200.359375 247.402344 199.65625 246.488281 198.953125 C 242.90625 196.210938 239.253906 193.542969 235.390625 191.015625 C 231.527344 188.484375 227.523438 186.097656 223.308594 183.847656 C 219.09375 181.671875 214.667969 179.703125 209.820312 178.160156 C 215.160156 178.371094 220.496094 179.074219 225.765625 180.054688 C 230.964844 181.039062 236.09375 182.304688 241.148438 183.707031 C 244.800781 184.761719 248.386719 185.886719 251.898438 187.011719 C 251.96875 186.660156 251.96875 186.238281 252.039062 185.886719 C 252.109375 185.183594 252.25 184.480469 252.320312 183.777344 C 250.84375 182.445312 249.367188 181.039062 247.824219 179.773438 C 245.644531 178.019531 243.398438 176.191406 240.9375 174.648438 C 238.480469 173.03125 235.953125 171.554688 233 170.363281 C 236.441406 170.222656 239.957031 170.503906 243.398438 170.855469 C 246.839844 171.273438 250.210938 171.835938 253.582031 172.539062 C 253.722656 172.539062 253.792969 172.609375 253.933594 172.609375 C 254.003906 172.1875 254.144531 171.695312 254.285156 171.273438 C 256.605469 164.953125 264.683594 160.738281 272.339844 161.863281 L 273.746094 162.074219 L 275.289062 162.285156 C 275.921875 162.355469 276.554688 162.425781 277.1875 162.496094 C 278.449219 162.636719 279.714844 162.777344 281.050781 162.84375 C 283.648438 163.054688 286.179688 163.054688 288.707031 162.984375 C 293.625 162.914062 298.332031 162.144531 301.492188 161.019531 C 303.105469 160.457031 304.300781 159.824219 305.285156 159.191406 C 305.777344 158.839844 306.199219 158.492188 306.621094 158.140625 C 307.042969 157.71875 307.390625 157.296875 307.742188 156.804688 C 308.515625 155.820312 309.148438 154.488281 309.710938 152.941406 C 310.203125 151.394531 310.625 149.570312 310.765625 147.671875 L 310.835938 147.320312 L 310.835938 146.898438 L 310.90625 146.128906 C 310.976562 145.636719 310.976562 145.074219 310.976562 144.582031 L 310.976562 143.035156 C 310.976562 142.542969 310.976562 142.050781 310.90625 141.5625 C 310.765625 139.59375 310.554688 137.699219 310.0625 135.871094 C 309.640625 134.042969 309.007812 132.289062 308.234375 130.671875 C 307.460938 129.058594 306.480469 127.511719 305.285156 126.035156 C 304.089844 124.5625 302.757812 123.226562 301.210938 121.960938 C 299.664062 120.699219 297.910156 119.574219 296.011719 118.519531 C 294.117188 117.464844 292.007812 116.625 289.832031 115.851562 C 288.707031 115.5 287.582031 115.148438 286.457031 114.796875 C 285.898438 114.65625 285.335938 114.515625 284.773438 114.375 L 284 114.234375 L 283.648438 114.164062 L 283.4375 114.164062 L 283.507812 114.164062 L 274.375 107.210938 C 274.234375 104.679688 273.953125 102.152344 273.324219 99.765625 C 272.691406 97.375 271.777344 95.058594 270.582031 92.878906 C 268.125 88.523438 264.402344 84.589844 259.414062 81.359375 C 256.957031 79.742188 254.144531 78.339844 251.195312 77.074219 C 249.71875 76.441406 248.175781 75.878906 246.558594 75.316406 C 244.941406 74.757812 243.328125 74.265625 241.640625 73.773438 C 240.796875 73.5625 239.957031 73.351562 239.113281 73.140625 C 238.269531 72.929688 237.425781 72.71875 236.511719 72.507812 C 234.757812 72.085938 233 71.804688 231.175781 71.453125 C 228.152344 70.964844 225.132812 70.472656 221.972656 70.191406 C 222.535156 70.753906 223.097656 71.3125 223.660156 71.804688 L 231.527344 79.324219 L 239.464844 86.910156 C 244.800781 91.964844 250.070312 97.023438 255.410156 102.222656 C 251.476562 100.886719 247.753906 99.34375 244.03125 97.726562 C 242.203125 96.953125 240.308594 96.109375 238.480469 95.269531 L 233.070312 92.738281 C 225.835938 89.296875 218.882812 85.574219 212.066406 81.710938 C 205.253906 77.777344 198.652344 73.703125 192.257812 69.277344 C 185.867188 64.921875 179.683594 60.285156 173.78125 55.367188 C 172.308594 54.105469 170.832031 52.910156 169.429688 51.644531 C 167.953125 50.378906 166.546875 49.117188 165.144531 47.78125 L 163.175781 46.023438 C 162.542969 45.464844 161.910156 44.902344 161.277344 44.339844 C 160.015625 43.214844 158.75 42.160156 157.414062 41.179688 C 154.816406 39.140625 152.148438 37.246094 149.40625 35.558594 C 146.667969 33.941406 143.859375 32.46875 141.046875 31.414062 C 138.238281 30.289062 135.5 29.585938 132.757812 29.167969 C 130.089844 28.746094 127.421875 28.746094 124.75 29.027344 C 122.082031 29.308594 119.34375 30.007812 116.460938 30.992188 C 114.988281 31.484375 113.582031 32.117188 112.035156 32.820312 C 110.5625 33.519531 109.015625 34.292969 107.539062 35.066406 C 106.769531 35.488281 105.996094 35.910156 105.292969 36.402344 C 104.519531 36.824219 103.746094 37.316406 103.042969 37.804688 C 102.132812 38.367188 101.148438 39.140625 100.09375 39.984375 C 98.058594 41.742188 96.019531 44.058594 94.195312 46.585938 C 92.367188 49.117188 90.609375 51.855469 89.066406 54.734375 C 87.519531 57.617188 86.183594 60.636719 84.992188 63.65625 C 83.796875 66.75 82.742188 69.839844 81.902344 73 C 80.988281 76.160156 80.285156 79.390625 79.722656 82.554688 C 78.527344 89.015625 78.035156 95.480469 78.035156 101.941406 C 78.105469 112.691406 79.863281 123.367188 83.726562 133.554688 C 83.796875 133.554688 83.867188 133.484375 83.867188 133.484375 C 86.046875 132.78125 88.222656 132.078125 90.398438 131.375 C 90.121094 129.476562 89.980469 127.652344 89.839844 125.753906 C 89.558594 121.960938 89.488281 118.167969 89.558594 114.375 C 89.628906 110.582031 89.839844 106.789062 90.261719 102.996094 C 90.679688 99.203125 91.242188 95.480469 91.945312 91.6875 C 92.648438 87.960938 93.5625 84.167969 94.542969 80.445312 L 95.316406 77.636719 C 95.597656 76.722656 95.878906 75.808594 96.230469 74.898438 C 96.792969 73.070312 97.496094 71.242188 98.128906 69.417969 C 100.867188 62.113281 104.238281 54.945312 108.242188 47.992188 C 105.855469 55.226562 104.167969 62.535156 103.183594 69.769531 C 102.972656 71.59375 102.695312 73.351562 102.554688 75.179688 C 102.484375 76.089844 102.414062 77.003906 102.34375 77.847656 L 102.203125 80.515625 C 102.0625 84.097656 101.992188 87.683594 102.203125 91.195312 C 102.34375 94.707031 102.625 98.21875 103.113281 101.660156 C 103.605469 105.101562 104.167969 108.546875 104.941406 111.917969 C 105.714844 115.289062 106.628906 118.589844 107.679688 121.820312 C 108.242188 123.4375 108.804688 125.054688 109.367188 126.597656 C 109.367188 126.667969 109.4375 126.738281 109.4375 126.808594 C 112.105469 126.316406 114.847656 125.964844 117.515625 125.613281 C 117.515625 125.332031 117.585938 124.984375 117.585938 124.632812 C 117.796875 122.3125 118.078125 119.996094 118.5 117.746094 C 119.273438 113.179688 120.253906 108.683594 121.589844 104.261719 L 122.082031 102.574219 L 122.644531 100.886719 C 122.996094 99.765625 123.347656 98.710938 123.765625 97.585938 C 124.609375 95.410156 125.382812 93.230469 126.367188 91.054688 C 128.191406 86.769531 130.441406 82.554688 132.757812 78.410156 C 132.054688 82.765625 131.496094 87.050781 131.425781 91.335938 C 131.285156 93.441406 131.355469 95.550781 131.425781 97.65625 C 131.425781 98.710938 131.566406 99.765625 131.566406 100.816406 L 131.636719 102.363281 L 131.777344 103.910156 C 132.195312 108.054688 132.898438 112.058594 133.8125 115.992188 C 134.304688 117.957031 134.867188 119.925781 135.429688 121.820312 C 135.710938 122.59375 135.992188 123.4375 136.269531 124.210938 L 142.453125 124.210938 C 142.523438 123.578125 142.59375 123.015625 142.664062 122.382812 C 143.015625 119.292969 143.507812 116.273438 144.28125 113.320312 L 144.558594 112.199219 L 144.839844 111.074219 C 145.050781 110.300781 145.261719 109.597656 145.472656 108.824219 C 145.964844 107.351562 146.386719 105.875 146.949219 104.46875 C 147.933594 101.589844 149.265625 98.710938 150.601562 95.972656 C 150.953125 98.78125 151.304688 101.519531 152.007812 104.191406 C 152.289062 105.523438 152.710938 106.859375 153.128906 108.125 C 153.339844 108.753906 153.550781 109.386719 153.761719 110.089844 L 154.113281 111.074219 L 154.464844 111.988281 C 155.449219 114.515625 156.574219 116.972656 157.835938 119.292969 C 158.46875 120.488281 159.171875 121.609375 159.875 122.734375 C 160.226562 123.296875 160.578125 123.859375 161 124.351562 C 161.207031 124.632812 161.347656 124.84375 161.558594 125.125 C 161.628906 125.195312 161.699219 125.332031 161.769531 125.402344 C 164.582031 125.683594 167.320312 126.035156 169.988281 126.457031 C 176.664062 127.441406 183.195312 128.707031 189.589844 130.25 C 195.980469 131.726562 202.164062 133.554688 208.203125 135.589844 C 211.226562 136.574219 214.175781 137.628906 217.125 138.820312 C 220.074219 139.945312 222.886719 141.140625 225.765625 142.402344 C 231.386719 144.933594 236.863281 147.601562 241.921875 150.761719 C 229.066406 148.65625 216.28125 146.96875 203.496094 145.707031 C 197.105469 145.074219 190.78125 144.582031 184.390625 144.230469 C 181.089844 144.019531 177.859375 143.949219 174.625 143.808594 C 171.535156 143.738281 168.515625 143.667969 165.421875 143.667969 C 159.101562 143.667969 152.851562 143.878906 146.597656 144.230469 C 146.035156 144.300781 145.402344 144.300781 144.839844 144.371094 C 143.859375 144.441406 142.875 144.511719 141.960938 144.582031 L 140.765625 144.652344 L 139.644531 144.792969 L 137.324219 145.003906 L 135.007812 145.214844 C 134.234375 145.285156 133.460938 145.425781 132.6875 145.496094 C 131.144531 145.707031 129.667969 145.847656 128.121094 146.125 L 123.628906 146.828125 L 121.378906 147.25 L 119.132812 147.671875 L 116.882812 148.09375 C 116.109375 148.234375 115.40625 148.445312 114.707031 148.585938 C 113.230469 148.9375 111.753906 149.289062 110.351562 149.640625 L 106.066406 150.832031 L 105.011719 151.113281 C 104.660156 151.183594 104.308594 151.324219 103.957031 151.464844 L 101.851562 152.167969 C 101.5 152.238281 101.148438 152.378906 100.796875 152.449219 C 100.09375 154.414062 99.320312 156.453125 98.550781 158.421875 C 98.550781 158.492188 98.480469 158.5625 98.480469 158.628906 L 96.300781 164.390625 L 96.160156 164.671875 L 93.773438 170.714844 C 92.71875 173.382812 91.664062 176.050781 90.609375 178.722656 C 90.679688 178.722656 90.75 178.722656 90.890625 178.722656 C 94.542969 178.582031 98.128906 178.511719 101.710938 178.511719 C 103.535156 178.511719 105.292969 178.511719 107.117188 178.582031 C 108.945312 178.582031 110.703125 178.722656 112.457031 178.722656 C 116.039062 178.863281 119.550781 179.074219 123.136719 179.355469 C 124.890625 179.492188 126.648438 179.632812 128.402344 179.84375 L 131.074219 180.125 L 133.671875 180.40625 C 137.183594 180.828125 140.625 181.320312 144.070312 181.882812 L 149.195312 182.796875 C 150.882812 183.078125 152.570312 183.5 154.253906 183.847656 C 161 185.324219 167.601562 187.011719 173.921875 189.1875 C 174.695312 189.46875 175.539062 189.679688 176.3125 189.960938 L 178.628906 190.804688 L 180.949219 191.648438 C 181.722656 191.929688 182.492188 192.207031 183.265625 192.558594 C 184.8125 193.191406 186.285156 193.824219 187.761719 194.457031 C 188.535156 194.738281 189.238281 195.089844 190.011719 195.441406 L 192.1875 196.492188 C 193.664062 197.195312 195.066406 197.828125 196.472656 198.671875 L 200.617188 200.917969 C 201.953125 201.691406 203.285156 202.535156 204.621094 203.378906 L 206.589844 204.640625 L 208.484375 205.976562 C 209.75 206.820312 210.945312 207.734375 212.207031 208.648438 C 213.402344 209.558594 214.597656 210.542969 215.71875 211.457031 L 217.476562 212.859375 C 218.039062 213.351562 218.53125 213.84375 219.09375 214.335938 C 220.144531 215.320312 221.199219 216.375 222.253906 217.355469 C 220.707031 216.796875 219.234375 216.234375 217.757812 215.671875 C 216.984375 215.390625 216.28125 215.109375 215.507812 214.828125 L 213.261719 214.054688 C 211.714844 213.5625 210.242188 213 208.765625 212.511719 C 207.21875 212.019531 205.675781 211.597656 204.199219 211.105469 L 201.953125 210.402344 L 199.632812 209.769531 L 195.066406 208.507812 C 191.976562 207.804688 188.957031 206.960938 185.796875 206.328125 L 183.476562 205.835938 C 182.703125 205.695312 181.933594 205.484375 181.160156 205.34375 C 179.613281 205.0625 177.996094 204.78125 176.453125 204.5 C 174.90625 204.222656 173.292969 204.011719 171.746094 203.730469 L 169.429688 203.378906 C 168.65625 203.238281 167.8125 203.167969 167.039062 203.097656 C 160.71875 202.183594 154.324219 201.621094 147.933594 201.128906 C 141.539062 200.636719 135.078125 200.425781 128.613281 200.355469 L 123.765625 200.355469 C 122.152344 200.355469 120.535156 200.355469 118.921875 200.425781 C 117.304688 200.496094 115.6875 200.496094 114.074219 200.566406 C 112.457031 200.636719 110.84375 200.636719 109.226562 200.707031 C 105.996094 200.847656 102.765625 200.988281 99.460938 201.199219 C 97.847656 201.339844 96.230469 201.410156 94.613281 201.550781 L 92.15625 201.761719 L 89.769531 201.972656 C 86.535156 202.253906 83.304688 202.605469 80.144531 203.027344 C 78.527344 203.238281 76.984375 203.449219 75.4375 203.660156 C 74.664062 203.730469 73.890625 203.871094 73.121094 204.011719 L 71.996094 204.152344 L 71.503906 204.222656 L 71.082031 204.292969 C 69.1875 204.640625 67.21875 204.710938 65.25 204.433594 C 57.382812 203.308594 52.886719 197.125 55.277344 190.59375 L 55.417969 190.171875 C 56.894531 186.167969 58.4375 182.09375 59.984375 178.089844 C 61.527344 174.085938 63.074219 170.082031 64.691406 166.007812 L 67.078125 159.964844 L 69.535156 153.925781 C 70.730469 150.902344 71.996094 147.953125 73.261719 144.933594 C 68.625 139.3125 64.902344 133.0625 61.949219 126.597656 C 58.929688 119.855469 56.753906 112.757812 55.488281 105.523438 C 54.152344 98.289062 53.730469 90.773438 54.152344 83.257812 C 54.363281 79.460938 54.785156 75.667969 55.417969 71.804688 C 56.050781 68.011719 56.960938 64.148438 58.085938 60.285156 C 59.140625 56.421875 60.476562 52.558594 62.230469 48.625 Z M 62.230469 48.625 " fill-opacity="1" fill-rule="nonzero"/></g></svg>