<svg xmlns="http://www.w3.org/2000/svg" xmlns:xlink="http://www.w3.org/1999/xlink" width="500" zoomAndPan="magnify" viewBox="0 0 375 374.999991" height="500" preserveAspectRatio="xMidYMid meet" version="1.0"><defs><g/><clipPath id="1929a1fd9f"><path d="M 62.339844 112.324219 L 252.089844 112.324219 L 252.089844 302.074219 L 62.339844 302.074219 Z M 62.339844 112.324219 " clip-rule="nonzero"/></clipPath><clipPath id="5c6bf66af0"><path d="M 78 8.007812 L 308.3125 8.007812 L 308.3125 194 L 78 194 Z M 78 8.007812 " clip-rule="nonzero"/></clipPath></defs><g clip-path="url(#1929a1fd9f)"><path fill="#f1f1f1" d="M 157.367188 112.289062 C 209.839844 112.289062 252.367188 154.824219 252.367188 207.289062 C 252.367188 247.328125 227.589844 281.582031 192.53125 295.5625 L 191.144531 265.628906 L 191.144531 265.574219 C 191.21875 259.652344 193.71875 254.988281 199.265625 252.640625 L 199.980469 252.355469 L 200.015625 252.34375 L 200.0625 252.324219 L 200.132812 252.296875 C 204.214844 250.644531 207.542969 248.417969 209.804688 244.5625 C 212.636719 239.761719 213.183594 233.363281 213.183594 227.917969 C 213.183594 217.445312 210.097656 205.089844 204.78125 196.035156 C 201.003906 189.605469 195.042969 183.097656 186.996094 183.097656 C 178.949219 183.097656 172.992188 189.605469 169.210938 196.035156 C 163.894531 205.089844 160.808594 217.445312 160.808594 227.917969 C 160.808594 233.367188 161.355469 239.765625 164.1875 244.5625 C 166.476562 248.441406 169.84375 250.675781 173.945312 252.328125 C 174.058594 252.375 174.171875 252.425781 174.289062 252.46875 L 174.320312 252.46875 L 174.675781 252.621094 C 180.242188 254.960938 182.773438 259.574219 182.851562 265.574219 L 182.851562 265.628906 L 181.292969 299.253906 C 173.644531 301.238281 165.632812 302.292969 157.367188 302.292969 C 148.8125 302.292969 140.523438 301.15625 132.636719 299.035156 L 131.179688 267.558594 L 131.179688 267.488281 C 131.257812 261.417969 133.847656 256.636719 139.527344 254.230469 L 140.25 253.945312 L 140.277344 253.9375 L 140.300781 253.925781 L 140.386719 253.894531 C 144.390625 252.273438 147.660156 250.089844 149.886719 246.304688 C 152.679688 241.566406 153.214844 235.210938 153.214844 229.835938 C 153.214844 229.316406 153.195312 228.792969 153.164062 228.273438 C 153.144531 227.972656 153.121094 227.675781 153.082031 227.382812 L 153.03125 226.945312 L 153.113281 226.644531 L 149.660156 186.464844 L 146.046875 186.46875 L 145.734375 228.933594 L 139.71875 229.53125 L 136.140625 181.535156 L 132.222656 181.769531 L 131.449219 230.125 L 129.316406 230.214844 C 128.871094 230.230469 128.425781 230.238281 127.988281 230.238281 C 127.542969 230.238281 127.089844 230.230469 126.644531 230.214844 L 124.527344 230.125 L 123.441406 181.769531 L 119.523438 181.539062 L 116.257812 229.539062 L 110.234375 228.941406 L 109.929688 186.46875 L 106.296875 186.46875 L 101.628906 226.664062 L 101.707031 226.949219 L 101.65625 227.375 C 101.621094 227.675781 101.597656 227.972656 101.578125 228.273438 C 101.546875 228.792969 101.527344 229.316406 101.527344 229.839844 C 101.527344 235.210938 102.0625 241.566406 104.855469 246.304688 C 107.097656 250.121094 110.40625 252.304688 114.441406 253.925781 C 114.535156 253.964844 114.628906 254.003906 114.71875 254.039062 L 114.75 254.039062 L 115.171875 254.21875 C 120.863281 256.617188 123.476562 261.347656 123.5625 267.488281 L 123.5625 267.558594 L 122.261719 295.609375 C 87.160156 281.652344 62.34375 247.375 62.34375 207.296875 C 62.371094 154.820312 104.898438 112.289062 157.367188 112.289062 " fill-opacity="1" fill-rule="evenodd"/></g><path fill="#f6f5f4" d="M 194.21875 52.808594 C 195.910156 52.808594 195.910156 50.160156 194.21875 50.160156 C 192.527344 50.160156 192.527344 52.808594 194.21875 52.808594 Z M 194.21875 52.808594 " fill-opacity="1" fill-rule="nonzero"/><g clip-path="url(#5c6bf66af0)"><path fill="#ffa500" d="M 84.8125 43.675781 C 86.222656 40.570312 87.859375 37.414062 90.003906 34.3125 C 92.089844 31.210938 94.570312 28.050781 97.839844 25.007812 C 99.476562 23.484375 101.339844 21.960938 103.425781 20.550781 C 104.328125 19.933594 105.117188 19.425781 106.019531 18.859375 C 106.863281 18.296875 107.765625 17.789062 108.667969 17.28125 C 112.277344 15.195312 116.226562 13.277344 120.625 11.699219 C 124.96875 10.117188 129.761719 8.933594 134.609375 8.425781 C 135.851562 8.3125 137.035156 8.203125 138.277344 8.144531 C 139.515625 8.089844 140.703125 8.089844 141.886719 8.144531 C 144.3125 8.203125 146.621094 8.484375 148.878906 8.878906 C 153.390625 9.667969 157.449219 10.964844 161.117188 12.601562 C 164.726562 14.234375 167.941406 16.097656 170.816406 18.128906 C 172.226562 19.140625 173.636719 20.214844 174.933594 21.285156 C 176.230469 22.355469 177.472656 23.484375 178.597656 24.613281 C 179.78125 25.742188 180.910156 26.867188 181.984375 28.050781 C 182.546875 28.617188 183.054688 29.238281 183.5625 29.800781 L 184.351562 30.703125 L 185.027344 31.550781 C 185.929688 32.621094 186.777344 33.636719 187.679688 34.707031 L 189.03125 36.285156 L 190.441406 37.863281 C 197.378906 45.535156 204.878906 53.089844 212.605469 60.59375 C 213.789062 60.308594 214.972656 60.085938 216.214844 59.914062 C 217.792969 59.632812 219.371094 59.464844 221.007812 59.296875 C 222.585938 59.125 224.222656 59.011719 225.800781 58.957031 C 226.589844 58.902344 227.4375 58.902344 228.226562 58.902344 C 229.015625 58.902344 229.863281 58.902344 230.652344 58.902344 C 237.078125 59.011719 243.621094 59.972656 249.65625 62.058594 C 251.179688 62.566406 252.644531 63.1875 254.109375 63.863281 C 255.578125 64.539062 256.929688 65.328125 258.285156 66.117188 C 259.636719 66.964844 260.878906 67.867188 262.0625 68.824219 C 263.246094 69.785156 264.375 70.855469 265.390625 71.984375 C 265.898438 72.546875 266.40625 73.113281 266.855469 73.675781 C 267.308594 74.238281 267.757812 74.859375 268.210938 75.480469 C 269.054688 76.664062 269.789062 77.960938 270.464844 79.203125 C 270.972656 80.160156 271.425781 81.175781 271.820312 82.191406 C 273.117188 82.359375 274.355469 82.585938 275.542969 82.867188 C 278.417969 83.488281 281.238281 84.277344 283.945312 85.347656 C 289.359375 87.4375 294.265625 90.425781 298.15625 94.261719 C 300.128906 96.175781 301.765625 98.265625 303.175781 100.519531 C 303.851562 101.648438 304.472656 102.777344 305.035156 103.902344 C 305.601562 105.085938 306.050781 106.273438 306.445312 107.457031 C 307.234375 109.824219 307.800781 112.25 308.082031 114.675781 C 308.136719 115.296875 308.195312 115.859375 308.25 116.480469 C 308.304688 117.101562 308.304688 117.664062 308.363281 118.285156 C 308.363281 118.90625 308.417969 119.46875 308.417969 120.089844 L 308.417969 121.894531 C 308.304688 124.429688 307.910156 127.082031 307.121094 129.902344 C 306.277344 132.722656 304.980469 135.652344 302.949219 138.585938 C 301.933594 140.050781 300.75 141.519531 299.339844 142.871094 C 297.929688 144.226562 296.40625 145.523438 294.773438 146.707031 C 293.136719 147.890625 291.386719 148.90625 289.582031 149.753906 C 287.777344 150.65625 285.972656 151.332031 284.167969 151.953125 C 280.558594 153.191406 277.0625 153.925781 273.679688 154.375 C 270.351562 154.828125 267.136719 154.996094 264.035156 155.054688 C 262.625 155.054688 261.21875 154.996094 259.863281 154.941406 C 259.128906 158.15625 258.398438 161.3125 257.664062 164.527344 C 256.875 167.910156 256.027344 171.296875 255.183594 174.679688 C 254.335938 178.0625 253.492188 181.445312 252.589844 184.828125 L 252.136719 186.578125 C 251.628906 188.496094 250.21875 190.300781 247.964844 191.539062 C 243.734375 193.964844 238.265625 193.402344 235.726562 190.300781 C 235.726562 190.300781 235.613281 190.1875 235.558594 190.132812 L 235.386719 189.960938 L 234.992188 189.625 L 234.203125 188.890625 C 233.695312 188.382812 233.132812 187.929688 232.570312 187.425781 C 231.441406 186.464844 230.3125 185.507812 229.183594 184.546875 C 226.871094 182.628906 224.503906 180.714844 222.136719 178.910156 C 217.34375 175.1875 212.265625 171.632812 207.078125 168.191406 C 201.832031 164.753906 196.417969 161.480469 190.78125 158.378906 C 185.140625 155.277344 179.21875 152.402344 173.070312 149.640625 C 174.875 149.808594 176.679688 149.976562 178.484375 150.261719 C 179.386719 150.371094 180.289062 150.542969 181.191406 150.65625 L 183.84375 151.105469 L 185.195312 151.332031 L 186.492188 151.613281 L 189.144531 152.175781 C 189.992188 152.347656 190.894531 152.570312 191.738281 152.796875 C 192.585938 153.023438 193.488281 153.191406 194.332031 153.417969 C 201.214844 155.167969 207.925781 157.367188 214.351562 159.902344 C 220.78125 162.441406 227.042969 165.316406 233.019531 168.476562 C 233.753906 168.871094 234.429688 169.265625 235.164062 169.601562 C 235.277344 168.589844 235.386719 167.628906 235.558594 166.613281 C 235.332031 166.445312 235.105469 166.21875 234.878906 166.050781 C 234.203125 165.488281 233.472656 164.921875 232.738281 164.359375 C 229.863281 162.160156 226.929688 160.015625 223.828125 157.984375 C 220.726562 155.957031 217.511719 154.039062 214.128906 152.234375 C 210.742188 150.484375 207.191406 148.90625 203.300781 147.664062 C 207.585938 147.835938 211.871094 148.398438 216.101562 149.1875 C 220.273438 149.976562 224.390625 150.992188 228.453125 152.121094 C 231.382812 152.96875 234.261719 153.867188 237.082031 154.769531 C 237.136719 154.488281 237.136719 154.152344 237.191406 153.867188 C 237.25 153.304688 237.363281 152.742188 237.417969 152.175781 C 236.234375 151.105469 235.050781 149.976562 233.808594 148.960938 C 232.0625 147.554688 230.257812 146.085938 228.28125 144.847656 C 226.308594 143.550781 224.277344 142.363281 221.910156 141.40625 C 224.671875 141.292969 227.492188 141.519531 230.257812 141.800781 C 233.019531 142.140625 235.726562 142.589844 238.433594 143.152344 C 238.546875 143.152344 238.601562 143.210938 238.714844 143.210938 C 238.773438 142.871094 238.882812 142.476562 238.996094 142.140625 C 240.859375 137.0625 247.34375 133.679688 253.492188 134.582031 L 254.617188 134.75 L 255.859375 134.921875 C 256.367188 134.976562 256.875 135.035156 257.382812 135.089844 C 258.398438 135.203125 259.414062 135.316406 260.484375 135.371094 C 262.570312 135.539062 264.601562 135.539062 266.632812 135.484375 C 270.578125 135.429688 274.355469 134.808594 276.894531 133.90625 C 278.191406 133.453125 279.152344 132.945312 279.941406 132.4375 C 280.335938 132.15625 280.671875 131.875 281.011719 131.59375 C 281.351562 131.253906 281.632812 130.917969 281.914062 130.523438 C 282.535156 129.730469 283.042969 128.660156 283.492188 127.421875 C 283.886719 126.179688 284.226562 124.714844 284.339844 123.191406 L 284.394531 122.910156 L 284.394531 122.570312 L 284.453125 121.949219 C 284.507812 121.554688 284.507812 121.105469 284.507812 120.710938 L 284.507812 119.46875 C 284.507812 119.074219 284.507812 118.679688 284.453125 118.285156 C 284.339844 116.703125 284.167969 115.183594 283.773438 113.714844 C 283.4375 112.25 282.929688 110.839844 282.308594 109.542969 C 281.6875 108.246094 280.898438 107.003906 279.941406 105.820312 C 278.980469 104.636719 277.910156 103.566406 276.667969 102.550781 C 275.429688 101.535156 274.019531 100.632812 272.496094 99.785156 C 270.972656 98.941406 269.28125 98.265625 267.535156 97.644531 C 266.632812 97.363281 265.730469 97.078125 264.828125 96.796875 C 264.375 96.683594 263.925781 96.570312 263.472656 96.460938 L 262.851562 96.347656 L 262.570312 96.289062 L 262.402344 96.289062 L 262.457031 96.289062 L 255.125 90.707031 C 255.011719 88.675781 254.789062 86.648438 254.28125 84.730469 C 253.773438 82.8125 253.039062 80.949219 252.082031 79.203125 C 250.105469 75.707031 247.117188 72.546875 243.113281 69.953125 C 241.140625 68.65625 238.882812 67.527344 236.515625 66.515625 C 235.332031 66.007812 234.089844 65.554688 232.792969 65.105469 C 231.496094 64.652344 230.199219 64.257812 228.847656 63.863281 C 228.167969 63.695312 227.492188 63.523438 226.816406 63.355469 C 226.140625 63.1875 225.460938 63.015625 224.730469 62.847656 C 223.320312 62.507812 221.910156 62.285156 220.445312 62.003906 C 218.019531 61.605469 215.59375 61.210938 213.054688 60.988281 C 213.507812 61.4375 213.957031 61.890625 214.410156 62.285156 L 220.726562 68.316406 L 227.097656 74.410156 C 231.382812 78.46875 235.613281 82.53125 239.898438 86.703125 C 236.742188 85.632812 233.753906 84.390625 230.765625 83.09375 C 229.296875 82.472656 227.773438 81.796875 226.308594 81.121094 L 221.964844 79.089844 C 216.15625 76.328125 210.574219 73.335938 205.105469 70.234375 C 199.632812 67.078125 194.332031 63.808594 189.199219 60.253906 C 184.070312 56.757812 179.105469 53.035156 174.371094 49.085938 C 173.183594 48.074219 172 47.113281 170.871094 46.097656 C 169.6875 45.082031 168.558594 44.070312 167.433594 42.996094 L 165.855469 41.585938 C 165.347656 41.136719 164.839844 40.683594 164.332031 40.234375 C 163.316406 39.332031 162.300781 38.484375 161.230469 37.695312 C 159.144531 36.0625 157 34.539062 154.800781 33.183594 C 152.601562 31.886719 150.34375 30.703125 148.089844 29.855469 C 145.832031 28.953125 143.632812 28.390625 141.433594 28.050781 C 139.292969 27.714844 137.148438 27.714844 135.003906 27.941406 C 132.863281 28.164062 130.664062 28.730469 128.351562 29.519531 C 127.167969 29.914062 126.039062 30.421875 124.796875 30.984375 C 123.613281 31.550781 122.375 32.167969 121.1875 32.789062 C 120.570312 33.128906 119.949219 33.464844 119.382812 33.859375 C 118.765625 34.199219 118.144531 34.59375 117.578125 34.988281 C 116.847656 35.441406 116.058594 36.0625 115.210938 36.738281 C 113.574219 38.148438 111.941406 40.007812 110.472656 42.039062 C 109.007812 44.070312 107.597656 46.269531 106.355469 48.582031 C 105.117188 50.890625 104.046875 53.316406 103.085938 55.742188 C 102.128906 58.222656 101.28125 60.703125 100.605469 63.242188 C 99.871094 65.78125 99.308594 68.375 98.855469 70.914062 C 97.898438 76.101562 97.503906 81.289062 97.503906 86.476562 C 97.558594 95.105469 98.96875 103.679688 102.070312 111.855469 C 102.128906 111.855469 102.183594 111.796875 102.183594 111.796875 C 103.933594 111.234375 105.679688 110.671875 107.429688 110.105469 C 107.203125 108.585938 107.089844 107.117188 106.976562 105.59375 C 106.753906 102.550781 106.695312 99.503906 106.753906 96.460938 C 106.808594 93.414062 106.976562 90.367188 107.316406 87.324219 C 107.652344 84.277344 108.105469 81.289062 108.667969 78.242188 C 109.234375 75.253906 109.964844 72.210938 110.757812 69.21875 L 111.375 66.964844 C 111.601562 66.230469 111.828125 65.5 112.109375 64.765625 C 112.5625 63.300781 113.125 61.832031 113.632812 60.367188 C 115.832031 54.5 118.539062 48.75 121.753906 43.167969 C 119.835938 48.976562 118.480469 54.839844 117.691406 60.648438 C 117.523438 62.113281 117.296875 63.523438 117.183594 64.992188 C 117.128906 65.722656 117.070312 66.457031 117.015625 67.132812 L 116.902344 69.277344 C 116.789062 72.152344 116.734375 75.03125 116.902344 77.847656 C 117.015625 80.667969 117.242188 83.488281 117.636719 86.25 C 118.03125 89.015625 118.480469 91.777344 119.101562 94.484375 C 119.722656 97.191406 120.457031 99.84375 121.300781 102.4375 C 121.753906 103.734375 122.203125 105.03125 122.65625 106.273438 C 122.65625 106.328125 122.710938 106.386719 122.710938 106.441406 C 124.855469 106.046875 127.054688 105.765625 129.195312 105.484375 C 129.195312 105.257812 129.253906 104.976562 129.253906 104.691406 C 129.421875 102.832031 129.648438 100.972656 129.988281 99.167969 C 130.605469 95.5 131.394531 91.890625 132.46875 88.339844 L 132.863281 86.984375 L 133.3125 85.632812 C 133.597656 84.730469 133.878906 83.882812 134.214844 82.980469 C 134.894531 81.234375 135.511719 79.484375 136.304688 77.734375 C 137.769531 74.296875 139.574219 70.914062 141.433594 67.585938 C 140.871094 71.082031 140.417969 74.523438 140.363281 77.960938 C 140.25 79.652344 140.308594 81.34375 140.363281 83.039062 C 140.363281 83.882812 140.476562 84.730469 140.476562 85.574219 L 140.53125 86.816406 L 140.644531 88.054688 C 140.984375 91.382812 141.546875 94.597656 142.28125 97.757812 C 142.675781 99.335938 143.125 100.914062 143.578125 102.4375 C 143.804688 103.058594 144.027344 103.734375 144.253906 104.355469 L 149.21875 104.355469 C 149.273438 103.847656 149.328125 103.394531 149.386719 102.886719 C 149.667969 100.40625 150.0625 97.980469 150.683594 95.613281 L 150.910156 94.710938 L 151.132812 93.808594 C 151.304688 93.1875 151.472656 92.625 151.640625 92.003906 C 152.035156 90.820312 152.375 89.636719 152.828125 88.507812 C 153.617188 86.195312 154.6875 83.882812 155.757812 81.683594 C 156.039062 83.941406 156.324219 86.140625 156.886719 88.28125 C 157.113281 89.355469 157.449219 90.425781 157.789062 91.441406 C 157.957031 91.949219 158.128906 92.457031 158.296875 93.019531 L 158.578125 93.808594 L 158.859375 94.542969 C 159.648438 96.570312 160.550781 98.546875 161.566406 100.40625 C 162.074219 101.367188 162.640625 102.269531 163.203125 103.171875 C 163.484375 103.621094 163.765625 104.074219 164.105469 104.46875 C 164.273438 104.691406 164.386719 104.863281 164.554688 105.085938 C 164.613281 105.144531 164.667969 105.257812 164.726562 105.3125 C 166.980469 105.539062 169.179688 105.820312 171.324219 106.160156 C 176.679688 106.949219 181.925781 107.964844 187.058594 109.203125 C 192.191406 110.390625 197.152344 111.855469 202.003906 113.492188 C 204.425781 114.28125 206.796875 115.125 209.164062 116.085938 C 211.535156 116.988281 213.789062 117.945312 216.101562 118.960938 C 220.613281 120.992188 225.011719 123.132812 229.070312 125.671875 C 218.75 123.980469 208.488281 122.625 198.222656 121.613281 C 193.09375 121.105469 188.015625 120.710938 182.886719 120.425781 C 180.234375 120.257812 177.640625 120.203125 175.046875 120.089844 C 172.566406 120.03125 170.140625 119.976562 167.660156 119.976562 C 162.582031 119.976562 157.5625 120.144531 152.542969 120.425781 C 152.09375 120.484375 151.585938 120.484375 151.132812 120.539062 C 150.34375 120.597656 149.554688 120.652344 148.824219 120.710938 L 147.863281 120.765625 L 146.960938 120.878906 L 145.101562 121.046875 L 143.238281 121.214844 C 142.617188 121.273438 142 121.386719 141.378906 121.441406 C 140.136719 121.609375 138.953125 121.722656 137.710938 121.949219 L 134.101562 122.511719 L 133.199219 122.683594 L 132.296875 122.851562 L 130.492188 123.191406 L 128.691406 123.527344 C 128.070312 123.640625 127.503906 123.8125 126.941406 123.921875 C 125.757812 124.207031 124.574219 124.488281 123.445312 124.769531 L 120.003906 125.726562 L 119.160156 125.953125 C 118.875 126.011719 118.59375 126.121094 118.3125 126.234375 L 116.621094 126.800781 C 116.339844 126.855469 116.058594 126.96875 115.773438 127.023438 C 115.210938 128.605469 114.589844 130.238281 113.96875 131.820312 C 113.96875 131.875 113.914062 131.929688 113.914062 131.988281 L 112.164062 136.613281 L 112.054688 136.835938 L 110.136719 141.6875 C 109.289062 143.832031 108.445312 145.972656 107.597656 148.117188 C 107.652344 148.117188 107.710938 148.117188 107.824219 148.117188 C 110.757812 148.003906 113.632812 147.949219 116.507812 147.949219 C 117.972656 147.949219 119.382812 147.949219 120.851562 148.003906 C 122.316406 148.003906 123.726562 148.117188 125.136719 148.117188 C 128.011719 148.230469 130.832031 148.398438 133.707031 148.625 C 135.117188 148.738281 136.527344 148.851562 137.9375 149.019531 L 140.082031 149.246094 L 142.167969 149.46875 C 144.988281 149.808594 147.75 150.203125 150.515625 150.65625 L 154.632812 151.386719 C 155.984375 151.613281 157.339844 151.953125 158.691406 152.234375 C 164.105469 153.417969 169.40625 154.769531 174.480469 156.519531 C 175.101562 156.746094 175.777344 156.914062 176.398438 157.140625 L 178.261719 157.816406 L 180.121094 158.492188 C 180.742188 158.71875 181.363281 158.945312 181.984375 159.226562 C 183.222656 159.734375 184.40625 160.242188 185.589844 160.75 C 186.210938 160.976562 186.777344 161.257812 187.394531 161.539062 L 189.144531 162.382812 C 190.328125 162.949219 191.457031 163.457031 192.585938 164.132812 L 195.910156 165.9375 C 196.984375 166.558594 198.054688 167.234375 199.125 167.910156 L 200.707031 168.925781 L 202.226562 169.996094 C 203.242188 170.675781 204.203125 171.40625 205.21875 172.140625 C 206.175781 172.875 207.132812 173.664062 208.035156 174.398438 L 209.445312 175.523438 C 209.898438 175.917969 210.292969 176.3125 210.742188 176.707031 C 211.589844 177.5 212.4375 178.34375 213.28125 179.132812 C 212.039062 178.683594 210.855469 178.230469 209.671875 177.78125 C 209.050781 177.554688 208.488281 177.328125 207.867188 177.105469 L 206.0625 176.484375 C 204.824219 176.089844 203.636719 175.636719 202.453125 175.242188 C 201.214844 174.847656 199.972656 174.507812 198.789062 174.113281 L 196.984375 173.550781 L 195.121094 173.042969 L 191.457031 172.027344 C 188.976562 171.464844 186.550781 170.789062 184.011719 170.28125 L 182.152344 169.886719 C 181.53125 169.773438 180.910156 169.601562 180.289062 169.492188 C 179.050781 169.265625 177.753906 169.039062 176.511719 168.8125 C 175.273438 168.589844 173.972656 168.417969 172.734375 168.191406 L 170.871094 167.910156 C 170.253906 167.796875 169.574219 167.742188 168.957031 167.6875 C 163.878906 166.953125 158.746094 166.5 153.617188 166.105469 C 148.484375 165.710938 143.296875 165.542969 138.105469 165.488281 L 134.214844 165.488281 C 132.917969 165.488281 131.621094 165.488281 130.324219 165.542969 C 129.027344 165.597656 127.730469 165.597656 126.433594 165.65625 C 125.136719 165.710938 123.839844 165.710938 122.542969 165.769531 C 119.949219 165.882812 117.355469 165.992188 114.703125 166.164062 C 113.40625 166.277344 112.109375 166.332031 110.8125 166.445312 L 108.839844 166.613281 L 106.921875 166.785156 C 104.328125 167.007812 101.734375 167.289062 99.195312 167.628906 C 97.898438 167.796875 96.65625 167.96875 95.417969 168.136719 C 94.796875 168.191406 94.175781 168.304688 93.554688 168.417969 L 92.652344 168.53125 L 92.257812 168.589844 L 91.921875 168.644531 C 90.398438 168.925781 88.820312 168.984375 87.238281 168.757812 C 80.921875 167.855469 77.3125 162.890625 79.230469 157.648438 L 79.34375 157.308594 C 80.527344 154.09375 81.769531 150.824219 83.011719 147.609375 C 84.25 144.394531 85.492188 141.179688 86.789062 137.910156 L 88.707031 133.058594 L 90.679688 128.210938 C 91.636719 125.785156 92.652344 123.414062 93.667969 120.992188 C 89.945312 116.480469 86.957031 111.460938 84.589844 106.273438 C 82.164062 100.859375 80.414062 95.164062 79.402344 89.355469 C 78.328125 83.542969 77.992188 77.511719 78.328125 71.476562 C 78.5 68.429688 78.835938 65.386719 79.34375 62.285156 C 79.851562 59.238281 80.585938 56.136719 81.488281 53.035156 C 82.332031 49.933594 83.40625 46.832031 84.8125 43.675781 Z M 84.8125 43.675781 " fill-opacity="1" fill-rule="nonzero"/></g><g fill="#ebb22f" fill-opacity="1"><g transform="translate(10.042138, 362.864863)"><g><path d="M 3.703125 -1.46875 L 3.703125 -1.890625 C 3.703125 -2.046875 3.710938 -2.160156 3.734375 -2.234375 C 3.753906 -2.316406 3.863281 -2.4375 4.0625 -2.59375 C 4.175781 -2.625 4.347656 -2.6875 4.578125 -2.78125 C 4.816406 -2.882812 5.054688 -2.992188 5.296875 -3.109375 C 5.535156 -3.234375 5.75 -3.34375 5.9375 -3.4375 C 6.132812 -3.539062 6.234375 -3.613281 6.234375 -3.65625 L 10 -3.65625 C 10.039062 -3.65625 10.171875 -3.671875 10.390625 -3.703125 C 10.609375 -3.742188 10.832031 -3.789062 11.0625 -3.84375 C 11.300781 -3.90625 11.523438 -3.957031 11.734375 -4 C 11.953125 -4.039062 12.0625 -4.0625 12.0625 -4.0625 L 16.125 -4.0625 C 16.394531 -4.257812 16.628906 -4.472656 16.828125 -4.703125 C 17.023438 -4.941406 17.164062 -5.21875 17.25 -5.53125 C 17.28125 -5.769531 17.328125 -6.203125 17.390625 -6.828125 C 17.453125 -7.453125 17.5 -8.109375 17.53125 -8.796875 C 17.570312 -9.484375 17.601562 -10.140625 17.625 -10.765625 C 17.644531 -11.398438 17.65625 -11.832031 17.65625 -12.0625 L 17.65625 -12.484375 C 17.65625 -12.796875 17.585938 -13.039062 17.453125 -13.21875 C 17.316406 -13.394531 17.25 -13.597656 17.25 -13.828125 L 17.25 -14.359375 C 17.25 -14.515625 17.265625 -14.925781 17.296875 -15.59375 C 17.335938 -16.257812 17.382812 -16.984375 17.4375 -17.765625 C 17.5 -18.554688 17.550781 -19.285156 17.59375 -19.953125 C 17.632812 -20.617188 17.65625 -21.050781 17.65625 -21.25 L 17.65625 -27.1875 C 17.65625 -27.226562 17.675781 -27.351562 17.71875 -27.5625 C 17.757812 -27.78125 17.796875 -28.015625 17.828125 -28.265625 C 17.867188 -28.523438 17.910156 -28.765625 17.953125 -28.984375 C 17.992188 -29.203125 18.015625 -29.332031 18.015625 -29.375 C 18.015625 -29.445312 17.992188 -29.640625 17.953125 -29.953125 C 17.910156 -30.265625 17.867188 -30.609375 17.828125 -30.984375 C 17.796875 -31.359375 17.757812 -31.710938 17.71875 -32.046875 C 17.675781 -32.378906 17.65625 -32.601562 17.65625 -32.71875 C 17.65625 -33.070312 17.65625 -33.726562 17.65625 -34.6875 C 17.65625 -35.65625 17.664062 -36.6875 17.6875 -37.78125 C 17.707031 -38.882812 17.71875 -39.925781 17.71875 -40.90625 C 17.71875 -41.882812 17.71875 -42.585938 17.71875 -43.015625 L 17.71875 -44.078125 L 18.015625 -55.09375 C 17.816406 -55.476562 17.707031 -55.757812 17.6875 -55.9375 C 17.664062 -56.113281 17.65625 -56.359375 17.65625 -56.671875 C 17.65625 -57.847656 17.832031 -58.972656 18.1875 -60.046875 C 18.539062 -61.128906 18.71875 -62.242188 18.71875 -63.390625 C 18.71875 -63.972656 18.597656 -64.585938 18.359375 -65.234375 C 18.128906 -65.878906 18.015625 -66.535156 18.015625 -67.203125 C 18.015625 -68.578125 18.082031 -69.953125 18.21875 -71.328125 C 18.351562 -72.703125 18.421875 -74.078125 18.421875 -75.453125 L 18.421875 -80.09375 C 18.304688 -81.082031 17.765625 -81.757812 16.796875 -82.125 C 15.835938 -82.5 14.71875 -82.773438 13.4375 -82.953125 C 12.164062 -83.128906 10.890625 -83.296875 9.609375 -83.453125 C 8.335938 -83.609375 7.351562 -83.960938 6.65625 -84.515625 C 6.144531 -84.742188 5.890625 -85.253906 5.890625 -86.046875 C 5.890625 -86.515625 6.144531 -86.804688 6.65625 -86.921875 C 7.164062 -87.046875 7.632812 -87.109375 8.0625 -87.109375 L 9.234375 -87.109375 C 11.898438 -86.910156 14.578125 -86.789062 17.265625 -86.75 C 19.960938 -86.707031 22.660156 -86.570312 25.359375 -86.34375 L 58.734375 -86.34375 C 58.847656 -86.34375 59.082031 -86.359375 59.4375 -86.390625 C 59.789062 -86.429688 60.171875 -86.472656 60.578125 -86.515625 C 60.992188 -86.554688 61.378906 -86.59375 61.734375 -86.625 C 62.085938 -86.664062 62.34375 -86.6875 62.5 -86.6875 L 64.390625 -86.6875 C 64.617188 -86.6875 65.046875 -86.664062 65.671875 -86.625 C 66.304688 -86.59375 66.96875 -86.554688 67.65625 -86.515625 C 68.34375 -86.472656 69 -86.429688 69.625 -86.390625 C 70.25 -86.359375 70.679688 -86.34375 70.921875 -86.34375 C 71.117188 -86.257812 71.320312 -86.164062 71.53125 -86.0625 C 71.75 -85.96875 71.914062 -85.820312 72.03125 -85.625 L 72.03125 -82.28125 C 72.03125 -82 72.019531 -81.492188 72 -80.765625 C 71.988281 -80.046875 71.960938 -79.273438 71.921875 -78.453125 C 71.878906 -77.628906 71.828125 -76.851562 71.765625 -76.125 C 71.710938 -75.394531 71.664062 -74.894531 71.625 -74.625 C 71.976562 -73.644531 72.191406 -72.664062 72.265625 -71.6875 C 72.347656 -70.707031 72.390625 -69.722656 72.390625 -68.734375 L 72.390625 -65.328125 C 72.234375 -64.929688 72.078125 -64.65625 71.921875 -64.5 C 71.765625 -64.34375 71.46875 -64.265625 71.03125 -64.265625 C 70.445312 -64.265625 69.914062 -64.597656 69.4375 -65.265625 C 68.96875 -65.929688 68.535156 -66.707031 68.140625 -67.59375 C 67.753906 -68.476562 67.394531 -69.367188 67.0625 -70.265625 C 66.726562 -71.171875 66.40625 -71.878906 66.09375 -72.390625 C 66.09375 -72.390625 66.03125 -72.476562 65.90625 -72.65625 C 65.789062 -72.832031 65.644531 -73.023438 65.46875 -73.234375 C 65.289062 -73.453125 65.125 -73.660156 64.96875 -73.859375 C 64.8125 -74.054688 64.710938 -74.191406 64.671875 -74.265625 C 64.640625 -74.265625 64.582031 -74.425781 64.5 -74.75 L 64.390625 -75.21875 C 64.304688 -75.289062 64.164062 -75.472656 63.96875 -75.765625 C 63.769531 -76.066406 63.65625 -76.253906 63.625 -76.328125 C 62.757812 -77.503906 62.007812 -78.523438 61.375 -79.390625 C 60.75 -80.253906 60.082031 -80.953125 59.375 -81.484375 C 58.675781 -82.015625 57.851562 -82.40625 56.90625 -82.65625 C 55.96875 -82.914062 54.734375 -83.046875 53.203125 -83.046875 C 52.773438 -83.046875 52.363281 -82.972656 51.96875 -82.828125 C 51.570312 -82.691406 51.160156 -82.625 50.734375 -82.625 L 50.375 -82.625 C 50.257812 -82.625 50.003906 -82.671875 49.609375 -82.765625 C 49.222656 -82.867188 48.96875 -82.960938 48.84375 -83.046875 L 40.78125 -83.046875 C 40.738281 -83.046875 40.609375 -83.0625 40.390625 -83.09375 C 40.179688 -83.132812 39.945312 -83.164062 39.6875 -83.1875 C 39.4375 -83.207031 39.191406 -83.238281 38.953125 -83.28125 C 38.722656 -83.320312 38.566406 -83.34375 38.484375 -83.34375 L 36.484375 -83.34375 C 34.597656 -83.34375 33.191406 -82.921875 32.265625 -82.078125 C 31.347656 -81.234375 30.890625 -79.804688 30.890625 -77.796875 L 30.890625 -77.390625 C 30.890625 -77.347656 30.929688 -77.195312 31.015625 -76.9375 C 31.097656 -76.6875 31.175781 -76.484375 31.25 -76.328125 L 31.25 -67.203125 C 31.25 -66.066406 31.117188 -64.921875 30.859375 -63.765625 C 30.609375 -62.609375 30.484375 -61.484375 30.484375 -60.390625 L 30.484375 -59.90625 C 30.484375 -59.789062 30.503906 -59.523438 30.546875 -59.109375 C 30.585938 -58.703125 30.632812 -58.269531 30.6875 -57.8125 C 30.75 -57.363281 30.796875 -56.941406 30.828125 -56.546875 C 30.867188 -56.160156 30.890625 -55.929688 30.890625 -55.859375 L 30.890625 -46.265625 C 30.929688 -46.023438 31.007812 -45.828125 31.125 -45.671875 C 31.25 -45.515625 31.390625 -45.359375 31.546875 -45.203125 C 31.773438 -45.203125 32.164062 -45.21875 32.71875 -45.25 C 33.269531 -45.289062 33.859375 -45.332031 34.484375 -45.375 C 35.109375 -45.414062 35.707031 -45.453125 36.28125 -45.484375 C 36.851562 -45.523438 37.253906 -45.546875 37.484375 -45.546875 C 37.609375 -45.546875 37.835938 -45.554688 38.171875 -45.578125 C 38.503906 -45.597656 38.84375 -45.628906 39.1875 -45.671875 C 39.539062 -45.710938 39.863281 -45.757812 40.15625 -45.8125 C 40.457031 -45.875 40.664062 -45.925781 40.78125 -45.96875 C 40.820312 -45.96875 40.921875 -45.984375 41.078125 -46.015625 C 41.234375 -46.054688 41.390625 -46.085938 41.546875 -46.109375 C 41.703125 -46.128906 41.847656 -46.160156 41.984375 -46.203125 C 42.128906 -46.242188 42.21875 -46.265625 42.25 -46.265625 L 48.546875 -46.265625 C 48.941406 -46.265625 49.382812 -46.320312 49.875 -46.4375 C 50.363281 -46.550781 50.820312 -46.734375 51.25 -46.984375 C 51.6875 -47.242188 52.050781 -47.550781 52.34375 -47.90625 C 52.644531 -48.257812 52.8125 -48.671875 52.84375 -49.140625 L 53.609375 -60.328125 C 53.691406 -60.835938 53.9375 -61.207031 54.34375 -61.4375 C 54.757812 -61.675781 55.179688 -61.796875 55.609375 -61.796875 C 56.359375 -61.796875 57.015625 -61.597656 57.578125 -61.203125 C 58.148438 -60.816406 58.4375 -60.226562 58.4375 -59.4375 L 58.4375 -58.4375 C 58.4375 -58.320312 58.414062 -58.054688 58.375 -57.640625 C 58.34375 -57.234375 58.304688 -56.789062 58.265625 -56.3125 C 58.222656 -55.84375 58.179688 -55.421875 58.140625 -55.046875 C 58.109375 -54.679688 58.09375 -54.457031 58.09375 -54.375 L 58.09375 -47.4375 C 58.09375 -47.351562 58.070312 -47.191406 58.03125 -46.953125 C 57.988281 -46.722656 57.9375 -46.476562 57.875 -46.21875 C 57.820312 -45.96875 57.773438 -45.734375 57.734375 -45.515625 C 57.691406 -45.304688 57.671875 -45.203125 57.671875 -45.203125 L 57.671875 -44.78125 C 57.671875 -42.394531 57.847656 -40.003906 58.203125 -37.609375 C 58.554688 -35.210938 58.734375 -32.816406 58.734375 -30.421875 L 58.734375 -28.25 C 58.492188 -27.582031 58.164062 -26.992188 57.75 -26.484375 C 57.34375 -25.972656 56.75 -25.71875 55.96875 -25.71875 C 55.414062 -25.71875 54.953125 -25.863281 54.578125 -26.15625 C 54.210938 -26.457031 53.929688 -26.820312 53.734375 -27.25 C 53.535156 -27.675781 53.394531 -28.15625 53.3125 -28.6875 C 53.238281 -29.21875 53.203125 -29.703125 53.203125 -30.140625 C 53.203125 -30.765625 53.269531 -31.378906 53.40625 -31.984375 C 53.539062 -32.597656 53.609375 -33.238281 53.609375 -33.90625 C 53.609375 -35.082031 53.539062 -36.070312 53.40625 -36.875 C 53.269531 -37.675781 53.003906 -38.320312 52.609375 -38.8125 C 52.222656 -39.300781 51.675781 -39.660156 50.96875 -39.890625 C 50.257812 -40.128906 49.335938 -40.269531 48.203125 -40.3125 C 48.085938 -40.3125 47.765625 -40.332031 47.234375 -40.375 C 46.703125 -40.414062 46.140625 -40.460938 45.546875 -40.515625 C 44.960938 -40.578125 44.414062 -40.625 43.90625 -40.65625 C 43.394531 -40.695312 43.082031 -40.71875 42.96875 -40.71875 C 41.46875 -40.800781 39.941406 -40.890625 38.390625 -40.984375 C 36.847656 -41.085938 35.332031 -41.140625 33.84375 -41.140625 L 31.953125 -41.140625 C 31.878906 -41.054688 31.691406 -40.925781 31.390625 -40.75 C 31.097656 -40.570312 30.929688 -40.425781 30.890625 -40.3125 C 30.859375 -40.269531 30.820312 -40.238281 30.78125 -40.21875 C 30.738281 -40.207031 30.695312 -40.179688 30.65625 -40.140625 C 30.582031 -40.097656 30.523438 -40.054688 30.484375 -40.015625 L 30.484375 -23.015625 C 30.441406 -22.972656 30.398438 -22.851562 30.359375 -22.65625 C 30.328125 -22.457031 30.289062 -22.238281 30.25 -22 C 30.207031 -21.769531 30.164062 -21.546875 30.125 -21.328125 C 30.09375 -21.117188 30.078125 -20.953125 30.078125 -20.828125 C 30.078125 -20.753906 30.132812 -20.597656 30.25 -20.359375 L 30.484375 -19.890625 L 30.484375 -19.0625 C 30.484375 -17.03125 30.414062 -15.003906 30.28125 -12.984375 C 30.144531 -10.960938 30.078125 -8.945312 30.078125 -6.9375 L 30.078125 -6.125 C 30.078125 -5.769531 30.09375 -5.414062 30.125 -5.0625 C 30.164062 -4.707031 30.285156 -4.375 30.484375 -4.0625 L 33.84375 -4.0625 C 34 -4.0625 34.269531 -4.070312 34.65625 -4.09375 C 35.050781 -4.113281 35.484375 -4.140625 35.953125 -4.171875 C 36.429688 -4.210938 36.875 -4.253906 37.28125 -4.296875 C 37.695312 -4.335938 38.003906 -4.394531 38.203125 -4.46875 C 38.429688 -4.195312 38.632812 -4.039062 38.8125 -4 C 38.988281 -3.957031 39.210938 -3.9375 39.484375 -3.9375 C 40.148438 -3.9375 40.757812 -4.070312 41.3125 -4.34375 C 41.863281 -4.625 42.414062 -4.765625 42.96875 -4.765625 C 43.320312 -4.765625 43.65625 -4.664062 43.96875 -4.46875 C 44.28125 -4.269531 44.550781 -4.015625 44.78125 -3.703125 C 45.019531 -3.390625 45.21875 -3.054688 45.375 -2.703125 C 45.53125 -2.347656 45.609375 -2.035156 45.609375 -1.765625 C 45.609375 -1.171875 45.476562 -0.707031 45.21875 -0.375 C 44.96875 -0.0390625 44.632812 0.207031 44.21875 0.375 C 43.8125 0.550781 43.351562 0.660156 42.84375 0.703125 C 42.332031 0.742188 41.84375 0.765625 41.375 0.765625 L 37.90625 0.765625 C 37.394531 0.453125 37.039062 0.242188 36.84375 0.140625 C 36.644531 0.046875 36.332031 0 35.90625 0 C 35.238281 0 34.597656 0.0664062 33.984375 0.203125 C 33.378906 0.335938 32.742188 0.40625 32.078125 0.40625 C 31.210938 0.40625 30.378906 0.335938 29.578125 0.203125 C 28.773438 0.0664062 27.921875 0 27.015625 0 C 26.191406 0 25.335938 0.0664062 24.453125 0.203125 C 23.566406 0.335938 22.710938 0.40625 21.890625 0.40625 C 20.992188 0.40625 20.128906 0.335938 19.296875 0.203125 C 18.472656 0.0664062 17.613281 0 16.71875 0 C 15.144531 0 13.59375 0.125 12.0625 0.375 C 10.53125 0.632812 8.960938 0.765625 7.359375 0.765625 L 5.59375 0.765625 C 5.082031 0.523438 4.640625 0.257812 4.265625 -0.03125 C 3.890625 -0.320312 3.703125 -0.800781 3.703125 -1.46875 Z M 3.703125 -1.46875 "/></g></g></g><g fill="#ebb22f" fill-opacity="1"><g transform="translate(85.666963, 362.864863)"><g><path d="M 14.25 -24.71875 L 14.25 -21.25 C 14.28125 -20.9375 14.363281 -20.445312 14.5 -19.78125 C 14.644531 -19.113281 14.8125 -18.414062 15 -17.6875 C 15.195312 -16.957031 15.394531 -16.28125 15.59375 -15.65625 C 15.789062 -15.03125 15.96875 -14.597656 16.125 -14.359375 C 16.164062 -14.242188 16.289062 -14.019531 16.5 -13.6875 C 16.71875 -13.351562 16.953125 -13 17.203125 -12.625 C 17.460938 -12.25 17.703125 -11.894531 17.921875 -11.5625 C 18.140625 -11.226562 18.265625 -11.023438 18.296875 -10.953125 C 18.335938 -10.867188 18.425781 -10.679688 18.5625 -10.390625 C 18.707031 -10.097656 18.863281 -9.789062 19.03125 -9.46875 C 19.207031 -9.15625 19.363281 -8.851562 19.5 -8.5625 C 19.644531 -8.269531 19.738281 -8.082031 19.78125 -8 C 19.8125 -7.957031 19.894531 -7.859375 20.03125 -7.703125 C 20.175781 -7.546875 20.335938 -7.390625 20.515625 -7.234375 C 20.691406 -7.078125 20.859375 -6.929688 21.015625 -6.796875 C 21.171875 -6.660156 21.25 -6.570312 21.25 -6.53125 C 21.5625 -6.175781 21.910156 -5.675781 22.296875 -5.03125 C 22.691406 -4.382812 23.109375 -3.925781 23.546875 -3.65625 C 23.578125 -3.570312 23.804688 -3.476562 24.234375 -3.375 C 24.671875 -3.28125 24.929688 -3.210938 25.015625 -3.171875 C 25.796875 -2.859375 26.550781 -2.613281 27.28125 -2.4375 C 28.007812 -2.257812 28.84375 -2.171875 29.78125 -2.171875 C 30.488281 -2.171875 31.078125 -2.257812 31.546875 -2.4375 C 32.015625 -2.613281 32.453125 -2.859375 32.859375 -3.171875 C 33.273438 -3.492188 33.6875 -3.859375 34.09375 -4.265625 C 34.507812 -4.679688 35.015625 -5.101562 35.609375 -5.53125 C 36.191406 -5.957031 36.609375 -6.457031 36.859375 -7.03125 C 37.117188 -7.601562 37.445312 -8.160156 37.84375 -8.703125 C 38.195312 -9.296875 38.597656 -9.863281 39.046875 -10.40625 C 39.492188 -10.957031 39.914062 -11.507812 40.3125 -12.0625 C 40.46875 -12.300781 40.570312 -12.5 40.625 -12.65625 C 40.6875 -12.8125 40.726562 -12.957031 40.75 -13.09375 C 40.769531 -13.226562 40.789062 -13.394531 40.8125 -13.59375 C 40.832031 -13.789062 40.898438 -14.046875 41.015625 -14.359375 C 41.054688 -14.359375 41.144531 -14.484375 41.28125 -14.734375 C 41.414062 -14.992188 41.5625 -15.300781 41.71875 -15.65625 C 41.882812 -16.007812 42.046875 -16.363281 42.203125 -16.71875 C 42.359375 -17.070312 42.492188 -17.363281 42.609375 -17.59375 C 42.648438 -17.675781 42.691406 -17.773438 42.734375 -17.890625 C 42.765625 -17.972656 42.800781 -18.050781 42.84375 -18.125 C 42.882812 -18.207031 42.90625 -18.265625 42.90625 -18.296875 C 42.976562 -18.535156 43.0625 -18.890625 43.15625 -19.359375 C 43.257812 -19.828125 43.347656 -20.296875 43.421875 -20.765625 C 43.503906 -21.242188 43.578125 -21.664062 43.640625 -22.03125 C 43.703125 -22.40625 43.734375 -22.632812 43.734375 -22.71875 L 43.734375 -26.609375 C 43.734375 -28.640625 43.625 -30.710938 43.40625 -32.828125 C 43.1875 -34.953125 42.6875 -36.992188 41.90625 -38.953125 C 41.238281 -40.453125 40.539062 -41.859375 39.8125 -43.171875 C 39.082031 -44.484375 38.035156 -45.648438 36.671875 -46.671875 C 36.585938 -46.710938 36.328125 -46.835938 35.890625 -47.046875 C 35.460938 -47.265625 35.003906 -47.5 34.515625 -47.75 C 34.023438 -48.007812 33.5625 -48.25 33.125 -48.46875 C 32.695312 -48.6875 32.425781 -48.8125 32.3125 -48.84375 C 32.269531 -48.882812 32.160156 -48.960938 31.984375 -49.078125 C 31.804688 -49.203125 31.609375 -49.320312 31.390625 -49.4375 C 31.179688 -49.550781 30.976562 -49.65625 30.78125 -49.75 C 30.582031 -49.851562 30.460938 -49.90625 30.421875 -49.90625 C 30.421875 -49.988281 30.3125 -50.03125 30.09375 -50.03125 C 29.882812 -50.03125 29.738281 -50.03125 29.65625 -50.03125 C 28.164062 -50.03125 26.78125 -49.703125 25.5 -49.046875 C 24.226562 -48.398438 23.070312 -47.566406 22.03125 -46.546875 C 21 -45.523438 20.078125 -44.378906 19.265625 -43.109375 C 18.460938 -41.835938 17.769531 -40.550781 17.1875 -39.25 C 16.164062 -37.019531 15.421875 -34.65625 14.953125 -32.15625 C 14.484375 -29.664062 14.25 -27.1875 14.25 -24.71875 Z M 3.53125 -26.1875 C 3.53125 -26.894531 3.609375 -27.796875 3.765625 -28.890625 C 3.921875 -29.992188 4.132812 -31.125 4.40625 -32.28125 C 4.6875 -33.4375 5.007812 -34.539062 5.375 -35.59375 C 5.75 -36.65625 6.132812 -37.539062 6.53125 -38.25 C 6.96875 -39.039062 7.46875 -39.71875 8.03125 -40.28125 C 8.601562 -40.851562 9.222656 -41.53125 9.890625 -42.3125 C 10.273438 -42.75 10.566406 -43.28125 10.765625 -43.90625 C 10.960938 -44.53125 11.257812 -45.0625 11.65625 -45.5 C 11.8125 -45.6875 12.070312 -45.96875 12.4375 -46.34375 C 12.8125 -46.71875 13.078125 -46.960938 13.234375 -47.078125 C 13.316406 -47.117188 13.484375 -47.175781 13.734375 -47.25 C 13.992188 -47.332031 14.164062 -47.375 14.25 -47.375 C 14.75 -47.613281 15.195312 -47.898438 15.59375 -48.234375 C 15.988281 -48.566406 16.363281 -48.898438 16.71875 -49.234375 C 17.070312 -49.566406 17.429688 -49.898438 17.796875 -50.234375 C 18.171875 -50.566406 18.59375 -50.867188 19.0625 -51.140625 C 20.71875 -52.046875 22.554688 -52.632812 24.578125 -52.90625 C 26.597656 -53.1875 28.53125 -53.328125 30.375 -53.328125 C 30.882812 -53.328125 31.320312 -53.175781 31.6875 -52.875 C 32.0625 -52.582031 32.503906 -52.359375 33.015625 -52.203125 C 33.097656 -52.160156 33.273438 -52.117188 33.546875 -52.078125 C 33.816406 -52.046875 34.117188 -52.019531 34.453125 -52 C 34.785156 -51.976562 35.097656 -51.945312 35.390625 -51.90625 C 35.691406 -51.863281 35.898438 -51.828125 36.015625 -51.796875 C 36.054688 -51.796875 36.222656 -51.742188 36.515625 -51.640625 C 36.804688 -51.546875 36.992188 -51.476562 37.078125 -51.4375 C 37.148438 -51.394531 37.320312 -51.304688 37.59375 -51.171875 C 37.875 -51.035156 38.179688 -50.878906 38.515625 -50.703125 C 38.847656 -50.523438 39.160156 -50.359375 39.453125 -50.203125 C 39.753906 -50.046875 39.941406 -49.945312 40.015625 -49.90625 C 40.523438 -49.707031 41.144531 -49.519531 41.875 -49.34375 C 42.601562 -49.164062 43.222656 -48.898438 43.734375 -48.546875 C 43.804688 -48.515625 43.929688 -48.398438 44.109375 -48.203125 C 44.285156 -48.003906 44.472656 -47.796875 44.671875 -47.578125 C 44.867188 -47.367188 45.054688 -47.175781 45.234375 -47 C 45.410156 -46.820312 45.515625 -46.710938 45.546875 -46.671875 C 45.585938 -46.628906 45.695312 -46.554688 45.875 -46.453125 C 46.050781 -46.359375 46.238281 -46.242188 46.4375 -46.109375 C 46.632812 -45.972656 46.828125 -45.84375 47.015625 -45.71875 C 47.210938 -45.601562 47.351562 -45.53125 47.4375 -45.5 C 48.613281 -44.550781 49.625 -43.367188 50.46875 -41.953125 C 51.3125 -40.546875 52 -39.023438 52.53125 -37.390625 C 53.0625 -35.765625 53.453125 -34.117188 53.703125 -32.453125 C 53.960938 -30.785156 54.09375 -29.226562 54.09375 -27.78125 L 54.09375 -26.125 C 54.050781 -25.738281 54 -25.203125 53.9375 -24.515625 C 53.875 -23.828125 53.820312 -23.148438 53.78125 -22.484375 C 53.75 -21.816406 53.722656 -21.226562 53.703125 -20.71875 C 53.679688 -20.207031 53.671875 -19.929688 53.671875 -19.890625 C 53.671875 -19.773438 53.59375 -19.472656 53.4375 -18.984375 C 53.28125 -18.492188 53.101562 -17.953125 52.90625 -17.359375 C 52.707031 -16.773438 52.5 -16.195312 52.28125 -15.625 C 52.070312 -15.050781 51.910156 -14.628906 51.796875 -14.359375 C 51.796875 -14.285156 51.734375 -14.140625 51.609375 -13.921875 C 51.492188 -13.703125 51.375 -13.460938 51.25 -13.203125 C 51.132812 -12.953125 51.03125 -12.71875 50.9375 -12.5 C 50.84375 -12.289062 50.773438 -12.144531 50.734375 -12.0625 C 50.734375 -11.988281 50.660156 -11.8125 50.515625 -11.53125 C 50.378906 -11.257812 50.3125 -11.066406 50.3125 -10.953125 C 50.195312 -10.796875 49.960938 -10.507812 49.609375 -10.09375 C 49.253906 -9.675781 48.878906 -9.234375 48.484375 -8.765625 C 48.097656 -8.296875 47.726562 -7.84375 47.375 -7.40625 C 47.019531 -6.976562 46.785156 -6.6875 46.671875 -6.53125 C 46.585938 -6.457031 46.398438 -6.320312 46.109375 -6.125 C 45.816406 -5.925781 45.628906 -5.828125 45.546875 -5.828125 C 45.429688 -5.628906 45.273438 -5.53125 45.078125 -5.53125 C 44.960938 -5.375 44.738281 -5.15625 44.40625 -4.875 C 44.070312 -4.601562 43.726562 -4.332031 43.375 -4.0625 C 43.019531 -3.789062 42.695312 -3.535156 42.40625 -3.296875 C 42.113281 -3.054688 41.945312 -2.921875 41.90625 -2.890625 C 41.46875 -2.609375 41.101562 -2.457031 40.8125 -2.4375 C 40.519531 -2.414062 40.140625 -2.328125 39.671875 -2.171875 C 39.546875 -2.097656 39.273438 -1.960938 38.859375 -1.765625 C 38.453125 -1.566406 38.210938 -1.46875 38.140625 -1.46875 C 38.097656 -1.46875 37.957031 -1.4375 37.71875 -1.375 C 37.488281 -1.320312 37.222656 -1.273438 36.921875 -1.234375 C 36.628906 -1.191406 36.351562 -1.140625 36.09375 -1.078125 C 35.84375 -1.023438 35.679688 -1 35.609375 -1 C 35.453125 -1 35.132812 -0.898438 34.65625 -0.703125 C 34.1875 -0.503906 33.914062 -0.367188 33.84375 -0.296875 L 27.78125 -0.296875 C 26.875 -0.296875 25.988281 -0.304688 25.125 -0.328125 C 24.257812 -0.347656 23.4375 -0.4375 22.65625 -0.59375 C 22.613281 -0.59375 22.515625 -0.628906 22.359375 -0.703125 C 22.203125 -0.785156 22.015625 -0.882812 21.796875 -1 C 21.585938 -1.113281 21.40625 -1.21875 21.25 -1.3125 C 21.09375 -1.414062 20.992188 -1.46875 20.953125 -1.46875 C 20.910156 -1.46875 20.789062 -1.476562 20.59375 -1.5 C 20.394531 -1.519531 20.1875 -1.546875 19.96875 -1.578125 C 19.757812 -1.617188 19.566406 -1.660156 19.390625 -1.703125 C 19.210938 -1.742188 19.101562 -1.765625 19.0625 -1.765625 C 19.03125 -1.765625 18.847656 -1.878906 18.515625 -2.109375 C 18.179688 -2.347656 17.972656 -2.46875 17.890625 -2.46875 C 17.816406 -2.550781 17.59375 -2.671875 17.21875 -2.828125 C 16.84375 -2.984375 16.578125 -3.097656 16.421875 -3.171875 C 15.515625 -3.609375 14.597656 -4.171875 13.671875 -4.859375 C 12.753906 -5.546875 11.894531 -6.316406 11.09375 -7.171875 C 10.289062 -8.035156 9.554688 -8.9375 8.890625 -9.875 C 8.222656 -10.820312 7.691406 -11.785156 7.296875 -12.765625 C 7.253906 -12.921875 7.179688 -13.253906 7.078125 -13.765625 C 6.984375 -14.273438 6.9375 -14.570312 6.9375 -14.65625 C 6.863281 -14.695312 6.726562 -14.882812 6.53125 -15.21875 C 6.332031 -15.550781 6.195312 -15.753906 6.125 -15.828125 C 5.769531 -16.492188 5.4375 -17.269531 5.125 -18.15625 C 4.8125 -19.039062 4.535156 -19.953125 4.296875 -20.890625 C 4.054688 -21.835938 3.867188 -22.769531 3.734375 -23.6875 C 3.597656 -24.613281 3.53125 -25.445312 3.53125 -26.1875 Z M 3.53125 -26.1875 "/></g></g></g><g fill="#ebb22f" fill-opacity="1"><g transform="translate(143.695033, 362.864863)"><g><path d="M 14.25 -24.71875 L 14.25 -21.25 C 14.28125 -20.9375 14.363281 -20.445312 14.5 -19.78125 C 14.644531 -19.113281 14.8125 -18.414062 15 -17.6875 C 15.195312 -16.957031 15.394531 -16.28125 15.59375 -15.65625 C 15.789062 -15.03125 15.96875 -14.597656 16.125 -14.359375 C 16.164062 -14.242188 16.289062 -14.019531 16.5 -13.6875 C 16.71875 -13.351562 16.953125 -13 17.203125 -12.625 C 17.460938 -12.25 17.703125 -11.894531 17.921875 -11.5625 C 18.140625 -11.226562 18.265625 -11.023438 18.296875 -10.953125 C 18.335938 -10.867188 18.425781 -10.679688 18.5625 -10.390625 C 18.707031 -10.097656 18.863281 -9.789062 19.03125 -9.46875 C 19.207031 -9.15625 19.363281 -8.851562 19.5 -8.5625 C 19.644531 -8.269531 19.738281 -8.082031 19.78125 -8 C 19.8125 -7.957031 19.894531 -7.859375 20.03125 -7.703125 C 20.175781 -7.546875 20.335938 -7.390625 20.515625 -7.234375 C 20.691406 -7.078125 20.859375 -6.929688 21.015625 -6.796875 C 21.171875 -6.660156 21.25 -6.570312 21.25 -6.53125 C 21.5625 -6.175781 21.910156 -5.675781 22.296875 -5.03125 C 22.691406 -4.382812 23.109375 -3.925781 23.546875 -3.65625 C 23.578125 -3.570312 23.804688 -3.476562 24.234375 -3.375 C 24.671875 -3.28125 24.929688 -3.210938 25.015625 -3.171875 C 25.796875 -2.859375 26.550781 -2.613281 27.28125 -2.4375 C 28.007812 -2.257812 28.84375 -2.171875 29.78125 -2.171875 C 30.488281 -2.171875 31.078125 -2.257812 31.546875 -2.4375 C 32.015625 -2.613281 32.453125 -2.859375 32.859375 -3.171875 C 33.273438 -3.492188 33.6875 -3.859375 34.09375 -4.265625 C 34.507812 -4.679688 35.015625 -5.101562 35.609375 -5.53125 C 36.191406 -5.957031 36.609375 -6.457031 36.859375 -7.03125 C 37.117188 -7.601562 37.445312 -8.160156 37.84375 -8.703125 C 38.195312 -9.296875 38.597656 -9.863281 39.046875 -10.40625 C 39.492188 -10.957031 39.914062 -11.507812 40.3125 -12.0625 C 40.46875 -12.300781 40.570312 -12.5 40.625 -12.65625 C 40.6875 -12.8125 40.726562 -12.957031 40.75 -13.09375 C 40.769531 -13.226562 40.789062 -13.394531 40.8125 -13.59375 C 40.832031 -13.789062 40.898438 -14.046875 41.015625 -14.359375 C 41.054688 -14.359375 41.144531 -14.484375 41.28125 -14.734375 C 41.414062 -14.992188 41.5625 -15.300781 41.71875 -15.65625 C 41.882812 -16.007812 42.046875 -16.363281 42.203125 -16.71875 C 42.359375 -17.070312 42.492188 -17.363281 42.609375 -17.59375 C 42.648438 -17.675781 42.691406 -17.773438 42.734375 -17.890625 C 42.765625 -17.972656 42.800781 -18.050781 42.84375 -18.125 C 42.882812 -18.207031 42.90625 -18.265625 42.90625 -18.296875 C 42.976562 -18.535156 43.0625 -18.890625 43.15625 -19.359375 C 43.257812 -19.828125 43.347656 -20.296875 43.421875 -20.765625 C 43.503906 -21.242188 43.578125 -21.664062 43.640625 -22.03125 C 43.703125 -22.40625 43.734375 -22.632812 43.734375 -22.71875 L 43.734375 -26.609375 C 43.734375 -28.640625 43.625 -30.710938 43.40625 -32.828125 C 43.1875 -34.953125 42.6875 -36.992188 41.90625 -38.953125 C 41.238281 -40.453125 40.539062 -41.859375 39.8125 -43.171875 C 39.082031 -44.484375 38.035156 -45.648438 36.671875 -46.671875 C 36.585938 -46.710938 36.328125 -46.835938 35.890625 -47.046875 C 35.460938 -47.265625 35.003906 -47.5 34.515625 -47.75 C 34.023438 -48.007812 33.5625 -48.25 33.125 -48.46875 C 32.695312 -48.6875 32.425781 -48.8125 32.3125 -48.84375 C 32.269531 -48.882812 32.160156 -48.960938 31.984375 -49.078125 C 31.804688 -49.203125 31.609375 -49.320312 31.390625 -49.4375 C 31.179688 -49.550781 30.976562 -49.65625 30.78125 -49.75 C 30.582031 -49.851562 30.460938 -49.90625 30.421875 -49.90625 C 30.421875 -49.988281 30.3125 -50.03125 30.09375 -50.03125 C 29.882812 -50.03125 29.738281 -50.03125 29.65625 -50.03125 C 28.164062 -50.03125 26.78125 -49.703125 25.5 -49.046875 C 24.226562 -48.398438 23.070312 -47.566406 22.03125 -46.546875 C 21 -45.523438 20.078125 -44.378906 19.265625 -43.109375 C 18.460938 -41.835938 17.769531 -40.550781 17.1875 -39.25 C 16.164062 -37.019531 15.421875 -34.65625 14.953125 -32.15625 C 14.484375 -29.664062 14.25 -27.1875 14.25 -24.71875 Z M 3.53125 -26.1875 C 3.53125 -26.894531 3.609375 -27.796875 3.765625 -28.890625 C 3.921875 -29.992188 4.132812 -31.125 4.40625 -32.28125 C 4.6875 -33.4375 5.007812 -34.539062 5.375 -35.59375 C 5.75 -36.65625 6.132812 -37.539062 6.53125 -38.25 C 6.96875 -39.039062 7.46875 -39.71875 8.03125 -40.28125 C 8.601562 -40.851562 9.222656 -41.53125 9.890625 -42.3125 C 10.273438 -42.75 10.566406 -43.28125 10.765625 -43.90625 C 10.960938 -44.53125 11.257812 -45.0625 11.65625 -45.5 C 11.8125 -45.6875 12.070312 -45.96875 12.4375 -46.34375 C 12.8125 -46.71875 13.078125 -46.960938 13.234375 -47.078125 C 13.316406 -47.117188 13.484375 -47.175781 13.734375 -47.25 C 13.992188 -47.332031 14.164062 -47.375 14.25 -47.375 C 14.75 -47.613281 15.195312 -47.898438 15.59375 -48.234375 C 15.988281 -48.566406 16.363281 -48.898438 16.71875 -49.234375 C 17.070312 -49.566406 17.429688 -49.898438 17.796875 -50.234375 C 18.171875 -50.566406 18.59375 -50.867188 19.0625 -51.140625 C 20.71875 -52.046875 22.554688 -52.632812 24.578125 -52.90625 C 26.597656 -53.1875 28.53125 -53.328125 30.375 -53.328125 C 30.882812 -53.328125 31.320312 -53.175781 31.6875 -52.875 C 32.0625 -52.582031 32.503906 -52.359375 33.015625 -52.203125 C 33.097656 -52.160156 33.273438 -52.117188 33.546875 -52.078125 C 33.816406 -52.046875 34.117188 -52.019531 34.453125 -52 C 34.785156 -51.976562 35.097656 -51.945312 35.390625 -51.90625 C 35.691406 -51.863281 35.898438 -51.828125 36.015625 -51.796875 C 36.054688 -51.796875 36.222656 -51.742188 36.515625 -51.640625 C 36.804688 -51.546875 36.992188 -51.476562 37.078125 -51.4375 C 37.148438 -51.394531 37.320312 -51.304688 37.59375 -51.171875 C 37.875 -51.035156 38.179688 -50.878906 38.515625 -50.703125 C 38.847656 -50.523438 39.160156 -50.359375 39.453125 -50.203125 C 39.753906 -50.046875 39.941406 -49.945312 40.015625 -49.90625 C 40.523438 -49.707031 41.144531 -49.519531 41.875 -49.34375 C 42.601562 -49.164062 43.222656 -48.898438 43.734375 -48.546875 C 43.804688 -48.515625 43.929688 -48.398438 44.109375 -48.203125 C 44.285156 -48.003906 44.472656 -47.796875 44.671875 -47.578125 C 44.867188 -47.367188 45.054688 -47.175781 45.234375 -47 C 45.410156 -46.820312 45.515625 -46.710938 45.546875 -46.671875 C 45.585938 -46.628906 45.695312 -46.554688 45.875 -46.453125 C 46.050781 -46.359375 46.238281 -46.242188 46.4375 -46.109375 C 46.632812 -45.972656 46.828125 -45.84375 47.015625 -45.71875 C 47.210938 -45.601562 47.351562 -45.53125 47.4375 -45.5 C 48.613281 -44.550781 49.625 -43.367188 50.46875 -41.953125 C 51.3125 -40.546875 52 -39.023438 52.53125 -37.390625 C 53.0625 -35.765625 53.453125 -34.117188 53.703125 -32.453125 C 53.960938 -30.785156 54.09375 -29.226562 54.09375 -27.78125 L 54.09375 -26.125 C 54.050781 -25.738281 54 -25.203125 53.9375 -24.515625 C 53.875 -23.828125 53.820312 -23.148438 53.78125 -22.484375 C 53.75 -21.816406 53.722656 -21.226562 53.703125 -20.71875 C 53.679688 -20.207031 53.671875 -19.929688 53.671875 -19.890625 C 53.671875 -19.773438 53.59375 -19.472656 53.4375 -18.984375 C 53.28125 -18.492188 53.101562 -17.953125 52.90625 -17.359375 C 52.707031 -16.773438 52.5 -16.195312 52.28125 -15.625 C 52.070312 -15.050781 51.910156 -14.628906 51.796875 -14.359375 C 51.796875 -14.285156 51.734375 -14.140625 51.609375 -13.921875 C 51.492188 -13.703125 51.375 -13.460938 51.25 -13.203125 C 51.132812 -12.953125 51.03125 -12.71875 50.9375 -12.5 C 50.84375 -12.289062 50.773438 -12.144531 50.734375 -12.0625 C 50.734375 -11.988281 50.660156 -11.8125 50.515625 -11.53125 C 50.378906 -11.257812 50.3125 -11.066406 50.3125 -10.953125 C 50.195312 -10.796875 49.960938 -10.507812 49.609375 -10.09375 C 49.253906 -9.675781 48.878906 -9.234375 48.484375 -8.765625 C 48.097656 -8.296875 47.726562 -7.84375 47.375 -7.40625 C 47.019531 -6.976562 46.785156 -6.6875 46.671875 -6.53125 C 46.585938 -6.457031 46.398438 -6.320312 46.109375 -6.125 C 45.816406 -5.925781 45.628906 -5.828125 45.546875 -5.828125 C 45.429688 -5.628906 45.273438 -5.53125 45.078125 -5.53125 C 44.960938 -5.375 44.738281 -5.15625 44.40625 -4.875 C 44.070312 -4.601562 43.726562 -4.332031 43.375 -4.0625 C 43.019531 -3.789062 42.695312 -3.535156 42.40625 -3.296875 C 42.113281 -3.054688 41.945312 -2.921875 41.90625 -2.890625 C 41.46875 -2.609375 41.101562 -2.457031 40.8125 -2.4375 C 40.519531 -2.414062 40.140625 -2.328125 39.671875 -2.171875 C 39.546875 -2.097656 39.273438 -1.960938 38.859375 -1.765625 C 38.453125 -1.566406 38.210938 -1.46875 38.140625 -1.46875 C 38.097656 -1.46875 37.957031 -1.4375 37.71875 -1.375 C 37.488281 -1.320312 37.222656 -1.273438 36.921875 -1.234375 C 36.628906 -1.191406 36.351562 -1.140625 36.09375 -1.078125 C 35.84375 -1.023438 35.679688 -1 35.609375 -1 C 35.453125 -1 35.132812 -0.898438 34.65625 -0.703125 C 34.1875 -0.503906 33.914062 -0.367188 33.84375 -0.296875 L 27.78125 -0.296875 C 26.875 -0.296875 25.988281 -0.304688 25.125 -0.328125 C 24.257812 -0.347656 23.4375 -0.4375 22.65625 -0.59375 C 22.613281 -0.59375 22.515625 -0.628906 22.359375 -0.703125 C 22.203125 -0.785156 22.015625 -0.882812 21.796875 -1 C 21.585938 -1.113281 21.40625 -1.21875 21.25 -1.3125 C 21.09375 -1.414062 20.992188 -1.46875 20.953125 -1.46875 C 20.910156 -1.46875 20.789062 -1.476562 20.59375 -1.5 C 20.394531 -1.519531 20.1875 -1.546875 19.96875 -1.578125 C 19.757812 -1.617188 19.566406 -1.660156 19.390625 -1.703125 C 19.210938 -1.742188 19.101562 -1.765625 19.0625 -1.765625 C 19.03125 -1.765625 18.847656 -1.878906 18.515625 -2.109375 C 18.179688 -2.347656 17.972656 -2.46875 17.890625 -2.46875 C 17.816406 -2.550781 17.59375 -2.671875 17.21875 -2.828125 C 16.84375 -2.984375 16.578125 -3.097656 16.421875 -3.171875 C 15.515625 -3.609375 14.597656 -4.171875 13.671875 -4.859375 C 12.753906 -5.546875 11.894531 -6.316406 11.09375 -7.171875 C 10.289062 -8.035156 9.554688 -8.9375 8.890625 -9.875 C 8.222656 -10.820312 7.691406 -11.785156 7.296875 -12.765625 C 7.253906 -12.921875 7.179688 -13.253906 7.078125 -13.765625 C 6.984375 -14.273438 6.9375 -14.570312 6.9375 -14.65625 C 6.863281 -14.695312 6.726562 -14.882812 6.53125 -15.21875 C 6.332031 -15.550781 6.195312 -15.753906 6.125 -15.828125 C 5.769531 -16.492188 5.4375 -17.269531 5.125 -18.15625 C 4.8125 -19.039062 4.535156 -19.953125 4.296875 -20.890625 C 4.054688 -21.835938 3.867188 -22.769531 3.734375 -23.6875 C 3.597656 -24.613281 3.53125 -25.445312 3.53125 -26.1875 Z M 3.53125 -26.1875 "/></g></g></g><g fill="#ebb22f" fill-opacity="1"><g transform="translate(201.723102, 362.864863)"><g><path d="M 25.125 -6.828125 C 25.320312 -6.785156 25.695312 -6.722656 26.25 -6.640625 C 26.800781 -6.566406 27.390625 -6.488281 28.015625 -6.40625 C 28.640625 -6.332031 29.242188 -6.253906 29.828125 -6.171875 C 30.421875 -6.097656 30.835938 -6.039062 31.078125 -6 L 31.484375 -6 C 32.585938 -6 33.578125 -6.085938 34.453125 -6.265625 C 35.335938 -6.441406 36.289062 -6.726562 37.3125 -7.125 C 37.351562 -7.125 37.507812 -7.191406 37.78125 -7.328125 C 38.0625 -7.460938 38.21875 -7.53125 38.25 -7.53125 C 38.40625 -7.769531 38.59375 -8.066406 38.8125 -8.421875 C 39.03125 -8.773438 39.234375 -9.164062 39.421875 -9.59375 C 39.617188 -10.019531 39.785156 -10.457031 39.921875 -10.90625 C 40.066406 -11.363281 40.140625 -11.789062 40.140625 -12.1875 L 40.140625 -12.234375 C 40.140625 -12.398438 40.128906 -12.640625 40.109375 -12.953125 C 40.085938 -13.265625 40.054688 -13.597656 40.015625 -13.953125 C 39.984375 -14.304688 39.945312 -14.640625 39.90625 -14.953125 C 39.863281 -15.265625 39.820312 -15.476562 39.78125 -15.59375 L 39.78125 -33.3125 C 39.78125 -33.539062 39.769531 -33.976562 39.75 -34.625 C 39.726562 -35.28125 39.695312 -35.976562 39.65625 -36.71875 C 39.625 -37.46875 39.585938 -38.175781 39.546875 -38.84375 C 39.503906 -39.507812 39.484375 -39.976562 39.484375 -40.25 C 39.484375 -40.445312 39.414062 -40.722656 39.28125 -41.078125 C 39.144531 -41.429688 39.078125 -41.648438 39.078125 -41.734375 C 38.804688 -42.234375 38.453125 -42.617188 38.015625 -42.890625 C 37.585938 -43.171875 37.132812 -43.398438 36.65625 -43.578125 C 36.1875 -43.753906 35.71875 -43.921875 35.25 -44.078125 C 34.78125 -44.234375 34.347656 -44.46875 33.953125 -44.78125 C 32.578125 -45.6875 31.300781 -46.441406 30.125 -47.046875 C 28.957031 -47.660156 27.53125 -47.96875 25.84375 -47.96875 C 25.289062 -47.96875 24.75 -47.816406 24.21875 -47.515625 C 23.6875 -47.222656 23.175781 -46.859375 22.6875 -46.421875 C 22.195312 -45.992188 21.71875 -45.546875 21.25 -45.078125 C 20.78125 -44.609375 20.328125 -44.21875 19.890625 -43.90625 C 19.816406 -43.863281 19.757812 -43.820312 19.71875 -43.78125 C 19.632812 -43.707031 19.59375 -43.648438 19.59375 -43.609375 C 18.570312 -42.273438 17.6875 -40.84375 16.9375 -39.3125 C 16.195312 -37.78125 15.492188 -36.269531 14.828125 -34.78125 C 14.753906 -34.625 14.675781 -34.4375 14.59375 -34.21875 C 14.519531 -34.007812 14.441406 -33.804688 14.359375 -33.609375 C 14.242188 -33.367188 14.144531 -33.132812 14.0625 -32.90625 L 14.0625 -24.84375 C 14.300781 -24.050781 14.429688 -23.253906 14.453125 -22.453125 C 14.472656 -21.648438 14.597656 -20.816406 14.828125 -19.953125 C 15.378906 -17.597656 16.257812 -15.585938 17.46875 -13.921875 C 18.6875 -12.253906 20.21875 -10.613281 22.0625 -9 C 22.570312 -8.570312 23.039062 -8.140625 23.46875 -7.703125 C 23.90625 -7.273438 24.457031 -6.984375 25.125 -6.828125 Z M 3.65625 -21.359375 L 3.65625 -21.484375 C 3.769531 -21.710938 3.914062 -22.050781 4.09375 -22.5 C 4.269531 -22.957031 4.359375 -23.34375 4.359375 -23.65625 C 4.359375 -23.851562 4.304688 -24.050781 4.203125 -24.25 C 4.109375 -24.445312 4.0625 -24.703125 4.0625 -25.015625 C 4.0625 -25.597656 4.175781 -26.210938 4.40625 -26.859375 C 4.644531 -27.515625 4.804688 -28.191406 4.890625 -28.890625 C 4.960938 -30.617188 5.164062 -32.25 5.5 -33.78125 C 5.832031 -35.3125 6.472656 -36.84375 7.421875 -38.375 C 7.421875 -38.445312 7.46875 -38.53125 7.5625 -38.625 C 7.65625 -38.726562 7.703125 -38.800781 7.703125 -38.84375 C 7.859375 -39 8.054688 -39.210938 8.296875 -39.484375 C 8.535156 -39.765625 8.769531 -40.039062 9 -40.3125 C 9.238281 -40.582031 9.457031 -40.828125 9.65625 -41.046875 C 9.851562 -41.265625 9.96875 -41.394531 10 -41.4375 C 10.039062 -41.46875 10.128906 -41.59375 10.265625 -41.8125 C 10.398438 -42.03125 10.546875 -42.265625 10.703125 -42.515625 C 10.867188 -42.773438 11.019531 -43.007812 11.15625 -43.21875 C 11.289062 -43.4375 11.394531 -43.566406 11.46875 -43.609375 C 11.90625 -44.035156 12.503906 -44.394531 13.265625 -44.6875 C 14.035156 -44.988281 14.65625 -45.351562 15.125 -45.78125 C 15.207031 -45.863281 15.351562 -46.007812 15.5625 -46.21875 C 15.78125 -46.4375 16.003906 -46.671875 16.234375 -46.921875 C 16.472656 -47.179688 16.703125 -47.410156 16.921875 -47.609375 C 17.140625 -47.804688 17.265625 -47.925781 17.296875 -47.96875 C 17.335938 -48.007812 17.472656 -48.066406 17.703125 -48.140625 C 17.941406 -48.222656 18.1875 -48.3125 18.4375 -48.40625 C 18.695312 -48.5 18.9375 -48.585938 19.15625 -48.671875 C 19.375 -48.753906 19.519531 -48.8125 19.59375 -48.84375 C 19.789062 -48.84375 19.890625 -48.941406 19.890625 -49.140625 C 21.929688 -49.535156 24.03125 -49.945312 26.1875 -50.375 C 28.34375 -50.8125 30.5 -51.03125 32.65625 -51.03125 C 33.445312 -51.03125 34.222656 -50.941406 34.984375 -50.765625 C 35.753906 -50.585938 36.53125 -50.5 37.3125 -50.5 C 37.738281 -50.5 38.085938 -50.675781 38.359375 -51.03125 C 38.640625 -51.382812 38.859375 -51.796875 39.015625 -52.265625 C 39.171875 -52.734375 39.28125 -53.234375 39.34375 -53.765625 C 39.40625 -54.296875 39.453125 -54.738281 39.484375 -55.09375 C 39.566406 -56.851562 39.632812 -58.691406 39.6875 -60.609375 C 39.75 -62.535156 39.78125 -64.441406 39.78125 -66.328125 L 39.78125 -68.203125 C 39.78125 -68.367188 39.757812 -68.703125 39.71875 -69.203125 C 39.6875 -69.710938 39.660156 -70.253906 39.640625 -70.828125 C 39.617188 -71.398438 39.585938 -71.941406 39.546875 -72.453125 C 39.503906 -72.960938 39.484375 -73.296875 39.484375 -73.453125 L 39.484375 -75.453125 C 39.484375 -76.003906 39.460938 -76.539062 39.421875 -77.0625 C 39.390625 -77.59375 39.273438 -78.078125 39.078125 -78.515625 C 38.835938 -79.023438 38.382812 -79.414062 37.71875 -79.6875 C 37.050781 -79.957031 36.351562 -80.191406 35.625 -80.390625 C 34.90625 -80.585938 34.257812 -80.789062 33.6875 -81 C 33.125 -81.21875 32.84375 -81.503906 32.84375 -81.859375 C 32.84375 -81.984375 32.910156 -82.148438 33.046875 -82.359375 C 33.179688 -82.578125 33.335938 -82.785156 33.515625 -82.984375 C 33.691406 -83.179688 33.878906 -83.359375 34.078125 -83.515625 C 34.273438 -83.671875 34.453125 -83.75 34.609375 -83.75 C 34.679688 -83.75 34.863281 -83.679688 35.15625 -83.546875 C 35.457031 -83.410156 35.644531 -83.34375 35.71875 -83.34375 C 35.84375 -83.34375 36 -83.398438 36.1875 -83.515625 C 36.3125 -83.585938 36.410156 -83.664062 36.484375 -83.75 C 36.609375 -83.789062 36.875 -83.878906 37.28125 -84.015625 C 37.695312 -84.148438 38.140625 -84.304688 38.609375 -84.484375 C 39.078125 -84.660156 39.535156 -84.816406 39.984375 -84.953125 C 40.441406 -85.085938 40.769531 -85.175781 40.96875 -85.21875 C 42.21875 -85.644531 43.441406 -86.113281 44.640625 -86.625 C 45.835938 -87.132812 47.125 -87.390625 48.5 -87.390625 L 49.140625 -87.390625 C 49.578125 -87.390625 49.960938 -87.332031 50.296875 -87.21875 C 50.628906 -87.101562 50.851562 -86.8125 50.96875 -86.34375 L 50.96875 -83.15625 C 50.96875 -81.039062 50.878906 -78.929688 50.703125 -76.828125 C 50.523438 -74.734375 50.4375 -72.585938 50.4375 -70.390625 C 50.4375 -69.953125 50.457031 -69.613281 50.5 -69.375 C 50.539062 -69.144531 50.695312 -68.753906 50.96875 -68.203125 C 50.925781 -67.972656 50.882812 -67.5625 50.84375 -66.96875 C 50.8125 -66.382812 50.765625 -65.757812 50.703125 -65.09375 C 50.640625 -64.425781 50.585938 -63.796875 50.546875 -63.203125 C 50.515625 -62.617188 50.476562 -62.207031 50.4375 -61.96875 C 50.351562 -57.5 50.300781 -53.035156 50.28125 -48.578125 C 50.269531 -44.128906 50.222656 -39.664062 50.140625 -35.1875 C 50.140625 -35.03125 50.117188 -34.664062 50.078125 -34.09375 C 50.046875 -33.53125 50 -32.90625 49.9375 -32.21875 C 49.875 -31.53125 49.820312 -30.898438 49.78125 -30.328125 C 49.75 -29.765625 49.734375 -29.40625 49.734375 -29.25 L 49.734375 -27.609375 C 49.734375 -24.460938 49.820312 -21.359375 50 -18.296875 C 50.175781 -15.242188 50.222656 -12.144531 50.140625 -9 C 50.253906 -8.289062 50.554688 -7.738281 51.046875 -7.34375 C 51.546875 -6.957031 52.128906 -6.65625 52.796875 -6.4375 C 53.460938 -6.226562 54.144531 -6.101562 54.84375 -6.0625 C 55.550781 -6.019531 56.160156 -6 56.671875 -6 C 56.867188 -5.957031 57.046875 -5.789062 57.203125 -5.5 C 57.359375 -5.207031 57.4375 -5.019531 57.4375 -4.9375 C 57.4375 -4.75 57.367188 -4.554688 57.234375 -4.359375 C 57.097656 -4.160156 56.929688 -3.984375 56.734375 -3.828125 C 56.535156 -3.671875 56.335938 -3.519531 56.140625 -3.375 C 55.953125 -3.238281 55.796875 -3.132812 55.671875 -3.0625 C 55.597656 -2.976562 55.398438 -2.90625 55.078125 -2.84375 C 54.765625 -2.789062 54.570312 -2.765625 54.5 -2.765625 C 53.207031 -2.410156 51.929688 -2.046875 50.671875 -1.671875 C 49.421875 -1.304688 48.125 -0.945312 46.78125 -0.59375 C 46 -0.351562 45.242188 -0.0976562 44.515625 0.171875 C 43.796875 0.453125 43.003906 0.59375 42.140625 0.59375 C 41.359375 0.59375 40.835938 0.316406 40.578125 -0.234375 C 40.328125 -0.785156 40.148438 -1.382812 40.046875 -2.03125 C 39.953125 -2.675781 39.863281 -3.273438 39.78125 -3.828125 C 39.707031 -4.378906 39.472656 -4.65625 39.078125 -4.65625 C 38.992188 -4.65625 38.765625 -4.582031 38.390625 -4.4375 C 38.023438 -4.300781 37.765625 -4.210938 37.609375 -4.171875 C 35.960938 -2.804688 34.21875 -1.671875 32.375 -0.765625 C 30.53125 0.140625 28.546875 0.59375 26.421875 0.59375 C 23.515625 0.59375 20.828125 0.179688 18.359375 -0.640625 C 15.890625 -1.472656 13.691406 -3.046875 11.765625 -5.359375 C 11.734375 -5.429688 11.695312 -5.53125 11.65625 -5.65625 C 11.570312 -5.8125 11.507812 -5.925781 11.46875 -6 C 11.46875 -6.039062 11.425781 -6.160156 11.34375 -6.359375 C 11.269531 -6.554688 11.191406 -6.75 11.109375 -6.9375 C 11.035156 -7.132812 10.957031 -7.320312 10.875 -7.5 C 10.800781 -7.675781 10.75 -7.785156 10.71875 -7.828125 C 10.71875 -7.867188 10.644531 -7.90625 10.5 -7.9375 C 10.363281 -7.976562 10.207031 -8.019531 10.03125 -8.0625 C 9.851562 -8.101562 9.695312 -8.132812 9.5625 -8.15625 C 9.425781 -8.175781 9.335938 -8.1875 9.296875 -8.1875 C 8.628906 -8.53125 7.960938 -9.269531 7.296875 -10.40625 C 6.628906 -11.550781 6.019531 -12.816406 5.46875 -14.203125 C 4.925781 -15.597656 4.488281 -16.960938 4.15625 -18.296875 C 3.820312 -19.628906 3.65625 -20.648438 3.65625 -21.359375 Z M 3.65625 -21.359375 "/></g></g></g><g fill="#ebb22f" fill-opacity="1"><g transform="translate(261.045916, 362.864863)"><g><path d="M 15.359375 -37.78125 C 15.359375 -37.707031 15.40625 -37.617188 15.5 -37.515625 C 15.601562 -37.421875 15.691406 -37.375 15.765625 -37.375 C 15.890625 -37.332031 16.066406 -37.289062 16.296875 -37.25 C 16.535156 -37.207031 16.789062 -37.164062 17.0625 -37.125 C 17.34375 -37.09375 17.597656 -37.054688 17.828125 -37.015625 C 18.066406 -36.972656 18.222656 -36.953125 18.296875 -36.953125 L 33.65625 -36.953125 C 34.332031 -36.953125 34.992188 -37.140625 35.640625 -37.515625 C 36.285156 -37.890625 36.609375 -38.46875 36.609375 -39.25 C 36.609375 -40.3125 36.441406 -41.34375 36.109375 -42.34375 C 35.773438 -43.34375 35.3125 -44.285156 34.71875 -45.171875 C 34.132812 -46.054688 33.4375 -46.835938 32.625 -47.515625 C 31.820312 -48.203125 30.953125 -48.742188 30.015625 -49.140625 C 29.585938 -49.335938 29.253906 -49.5625 29.015625 -49.8125 C 28.773438 -50.070312 28.398438 -50.203125 27.890625 -50.203125 C 26.597656 -50.203125 25.21875 -49.867188 23.75 -49.203125 C 22.28125 -48.535156 20.914062 -47.671875 19.65625 -46.609375 C 18.40625 -45.546875 17.359375 -44.359375 16.515625 -43.046875 C 15.671875 -41.734375 15.25 -40.429688 15.25 -39.140625 C 15.25 -38.984375 15.265625 -38.738281 15.296875 -38.40625 C 15.335938 -38.070312 15.359375 -37.863281 15.359375 -37.78125 Z M 4.40625 -25.1875 C 4.21875 -25.457031 4.082031 -25.757812 4 -26.09375 C 3.925781 -26.4375 3.890625 -26.765625 3.890625 -27.078125 C 3.890625 -27.390625 3.90625 -27.671875 3.9375 -27.921875 C 3.976562 -28.179688 4 -28.410156 4 -28.609375 L 4 -30.421875 C 4 -30.503906 4.035156 -30.691406 4.109375 -30.984375 C 4.191406 -31.273438 4.289062 -31.597656 4.40625 -31.953125 C 4.53125 -32.304688 4.648438 -32.648438 4.765625 -32.984375 C 4.878906 -33.316406 4.976562 -33.5625 5.0625 -33.71875 C 5.0625 -33.800781 5.175781 -33.988281 5.40625 -34.28125 C 5.644531 -34.570312 5.765625 -34.738281 5.765625 -34.78125 C 6.035156 -35.6875 6.210938 -36.585938 6.296875 -37.484375 C 6.378906 -38.390625 6.691406 -39.21875 7.234375 -39.96875 C 7.316406 -40.039062 7.460938 -40.203125 7.671875 -40.453125 C 7.890625 -40.710938 8.125 -40.988281 8.375 -41.28125 C 8.632812 -41.582031 8.875 -41.847656 9.09375 -42.078125 C 9.3125 -42.316406 9.457031 -42.453125 9.53125 -42.484375 C 9.613281 -42.609375 9.734375 -42.875 9.890625 -43.28125 C 10.046875 -43.695312 10.160156 -43.941406 10.234375 -44.015625 C 10.472656 -44.410156 10.875 -44.753906 11.4375 -45.046875 C 12.007812 -45.347656 12.453125 -45.632812 12.765625 -45.90625 C 13.273438 -46.300781 13.773438 -46.742188 14.265625 -47.234375 C 14.753906 -47.722656 15.242188 -48.210938 15.734375 -48.703125 C 16.234375 -49.191406 16.742188 -49.640625 17.265625 -50.046875 C 17.796875 -50.460938 18.378906 -50.789062 19.015625 -51.03125 C 19.910156 -51.34375 20.847656 -51.59375 21.828125 -51.78125 C 22.816406 -51.976562 23.757812 -52.078125 24.65625 -52.078125 C 25.832031 -52.078125 27.125 -52.054688 28.53125 -52.015625 C 29.945312 -51.984375 31.164062 -51.890625 32.1875 -51.734375 C 32.9375 -51.617188 33.878906 -51.320312 35.015625 -50.84375 C 36.148438 -50.375 37.273438 -49.816406 38.390625 -49.171875 C 39.515625 -48.523438 40.546875 -47.835938 41.484375 -47.109375 C 42.429688 -46.378906 43.117188 -45.703125 43.546875 -45.078125 C 43.941406 -44.492188 44.394531 -43.804688 44.90625 -43.015625 C 45.414062 -42.234375 45.894531 -41.398438 46.34375 -40.515625 C 46.800781 -39.640625 47.1875 -38.78125 47.5 -37.9375 C 47.8125 -37.09375 47.96875 -36.316406 47.96875 -35.609375 C 47.96875 -34.472656 47.476562 -33.609375 46.5 -33.015625 C 46.21875 -33.015625 45.710938 -32.992188 44.984375 -32.953125 C 44.265625 -32.921875 43.492188 -32.875 42.671875 -32.8125 C 41.847656 -32.75 41.0625 -32.695312 40.3125 -32.65625 C 39.570312 -32.625 39.0625 -32.609375 38.78125 -32.609375 L 34.375 -32.609375 C 32.488281 -32.609375 30.660156 -32.703125 28.890625 -32.890625 C 27.128906 -33.085938 25.328125 -33.226562 23.484375 -33.3125 L 20.484375 -33.3125 C 20.398438 -33.3125 20.160156 -33.378906 19.765625 -33.515625 C 19.378906 -33.648438 19.128906 -33.71875 19.015625 -33.71875 C 18.859375 -33.757812 18.59375 -33.804688 18.21875 -33.859375 C 17.84375 -33.921875 17.4375 -33.988281 17 -34.0625 C 16.570312 -34.144531 16.160156 -34.21875 15.765625 -34.28125 C 15.378906 -34.34375 15.109375 -34.390625 14.953125 -34.421875 C 14.640625 -34.347656 14.316406 -34.160156 13.984375 -33.859375 C 13.648438 -33.566406 13.382812 -33.285156 13.1875 -33.015625 C 13.144531 -32.898438 13.101562 -32.675781 13.0625 -32.34375 C 13.019531 -32.007812 12.976562 -31.632812 12.9375 -31.21875 C 12.90625 -30.8125 12.867188 -30.421875 12.828125 -30.046875 C 12.785156 -29.671875 12.765625 -29.40625 12.765625 -29.25 L 12.765625 -28.953125 C 12.804688 -28.835938 12.867188 -28.722656 12.953125 -28.609375 C 13.023438 -28.328125 13.101562 -28.1875 13.1875 -28.1875 C 13.1875 -28.113281 13.300781 -27.925781 13.53125 -27.625 C 13.769531 -27.332031 13.890625 -27.148438 13.890625 -27.078125 C 13.804688 -26.992188 13.75 -26.894531 13.71875 -26.78125 L 13.59375 -26.421875 L 13.59375 -25.484375 C 13.59375 -24.929688 13.660156 -24.46875 13.796875 -24.09375 C 13.929688 -23.726562 14.097656 -23.25 14.296875 -22.65625 C 14.734375 -21.050781 15.265625 -19.5625 15.890625 -18.1875 C 16.515625 -16.8125 17.316406 -15.398438 18.296875 -13.953125 C 18.617188 -13.441406 18.945312 -13.125 19.28125 -13 C 19.613281 -12.882812 20.015625 -12.710938 20.484375 -12.484375 C 20.554688 -12.398438 20.738281 -12.28125 21.03125 -12.125 C 21.332031 -11.96875 21.519531 -11.847656 21.59375 -11.765625 C 23.125 -10.472656 24.769531 -9.472656 26.53125 -8.765625 C 28.300781 -8.054688 30.207031 -7.703125 32.25 -7.703125 C 32.601562 -7.703125 32.894531 -7.75 33.125 -7.84375 C 33.363281 -7.945312 33.59375 -8.054688 33.8125 -8.171875 C 34.03125 -8.296875 34.234375 -8.414062 34.421875 -8.53125 C 34.617188 -8.644531 34.859375 -8.742188 35.140625 -8.828125 L 36.90625 -8.828125 C 37.53125 -8.910156 38.132812 -9.054688 38.71875 -9.265625 C 39.3125 -9.484375 39.890625 -9.695312 40.453125 -9.90625 C 41.023438 -10.125 41.601562 -10.320312 42.1875 -10.5 C 42.78125 -10.675781 43.390625 -10.765625 44.015625 -10.765625 C 44.015625 -10.492188 44.003906 -10.289062 43.984375 -10.15625 C 43.972656 -10.019531 43.9375 -9.890625 43.875 -9.765625 C 43.8125 -9.648438 43.734375 -9.523438 43.640625 -9.390625 C 43.546875 -9.253906 43.414062 -9.066406 43.25 -8.828125 C 42.664062 -7.890625 42.109375 -7.132812 41.578125 -6.5625 C 41.046875 -5.988281 40.484375 -5.484375 39.890625 -5.046875 C 39.304688 -4.617188 38.648438 -4.21875 37.921875 -3.84375 C 37.203125 -3.476562 36.367188 -3.0625 35.421875 -2.59375 C 35.148438 -2.4375 34.9375 -2.285156 34.78125 -2.140625 C 34.625 -2.003906 34.457031 -1.878906 34.28125 -1.765625 C 34.101562 -1.648438 33.90625 -1.53125 33.6875 -1.40625 C 33.476562 -1.289062 33.195312 -1.175781 32.84375 -1.0625 C 32.6875 -1.019531 32.46875 -1 32.1875 -1 C 31.914062 -1 31.640625 -0.96875 31.359375 -0.90625 C 31.085938 -0.851562 30.820312 -0.753906 30.5625 -0.609375 C 30.3125 -0.472656 30.128906 -0.269531 30.015625 0 L 26.125 0 C 23.582031 0 21.238281 -0.253906 19.09375 -0.765625 C 16.957031 -1.273438 14.847656 -2.375 12.765625 -4.0625 C 11.003906 -5.4375 9.5625 -7.125 8.4375 -9.125 C 7.320312 -11.125 6.429688 -13.222656 5.765625 -15.421875 C 5.691406 -15.492188 5.632812 -15.59375 5.59375 -15.71875 C 5.507812 -15.945312 5.46875 -16.125 5.46875 -16.25 C 5.351562 -16.4375 5.234375 -16.707031 5.109375 -17.0625 C 4.992188 -17.414062 4.890625 -17.769531 4.796875 -18.125 C 4.703125 -18.476562 4.613281 -18.78125 4.53125 -19.03125 C 4.445312 -19.289062 4.40625 -19.441406 4.40625 -19.484375 C 4.332031 -19.679688 4.273438 -20.0625 4.234375 -20.625 C 4.191406 -21.195312 4.171875 -21.773438 4.171875 -22.359375 C 4.171875 -22.953125 4.191406 -23.519531 4.234375 -24.0625 C 4.273438 -24.613281 4.332031 -24.988281 4.40625 -25.1875 Z M 4.40625 -25.1875 "/></g></g></g><g fill="#ebb22f" fill-opacity="1"><g transform="translate(311.423225, 362.864863)"><g><path d="M 22.015625 -45.078125 C 22.085938 -45.078125 22.160156 -44.929688 22.234375 -44.640625 C 22.316406 -44.347656 22.421875 -44.003906 22.546875 -43.609375 C 22.773438 -42.785156 23.101562 -41.988281 23.53125 -41.21875 C 23.96875 -40.457031 24.429688 -39.691406 24.921875 -38.921875 C 25.410156 -38.160156 25.898438 -37.40625 26.390625 -36.65625 C 26.878906 -35.914062 27.300781 -35.171875 27.65625 -34.421875 L 28.375 -34.421875 C 29.382812 -34.421875 30.234375 -34.8125 30.921875 -35.59375 C 31.609375 -36.382812 32.109375 -37.234375 32.421875 -38.140625 C 32.421875 -38.179688 32.457031 -38.328125 32.53125 -38.578125 C 32.613281 -38.828125 32.6875 -39.097656 32.75 -39.390625 C 32.8125 -39.691406 32.878906 -39.96875 32.953125 -40.21875 C 33.035156 -40.476562 33.078125 -40.644531 33.078125 -40.71875 C 33.148438 -40.800781 33.320312 -40.976562 33.59375 -41.25 C 33.875 -41.53125 34.160156 -41.835938 34.453125 -42.171875 C 34.753906 -42.503906 35.019531 -42.804688 35.25 -43.078125 C 35.488281 -43.359375 35.628906 -43.535156 35.671875 -43.609375 C 35.859375 -43.847656 35.988281 -44.179688 36.0625 -44.609375 C 36.144531 -45.046875 36.1875 -45.4375 36.1875 -45.78125 C 36.1875 -46.332031 35.953125 -46.742188 35.484375 -47.015625 C 35.015625 -47.296875 34.484375 -47.539062 33.890625 -47.75 C 33.304688 -47.96875 32.78125 -48.222656 32.3125 -48.515625 C 31.84375 -48.816406 31.609375 -49.28125 31.609375 -49.90625 C 31.609375 -50.457031 31.8125 -51.023438 32.21875 -51.609375 C 32.632812 -52.203125 33.195312 -52.5 33.90625 -52.5 L 44.203125 -52.5 C 44.671875 -52.65625 45.109375 -52.742188 45.515625 -52.765625 C 45.929688 -52.785156 46.414062 -52.796875 46.96875 -52.796875 L 47.734375 -52.796875 C 48.273438 -52.796875 48.847656 -52.734375 49.453125 -52.609375 C 50.066406 -52.492188 50.375 -52.160156 50.375 -51.609375 C 50.375 -50.941406 50.195312 -50.351562 49.84375 -49.84375 C 49.488281 -49.332031 49.054688 -48.867188 48.546875 -48.453125 C 48.035156 -48.046875 47.484375 -47.6875 46.890625 -47.375 C 46.304688 -47.0625 45.765625 -46.785156 45.265625 -46.546875 C 45.222656 -46.546875 45.09375 -46.503906 44.875 -46.421875 C 44.65625 -46.347656 44.425781 -46.28125 44.1875 -46.21875 C 43.957031 -46.164062 43.722656 -46.097656 43.484375 -46.015625 C 43.253906 -45.941406 43.117188 -45.90625 43.078125 -45.90625 L 42.671875 -45.5 C 42.472656 -45.21875 42.195312 -44.851562 41.84375 -44.40625 C 41.488281 -43.957031 41.273438 -43.691406 41.203125 -43.609375 C 41.203125 -43.566406 41.128906 -43.414062 40.984375 -43.15625 C 40.847656 -42.90625 40.703125 -42.632812 40.546875 -42.34375 C 40.390625 -42.050781 40.234375 -41.773438 40.078125 -41.515625 C 39.921875 -41.265625 39.800781 -41.097656 39.71875 -41.015625 C 39.6875 -40.984375 39.59375 -40.878906 39.4375 -40.703125 C 39.28125 -40.523438 39.09375 -40.335938 38.875 -40.140625 C 38.65625 -39.941406 38.457031 -39.753906 38.28125 -39.578125 C 38.101562 -39.398438 37.992188 -39.289062 37.953125 -39.25 C 37.835938 -39.175781 37.640625 -38.882812 37.359375 -38.375 C 37.085938 -37.863281 36.914062 -37.53125 36.84375 -37.375 C 36.25 -36.707031 35.65625 -36.066406 35.0625 -35.453125 C 34.476562 -34.847656 33.910156 -34.226562 33.359375 -33.59375 C 32.816406 -32.96875 32.300781 -32.300781 31.8125 -31.59375 C 31.320312 -30.894531 30.898438 -30.113281 30.546875 -29.25 C 30.617188 -29.207031 30.710938 -29.085938 30.828125 -28.890625 C 30.953125 -28.703125 31.0625 -28.488281 31.15625 -28.25 C 31.257812 -28.007812 31.359375 -27.78125 31.453125 -27.5625 C 31.554688 -27.351562 31.609375 -27.191406 31.609375 -27.078125 C 32.035156 -26.285156 32.53125 -25.601562 33.09375 -25.03125 C 33.664062 -24.46875 34.171875 -23.832031 34.609375 -23.125 C 34.679688 -23.050781 34.828125 -22.835938 35.046875 -22.484375 C 35.265625 -22.128906 35.5 -21.742188 35.75 -21.328125 C 36.007812 -20.921875 36.242188 -20.539062 36.453125 -20.1875 C 36.671875 -19.832031 36.800781 -19.597656 36.84375 -19.484375 C 37.507812 -18.378906 38.097656 -17.179688 38.609375 -15.890625 C 39.117188 -14.597656 39.742188 -13.460938 40.484375 -12.484375 C 40.566406 -12.398438 40.8125 -12.21875 41.21875 -11.9375 C 41.632812 -11.664062 41.898438 -11.472656 42.015625 -11.359375 C 42.296875 -10.804688 42.515625 -10.363281 42.671875 -10.03125 C 42.828125 -9.695312 42.960938 -9.429688 43.078125 -9.234375 C 43.191406 -9.046875 43.289062 -8.910156 43.375 -8.828125 C 43.457031 -8.742188 43.59375 -8.59375 43.78125 -8.375 C 43.976562 -8.164062 44.175781 -7.941406 44.375 -7.703125 C 44.570312 -7.472656 44.757812 -7.25 44.9375 -7.03125 C 45.113281 -6.8125 45.222656 -6.6875 45.265625 -6.65625 C 45.378906 -6.53125 45.515625 -6.390625 45.671875 -6.234375 C 45.828125 -6.078125 45.984375 -5.910156 46.140625 -5.734375 C 46.296875 -5.554688 46.429688 -5.410156 46.546875 -5.296875 C 46.671875 -5.179688 46.734375 -5.125 46.734375 -5.125 C 46.765625 -5.125 46.898438 -5.101562 47.140625 -5.0625 C 47.378906 -5.019531 47.613281 -4.976562 47.84375 -4.9375 C 48.082031 -4.90625 48.304688 -4.867188 48.515625 -4.828125 C 48.734375 -4.785156 48.863281 -4.765625 48.90625 -4.765625 C 49.570312 -4.609375 50.238281 -4.320312 50.90625 -3.90625 C 51.570312 -3.5 51.90625 -2.921875 51.90625 -2.171875 C 51.90625 -1.660156 51.828125 -1.25 51.671875 -0.9375 C 51.515625 -0.625 51.222656 -0.3125 50.796875 0 L 46.96875 0 C 44.8125 0 42.691406 -0.078125 40.609375 -0.234375 C 38.523438 -0.390625 36.382812 -0.445312 34.1875 -0.40625 L 34.078125 -0.40625 C 33.921875 -0.40625 33.632812 -0.363281 33.21875 -0.28125 C 32.8125 -0.207031 32.46875 -0.171875 32.1875 -0.171875 L 31.421875 -0.171875 C 31.265625 -0.171875 31.078125 -0.171875 30.859375 -0.171875 C 30.648438 -0.171875 30.445312 -0.210938 30.25 -0.296875 C 30.175781 -0.410156 30.117188 -0.523438 30.078125 -0.640625 C 29.992188 -0.722656 29.941406 -0.800781 29.921875 -0.875 C 29.898438 -0.957031 29.875 -1.019531 29.84375 -1.0625 L 29.84375 -1.40625 C 29.84375 -1.6875 30.015625 -1.914062 30.359375 -2.09375 C 30.710938 -2.269531 31.113281 -2.460938 31.5625 -2.671875 C 32.019531 -2.890625 32.425781 -3.15625 32.78125 -3.46875 C 33.132812 -3.78125 33.3125 -4.210938 33.3125 -4.765625 C 33.3125 -4.847656 33.269531 -4.925781 33.1875 -5 L 33.078125 -5.125 C 33.078125 -5.28125 33.035156 -5.492188 32.953125 -5.765625 C 32.878906 -6.035156 32.8125 -6.304688 32.75 -6.578125 C 32.6875 -6.859375 32.613281 -7.109375 32.53125 -7.328125 C 32.457031 -7.546875 32.421875 -7.671875 32.421875 -7.703125 C 32.347656 -7.859375 32.15625 -8.222656 31.84375 -8.796875 C 31.53125 -9.367188 31.175781 -9.988281 30.78125 -10.65625 C 30.382812 -11.320312 30.019531 -11.9375 29.6875 -12.5 C 29.351562 -13.070312 29.148438 -13.457031 29.078125 -13.65625 C 28.878906 -14.007812 28.648438 -14.441406 28.390625 -14.953125 C 28.140625 -15.460938 27.859375 -15.976562 27.546875 -16.5 C 27.234375 -17.03125 26.898438 -17.519531 26.546875 -17.96875 C 26.191406 -18.425781 25.835938 -18.789062 25.484375 -19.0625 C 24.347656 -18.039062 23.328125 -16.894531 22.421875 -15.625 C 21.515625 -14.351562 20.726562 -13.066406 20.0625 -11.765625 C 19.988281 -11.734375 19.898438 -11.609375 19.796875 -11.390625 C 19.703125 -11.171875 19.59375 -10.921875 19.46875 -10.640625 C 19.351562 -10.367188 19.25 -10.097656 19.15625 -9.828125 C 19.0625 -9.554688 18.972656 -9.34375 18.890625 -9.1875 C 18.734375 -8.832031 18.546875 -8.503906 18.328125 -8.203125 C 18.117188 -7.910156 17.925781 -7.617188 17.75 -7.328125 C 17.570312 -7.035156 17.410156 -6.722656 17.265625 -6.390625 C 17.128906 -6.054688 17.0625 -5.671875 17.0625 -5.234375 C 17.0625 -5.035156 17.160156 -4.804688 17.359375 -4.546875 C 17.554688 -4.296875 17.78125 -4.035156 18.03125 -3.765625 C 18.289062 -3.492188 18.566406 -3.25 18.859375 -3.03125 C 19.148438 -2.8125 19.414062 -2.664062 19.65625 -2.59375 L 20.71875 -2.59375 C 21.144531 -2.507812 21.5625 -2.28125 21.96875 -1.90625 C 22.382812 -1.539062 22.59375 -1.140625 22.59375 -0.703125 C 22.59375 -0.273438 22.359375 0.0625 21.890625 0.3125 C 21.421875 0.570312 20.972656 0.703125 20.546875 0.703125 L 20.0625 0.703125 C 17.59375 0.429688 15.128906 0.265625 12.671875 0.203125 C 10.222656 0.148438 7.765625 0.0820312 5.296875 0 C 4.941406 -0.0390625 4.609375 -0.0625 4.296875 -0.0625 C 3.984375 -0.0625 3.707031 -0.0976562 3.46875 -0.171875 C 3.238281 -0.253906 3.039062 -0.382812 2.875 -0.5625 C 2.71875 -0.738281 2.640625 -1.039062 2.640625 -1.46875 C 2.640625 -1.976562 2.785156 -2.390625 3.078125 -2.703125 C 3.378906 -3.015625 3.753906 -3.269531 4.203125 -3.46875 C 4.660156 -3.664062 5.125 -3.832031 5.59375 -3.96875 C 6.0625 -4.101562 6.472656 -4.269531 6.828125 -4.46875 C 8.273438 -5.101562 9.46875 -5.769531 10.40625 -6.46875 C 11.351562 -7.175781 12.195312 -7.953125 12.9375 -8.796875 C 13.6875 -9.640625 14.425781 -10.539062 15.15625 -11.5 C 15.882812 -12.46875 16.757812 -13.539062 17.78125 -14.71875 L 18.890625 -15.828125 C 18.929688 -15.828125 19.054688 -15.894531 19.265625 -16.03125 C 19.484375 -16.175781 19.71875 -16.328125 19.96875 -16.484375 C 20.226562 -16.640625 20.46875 -16.796875 20.6875 -16.953125 C 20.90625 -17.109375 21.050781 -17.222656 21.125 -17.296875 C 21.164062 -17.492188 21.207031 -17.671875 21.25 -17.828125 C 21.320312 -18.109375 21.421875 -18.285156 21.546875 -18.359375 C 21.578125 -18.472656 21.671875 -18.707031 21.828125 -19.0625 C 21.984375 -19.414062 22.148438 -19.789062 22.328125 -20.1875 C 22.503906 -20.582031 22.679688 -20.953125 22.859375 -21.296875 C 23.035156 -21.648438 23.1875 -21.90625 23.3125 -22.0625 L 23.3125 -22.828125 C 22.957031 -24.003906 22.453125 -25.148438 21.796875 -26.265625 C 21.148438 -27.390625 20.441406 -28.488281 19.671875 -29.5625 C 18.910156 -30.644531 18.128906 -31.71875 17.328125 -32.78125 C 16.523438 -33.84375 15.8125 -34.882812 15.1875 -35.90625 C 15.144531 -35.976562 15.082031 -36.160156 15 -36.453125 C 14.925781 -36.753906 14.890625 -36.921875 14.890625 -36.953125 C 14.066406 -38.722656 13.203125 -40.300781 12.296875 -41.6875 C 11.398438 -43.082031 10.519531 -44.546875 9.65625 -46.078125 C 9.457031 -46.316406 9.296875 -46.539062 9.171875 -46.75 C 9.054688 -46.96875 9 -47.234375 9 -47.546875 C 8.882812 -47.585938 8.675781 -47.632812 8.375 -47.6875 C 8.082031 -47.75 7.78125 -47.820312 7.46875 -47.90625 C 7.15625 -47.988281 6.859375 -48.066406 6.578125 -48.140625 C 6.304688 -48.222656 6.113281 -48.300781 6 -48.375 C 5.769531 -48.414062 5.414062 -48.492188 4.9375 -48.609375 C 4.46875 -48.734375 3.988281 -48.878906 3.5 -49.046875 C 3.007812 -49.222656 2.578125 -49.4375 2.203125 -49.6875 C 1.828125 -49.945312 1.640625 -50.253906 1.640625 -50.609375 L 1.640625 -50.90625 L 1.765625 -51.03125 C 1.878906 -51.144531 1.976562 -51.203125 2.0625 -51.203125 C 2.21875 -51.359375 2.472656 -51.535156 2.828125 -51.734375 C 3.179688 -51.929688 3.375 -52.03125 3.40625 -52.03125 L 13.828125 -52.03125 C 13.910156 -51.90625 14.175781 -51.800781 14.625 -51.71875 C 15.070312 -51.644531 15.394531 -51.609375 15.59375 -51.609375 C 15.675781 -51.609375 15.863281 -51.675781 16.15625 -51.8125 C 16.445312 -51.957031 16.632812 -52.03125 16.71875 -52.03125 L 18.1875 -52.03125 C 19.164062 -52.03125 20.078125 -52.007812 20.921875 -51.96875 C 21.765625 -51.925781 22.695312 -51.804688 23.71875 -51.609375 C 24.03125 -51.535156 24.222656 -51.457031 24.296875 -51.375 C 24.378906 -51.300781 24.421875 -51.1875 24.421875 -51.03125 L 24.421875 -50.5 C 24.421875 -50.0625 24.3125 -49.707031 24.09375 -49.4375 C 23.882812 -49.164062 23.617188 -48.945312 23.296875 -48.78125 C 22.984375 -48.625 22.628906 -48.515625 22.234375 -48.453125 C 21.847656 -48.398438 21.476562 -48.375 21.125 -48.375 C 21.125 -48.300781 21.113281 -48.242188 21.09375 -48.203125 C 21.070312 -48.160156 21.0625 -48.101562 21.0625 -48.03125 L 21.0625 -47.375 C 21.0625 -47.300781 21.082031 -47.222656 21.125 -47.140625 C 21.125 -47.097656 21.160156 -46.976562 21.234375 -46.78125 C 21.316406 -46.59375 21.414062 -46.378906 21.53125 -46.140625 C 21.65625 -45.898438 21.765625 -45.679688 21.859375 -45.484375 C 21.960938 -45.296875 22.015625 -45.160156 22.015625 -45.078125 Z M 22.015625 -45.078125 "/></g></g></g></svg>