<svg xmlns="http://www.w3.org/2000/svg" xmlns:xlink="http://www.w3.org/1999/xlink" width="500" zoomAndPan="magnify" viewBox="0 0 375 374.999991" height="500" preserveAspectRatio="xMidYMid meet" version="1.0"><defs><g/><clipPath id="cb25e472b9"><path d="M 67.550781 117.5 L 249.800781 117.5 L 249.800781 299.75 L 67.550781 299.75 Z M 67.550781 117.5 " clip-rule="nonzero"/></clipPath><clipPath id="76385825ff"><path d="M 82 17.53125 L 303.152344 17.53125 L 303.152344 195 L 82 195 Z M 82 17.53125 " clip-rule="nonzero"/></clipPath></defs><g clip-path="url(#cb25e472b9)"><path fill="#ebb22f" d="M 158.621094 117.46875 C 208.90625 117.46875 249.664062 158.234375 249.664062 208.511719 C 249.664062 246.886719 225.921875 279.714844 192.320312 293.113281 L 190.992188 264.425781 L 190.992188 264.371094 C 191.066406 258.695312 193.460938 254.226562 198.777344 251.976562 L 199.460938 251.703125 L 199.496094 251.691406 L 199.539062 251.671875 L 199.605469 251.648438 C 203.519531 250.0625 206.707031 247.929688 208.878906 244.234375 C 211.589844 239.632812 212.113281 233.5 212.113281 228.28125 C 212.113281 218.246094 209.15625 206.402344 204.0625 197.730469 C 200.441406 191.566406 194.730469 185.328125 187.015625 185.328125 C 179.304688 185.328125 173.59375 191.566406 169.972656 197.730469 C 164.875 206.402344 161.921875 218.246094 161.921875 228.28125 C 161.921875 233.503906 162.445312 239.636719 165.15625 244.234375 C 167.351562 247.953125 170.578125 250.09375 174.507812 251.679688 C 174.617188 251.71875 174.726562 251.769531 174.835938 251.8125 L 174.867188 251.8125 L 175.210938 251.957031 C 180.542969 254.203125 182.96875 258.621094 183.042969 264.371094 L 183.042969 264.425781 L 181.550781 296.648438 C 174.222656 298.550781 166.542969 299.5625 158.621094 299.5625 C 150.421875 299.5625 142.480469 298.46875 134.921875 296.441406 L 133.523438 266.273438 L 133.523438 266.203125 C 133.597656 260.390625 136.078125 255.804688 141.523438 253.5 L 142.21875 253.226562 L 142.242188 253.21875 L 142.265625 253.207031 L 142.347656 253.175781 C 146.1875 251.621094 149.320312 249.53125 151.453125 245.90625 C 154.128906 241.363281 154.640625 235.273438 154.640625 230.121094 C 154.640625 229.621094 154.625 229.121094 154.59375 228.621094 C 154.574219 228.335938 154.550781 228.050781 154.515625 227.769531 L 154.464844 227.347656 L 154.542969 227.0625 L 151.234375 188.554688 L 147.773438 188.558594 L 147.472656 229.257812 L 141.707031 229.828125 L 138.28125 183.828125 L 134.523438 184.054688 L 133.78125 230.398438 L 131.738281 230.480469 C 131.3125 230.5 130.886719 230.507812 130.464844 230.507812 C 130.039062 230.507812 129.605469 230.5 129.179688 230.480469 L 127.148438 230.398438 L 126.105469 184.054688 L 122.351562 183.835938 L 119.222656 229.835938 L 113.453125 229.261719 L 113.160156 188.558594 L 109.679688 188.558594 L 105.203125 227.082031 L 105.277344 227.355469 L 105.226562 227.761719 C 105.199219 228.050781 105.171875 228.335938 105.15625 228.621094 C 105.125 229.121094 105.105469 229.621094 105.105469 230.121094 C 105.105469 235.273438 105.617188 241.363281 108.292969 245.90625 C 110.445312 249.5625 113.617188 251.652344 117.480469 253.207031 C 117.574219 253.246094 117.664062 253.28125 117.75 253.316406 L 117.78125 253.316406 L 118.183594 253.488281 C 123.636719 255.785156 126.144531 260.320312 126.222656 266.203125 L 126.222656 266.273438 L 124.980469 293.15625 C 91.335938 279.78125 67.554688 246.929688 67.554688 208.519531 C 67.578125 158.226562 108.335938 117.46875 158.621094 117.46875 " fill-opacity="1" fill-rule="evenodd"/></g><path fill="#f6f5f4" d="M 193.941406 60.464844 C 195.5625 60.464844 195.5625 57.921875 193.941406 57.921875 C 192.320312 57.921875 192.320312 60.464844 193.941406 60.464844 Z M 193.941406 60.464844 " fill-opacity="1" fill-rule="nonzero"/><g clip-path="url(#76385825ff)"><path fill="#4d433a" d="M 89.089844 51.707031 C 90.441406 48.734375 92.007812 45.707031 94.0625 42.738281 C 96.0625 39.765625 98.4375 36.738281 101.574219 33.820312 C 103.140625 32.359375 104.925781 30.898438 106.925781 29.550781 C 107.789062 28.953125 108.546875 28.46875 109.410156 27.925781 C 110.222656 27.386719 111.085938 26.902344 111.949219 26.414062 C 115.410156 24.414062 119.191406 22.578125 123.410156 21.0625 C 127.570312 19.550781 132.164062 18.414062 136.8125 17.929688 C 138 17.820312 139.136719 17.710938 140.324219 17.660156 C 141.515625 17.605469 142.648438 17.605469 143.785156 17.660156 C 146.109375 17.710938 148.324219 17.984375 150.488281 18.359375 C 154.808594 19.117188 158.703125 20.359375 162.214844 21.929688 C 165.671875 23.496094 168.753906 25.277344 171.511719 27.226562 C 172.863281 28.199219 174.214844 29.226562 175.457031 30.25 C 176.699219 31.277344 177.886719 32.359375 178.96875 33.441406 C 180.105469 34.519531 181.183594 35.601562 182.210938 36.738281 C 182.753906 37.277344 183.238281 37.871094 183.726562 38.414062 L 184.480469 39.277344 L 185.128906 40.089844 C 185.996094 41.113281 186.804688 42.085938 187.671875 43.113281 L 188.96875 44.628906 L 190.320312 46.140625 C 196.96875 53.492188 204.15625 60.734375 211.558594 67.921875 C 212.695312 67.652344 213.828125 67.4375 215.019531 67.273438 C 216.53125 67.003906 218.046875 66.839844 219.613281 66.679688 C 221.125 66.515625 222.691406 66.410156 224.207031 66.355469 C 224.964844 66.300781 225.773438 66.300781 226.53125 66.300781 C 227.289062 66.300781 228.097656 66.300781 228.855469 66.300781 C 235.015625 66.410156 241.285156 67.328125 247.066406 69.328125 C 248.527344 69.8125 249.933594 70.410156 251.339844 71.058594 C 252.742188 71.707031 254.039062 72.460938 255.335938 73.21875 C 256.632812 74.03125 257.824219 74.894531 258.957031 75.8125 C 260.09375 76.730469 261.175781 77.757812 262.148438 78.839844 C 262.632812 79.378906 263.121094 79.921875 263.550781 80.460938 C 263.984375 81 264.417969 81.597656 264.851562 82.191406 C 265.660156 83.324219 266.363281 84.570312 267.011719 85.757812 C 267.5 86.675781 267.929688 87.648438 268.308594 88.621094 C 269.550781 88.785156 270.742188 89 271.875 89.269531 C 274.632812 89.867188 277.335938 90.621094 279.929688 91.648438 C 285.117188 93.648438 289.820312 96.511719 293.546875 100.1875 C 295.441406 102.027344 297.007812 104.027344 298.359375 106.1875 C 299.007812 107.269531 299.601562 108.347656 300.140625 109.429688 C 300.683594 110.566406 301.117188 111.699219 301.492188 112.835938 C 302.25 115.105469 302.789062 117.429688 303.0625 119.753906 C 303.113281 120.347656 303.167969 120.886719 303.222656 121.484375 C 303.277344 122.078125 303.277344 122.617188 303.332031 123.210938 C 303.332031 123.808594 303.386719 124.347656 303.386719 124.941406 L 303.386719 126.671875 C 303.277344 129.101562 302.898438 131.644531 302.140625 134.347656 C 301.332031 137.046875 300.089844 139.859375 298.144531 142.667969 C 297.167969 144.074219 296.035156 145.480469 294.683594 146.777344 C 293.332031 148.074219 291.875 149.316406 290.304688 150.453125 C 288.738281 151.585938 287.0625 152.558594 285.332031 153.371094 C 283.605469 154.234375 281.875 154.882812 280.144531 155.476562 C 276.6875 156.667969 273.335938 157.371094 270.09375 157.800781 C 266.902344 158.234375 263.824219 158.398438 260.851562 158.449219 C 259.5 158.449219 258.148438 158.398438 256.851562 158.34375 C 256.148438 161.421875 255.445312 164.449219 254.742188 167.53125 C 253.984375 170.773438 253.175781 174.015625 252.363281 177.257812 C 251.554688 180.503906 250.742188 183.746094 249.878906 186.988281 L 249.445312 188.664062 C 248.960938 190.5 247.609375 192.230469 245.445312 193.417969 C 241.394531 195.742188 236.152344 195.203125 233.71875 192.230469 C 233.71875 192.230469 233.609375 192.121094 233.554688 192.066406 L 233.394531 191.90625 L 233.015625 191.582031 L 232.257812 190.878906 C 231.773438 190.394531 231.234375 189.960938 230.691406 189.472656 C 229.609375 188.554688 228.53125 187.636719 227.449219 186.71875 C 225.234375 184.878906 222.964844 183.042969 220.695312 181.3125 C 216.097656 177.746094 211.234375 174.339844 206.261719 171.042969 C 201.238281 167.746094 196.046875 164.613281 190.644531 161.640625 C 185.238281 158.667969 179.5625 155.910156 173.671875 153.261719 C 175.402344 153.425781 177.132812 153.585938 178.859375 153.855469 C 179.726562 153.964844 180.589844 154.128906 181.457031 154.234375 L 183.996094 154.667969 L 185.292969 154.882812 L 186.535156 155.152344 L 189.074219 155.695312 C 189.886719 155.855469 190.75 156.074219 191.5625 156.289062 C 192.371094 156.503906 193.238281 156.667969 194.046875 156.882812 C 200.640625 158.558594 207.074219 160.667969 213.234375 163.097656 C 219.394531 165.53125 225.394531 168.289062 231.125 171.3125 C 231.828125 171.691406 232.476562 172.070312 233.179688 172.394531 C 233.285156 171.421875 233.394531 170.503906 233.554688 169.53125 C 233.339844 169.367188 233.125 169.152344 232.90625 168.988281 C 232.257812 168.449219 231.558594 167.910156 230.855469 167.367188 C 228.097656 165.261719 225.289062 163.207031 222.316406 161.261719 C 219.34375 159.316406 216.261719 157.476562 213.019531 155.75 C 209.777344 154.074219 206.371094 152.558594 202.640625 151.371094 C 206.75 151.53125 210.855469 152.074219 214.910156 152.828125 C 218.910156 153.585938 222.855469 154.558594 226.746094 155.640625 C 229.558594 156.453125 232.3125 157.316406 235.015625 158.179688 C 235.070312 157.910156 235.070312 157.585938 235.125 157.316406 C 235.179688 156.777344 235.285156 156.234375 235.339844 155.695312 C 234.207031 154.667969 233.070312 153.585938 231.882812 152.613281 C 230.207031 151.261719 228.476562 149.859375 226.585938 148.667969 C 224.691406 147.425781 222.746094 146.289062 220.476562 145.371094 C 223.125 145.261719 225.828125 145.480469 228.476562 145.75 C 231.125 146.074219 233.71875 146.507812 236.3125 147.046875 C 236.421875 147.046875 236.476562 147.101562 236.582031 147.101562 C 236.636719 146.777344 236.746094 146.398438 236.851562 146.074219 C 238.636719 141.210938 244.851562 137.96875 250.742188 138.832031 L 251.824219 138.992188 L 253.011719 139.15625 C 253.5 139.210938 253.988281 139.265625 254.472656 139.316406 C 255.445312 139.425781 256.417969 139.535156 257.445312 139.589844 C 259.445312 139.75 261.390625 139.75 263.335938 139.695312 C 267.121094 139.640625 270.742188 139.046875 273.171875 138.183594 C 274.417969 137.75 275.335938 137.265625 276.089844 136.777344 C 276.46875 136.507812 276.792969 136.238281 277.117188 135.96875 C 277.441406 135.644531 277.714844 135.320312 277.984375 134.941406 C 278.578125 134.183594 279.0625 133.15625 279.496094 131.96875 C 279.875 130.777344 280.199219 129.375 280.308594 127.914062 L 280.359375 127.644531 L 280.359375 127.320312 L 280.414062 126.726562 C 280.46875 126.347656 280.46875 125.914062 280.46875 125.535156 L 280.46875 124.347656 C 280.46875 123.96875 280.46875 123.589844 280.414062 123.210938 C 280.308594 121.699219 280.144531 120.238281 279.765625 118.835938 C 279.441406 117.429688 278.957031 116.078125 278.363281 114.835938 C 277.765625 113.59375 277.011719 112.402344 276.089844 111.269531 C 275.171875 110.132812 274.144531 109.105469 272.957031 108.132812 C 271.769531 107.160156 270.417969 106.296875 268.957031 105.484375 C 267.5 104.675781 265.875 104.027344 264.203125 103.429688 C 263.335938 103.160156 262.472656 102.890625 261.605469 102.621094 C 261.175781 102.511719 260.742188 102.402344 260.308594 102.296875 L 259.714844 102.1875 L 259.445312 102.132812 L 259.28125 102.132812 L 259.335938 102.132812 L 252.3125 96.785156 C 252.203125 94.835938 251.988281 92.890625 251.5 91.054688 C 251.015625 89.214844 250.3125 87.433594 249.390625 85.757812 C 247.5 82.40625 244.636719 79.378906 240.800781 76.894531 C 238.90625 75.652344 236.746094 74.570312 234.476562 73.597656 C 233.339844 73.109375 232.152344 72.679688 230.910156 72.246094 C 229.664062 71.8125 228.421875 71.433594 227.125 71.058594 C 226.476562 70.894531 225.828125 70.734375 225.179688 70.570312 C 224.53125 70.410156 223.882812 70.246094 223.179688 70.085938 C 221.828125 69.761719 220.476562 69.542969 219.070312 69.273438 C 216.746094 68.894531 214.425781 68.515625 211.992188 68.300781 C 212.425781 68.734375 212.855469 69.164062 213.289062 69.542969 L 219.34375 75.328125 L 225.449219 81.164062 C 229.558594 85.054688 233.609375 88.945312 237.71875 92.945312 C 234.691406 91.917969 231.828125 90.730469 228.960938 89.488281 C 227.558594 88.890625 226.097656 88.242188 224.691406 87.59375 L 220.53125 85.648438 C 214.964844 83 209.613281 80.136719 204.371094 77.164062 C 199.128906 74.136719 194.046875 71.003906 189.128906 67.597656 C 184.210938 64.246094 179.457031 60.679688 174.914062 56.898438 C 173.78125 55.925781 172.644531 55.003906 171.566406 54.03125 C 170.429688 53.058594 169.347656 52.085938 168.269531 51.058594 L 166.753906 49.707031 C 166.269531 49.277344 165.78125 48.84375 165.296875 48.410156 C 164.324219 47.546875 163.351562 46.734375 162.324219 45.980469 C 160.324219 44.410156 158.269531 42.953125 156.160156 41.65625 C 154.054688 40.414062 151.890625 39.277344 149.730469 38.464844 C 147.566406 37.601562 145.460938 37.0625 143.351562 36.738281 C 141.296875 36.414062 139.246094 36.414062 137.191406 36.628906 C 135.136719 36.84375 133.027344 37.386719 130.8125 38.140625 C 129.679688 38.519531 128.597656 39.007812 127.410156 39.546875 C 126.273438 40.089844 125.085938 40.683594 123.949219 41.277344 C 123.355469 41.601562 122.761719 41.925781 122.21875 42.304688 C 121.625 42.628906 121.03125 43.007812 120.492188 43.386719 C 119.789062 43.816406 119.03125 44.410156 118.21875 45.058594 C 116.652344 46.410156 115.085938 48.195312 113.679688 50.140625 C 112.273438 52.085938 110.925781 54.195312 109.734375 56.410156 C 108.546875 58.625 107.519531 60.949219 106.601562 63.273438 C 105.679688 65.652344 104.871094 68.03125 104.222656 70.460938 C 103.519531 72.894531 102.980469 75.378906 102.546875 77.8125 C 101.628906 82.785156 101.25 87.757812 101.25 92.730469 C 101.304688 101 102.65625 109.214844 105.628906 117.050781 C 105.679688 117.050781 105.734375 116.996094 105.734375 116.996094 C 107.410156 116.457031 109.085938 115.914062 110.761719 115.375 C 110.546875 113.917969 110.4375 112.511719 110.328125 111.050781 C 110.113281 108.132812 110.058594 105.214844 110.113281 102.296875 C 110.167969 99.378906 110.328125 96.460938 110.652344 93.539062 C 110.976562 90.621094 111.410156 87.757812 111.949219 84.839844 C 112.492188 81.972656 113.195312 79.054688 113.949219 76.191406 L 114.546875 74.03125 C 114.761719 73.328125 114.976562 72.625 115.246094 71.921875 C 115.679688 70.515625 116.21875 69.109375 116.707031 67.707031 C 118.816406 62.085938 121.410156 56.574219 124.488281 51.222656 C 122.652344 56.789062 121.355469 62.410156 120.597656 67.976562 C 120.4375 69.382812 120.21875 70.734375 120.113281 72.136719 C 120.058594 72.839844 120.003906 73.542969 119.949219 74.191406 L 119.84375 76.246094 C 119.734375 79 119.679688 81.757812 119.84375 84.460938 C 119.949219 87.164062 120.167969 89.867188 120.542969 92.511719 C 120.921875 95.160156 121.355469 97.808594 121.949219 100.40625 C 122.542969 103 123.246094 105.539062 124.058594 108.023438 C 124.488281 109.269531 124.921875 110.511719 125.355469 111.699219 C 125.355469 111.753906 125.410156 111.808594 125.410156 111.863281 C 127.460938 111.484375 129.570312 111.214844 131.625 110.945312 C 131.625 110.726562 131.679688 110.457031 131.679688 110.1875 C 131.839844 108.402344 132.054688 106.621094 132.378906 104.890625 C 132.976562 101.378906 133.730469 97.917969 134.757812 94.511719 L 135.136719 93.214844 L 135.570312 91.917969 C 135.839844 91.054688 136.109375 90.242188 136.433594 89.378906 C 137.082031 87.703125 137.675781 86.027344 138.433594 84.351562 C 139.839844 81.054688 141.570312 77.8125 143.351562 74.625 C 142.8125 77.976562 142.378906 81.273438 142.324219 84.570312 C 142.21875 86.191406 142.269531 87.8125 142.324219 89.433594 C 142.324219 90.242188 142.433594 91.054688 142.433594 91.863281 L 142.488281 93.054688 L 142.59375 94.242188 C 142.917969 97.433594 143.460938 100.511719 144.164062 103.539062 C 144.542969 105.050781 144.972656 106.566406 145.40625 108.023438 C 145.621094 108.621094 145.839844 109.269531 146.054688 109.863281 L 150.8125 109.863281 C 150.863281 109.375 150.917969 108.945312 150.972656 108.457031 C 151.242188 106.078125 151.621094 103.753906 152.214844 101.484375 L 152.433594 100.621094 L 152.648438 99.757812 C 152.808594 99.160156 152.972656 98.621094 153.132812 98.027344 C 153.511719 96.890625 153.835938 95.757812 154.269531 94.675781 C 155.027344 92.460938 156.054688 90.242188 157.082031 88.136719 C 157.351562 90.296875 157.621094 92.40625 158.160156 94.460938 C 158.378906 95.484375 158.703125 96.511719 159.027344 97.484375 C 159.1875 97.972656 159.351562 98.457031 159.511719 99 L 159.78125 99.757812 L 160.054688 100.457031 C 160.808594 102.402344 161.675781 104.296875 162.648438 106.078125 C 163.132812 107 163.675781 107.863281 164.214844 108.726562 C 164.484375 109.160156 164.753906 109.59375 165.078125 109.972656 C 165.242188 110.1875 165.347656 110.347656 165.511719 110.566406 C 165.566406 110.621094 165.621094 110.726562 165.671875 110.78125 C 167.835938 110.996094 169.941406 111.269531 171.996094 111.59375 C 177.132812 112.347656 182.15625 113.320312 187.078125 114.511719 C 191.996094 115.644531 196.75 117.050781 201.398438 118.617188 C 203.722656 119.375 205.992188 120.1875 208.261719 121.105469 C 210.53125 121.96875 212.695312 122.886719 214.910156 123.859375 C 219.234375 125.804688 223.449219 127.859375 227.339844 130.292969 C 217.449219 128.671875 207.613281 127.375 197.777344 126.402344 C 192.859375 125.914062 187.996094 125.535156 183.078125 125.265625 C 180.535156 125.105469 178.050781 125.050781 175.5625 124.941406 C 173.1875 124.886719 170.863281 124.832031 168.484375 124.832031 C 163.621094 124.832031 158.808594 124.996094 154 125.265625 C 153.566406 125.320312 153.082031 125.320312 152.648438 125.375 C 151.890625 125.429688 151.136719 125.480469 150.433594 125.535156 L 149.511719 125.589844 L 148.648438 125.699219 L 146.867188 125.859375 L 145.082031 126.023438 C 144.488281 126.078125 143.894531 126.183594 143.296875 126.238281 C 142.109375 126.402344 140.972656 126.507812 139.785156 126.726562 L 136.324219 127.265625 L 135.460938 127.429688 L 134.597656 127.589844 L 131.136719 128.238281 C 130.542969 128.347656 130.003906 128.507812 129.460938 128.617188 C 128.328125 128.886719 127.191406 129.15625 126.109375 129.425781 L 122.8125 130.347656 L 122.003906 130.5625 C 121.734375 130.617188 121.464844 130.726562 121.191406 130.832031 L 119.570312 131.375 C 119.300781 131.425781 119.03125 131.535156 118.761719 131.589844 C 118.21875 133.101562 117.625 134.671875 117.03125 136.183594 C 117.03125 136.238281 116.976562 136.292969 116.976562 136.34375 L 115.300781 140.777344 L 115.195312 140.992188 L 113.355469 145.640625 C 112.546875 147.695312 111.734375 149.75 110.925781 151.804688 C 110.976562 151.804688 111.03125 151.804688 111.140625 151.804688 C 113.949219 151.695312 116.707031 151.640625 119.464844 151.640625 C 120.867188 151.640625 122.21875 151.640625 123.625 151.695312 C 125.03125 151.695312 126.382812 151.804688 127.734375 151.804688 C 130.488281 151.910156 133.191406 152.074219 135.949219 152.289062 C 137.300781 152.398438 138.648438 152.503906 140 152.667969 L 142.054688 152.882812 L 144.054688 153.101562 C 146.757812 153.425781 149.40625 153.804688 152.054688 154.234375 L 156 154.9375 C 157.296875 155.152344 158.59375 155.476562 159.890625 155.75 C 165.078125 156.882812 170.160156 158.179688 175.023438 159.855469 C 175.617188 160.074219 176.265625 160.234375 176.863281 160.449219 L 178.644531 161.097656 L 180.429688 161.746094 C 181.023438 161.964844 181.617188 162.179688 182.210938 162.449219 C 183.402344 162.9375 184.535156 163.421875 185.671875 163.910156 C 186.265625 164.125 186.804688 164.394531 187.402344 164.667969 L 189.074219 165.476562 C 190.210938 166.015625 191.292969 166.503906 192.371094 167.152344 L 195.5625 168.882812 C 196.589844 169.476562 197.617188 170.125 198.640625 170.773438 L 200.15625 171.746094 L 201.613281 172.773438 C 202.585938 173.421875 203.507812 174.125 204.480469 174.828125 C 205.398438 175.53125 206.316406 176.285156 207.183594 176.988281 L 208.53125 178.070312 C 208.964844 178.449219 209.34375 178.828125 209.777344 179.203125 C 210.585938 179.960938 211.398438 180.773438 212.207031 181.527344 C 211.019531 181.097656 209.882812 180.664062 208.75 180.230469 C 208.15625 180.015625 207.613281 179.800781 207.019531 179.582031 L 205.289062 178.988281 C 204.101562 178.609375 202.964844 178.179688 201.832031 177.800781 C 200.640625 177.421875 199.453125 177.097656 198.316406 176.71875 L 196.589844 176.179688 L 194.804688 175.691406 L 191.292969 174.71875 C 188.914062 174.179688 186.589844 173.53125 184.15625 173.042969 L 182.375 172.664062 C 181.78125 172.558594 181.183594 172.394531 180.589844 172.285156 C 179.402344 172.070312 178.160156 171.855469 176.96875 171.636719 C 175.78125 171.421875 174.539062 171.261719 173.347656 171.042969 L 171.566406 170.773438 C 170.96875 170.664062 170.320312 170.613281 169.726562 170.558594 C 164.863281 169.855469 159.945312 169.421875 155.027344 169.042969 C 150.109375 168.664062 145.136719 168.503906 140.164062 168.449219 L 136.433594 168.449219 C 135.191406 168.449219 133.949219 168.449219 132.703125 168.503906 C 131.460938 168.558594 130.21875 168.558594 128.976562 168.613281 C 127.734375 168.664062 126.488281 168.664062 125.246094 168.71875 C 122.761719 168.828125 120.273438 168.9375 117.734375 169.097656 C 116.492188 169.207031 115.246094 169.261719 114.003906 169.367188 L 112.113281 169.53125 L 110.277344 169.691406 C 107.789062 169.910156 105.304688 170.179688 102.871094 170.503906 C 101.628906 170.664062 100.4375 170.828125 99.25 170.988281 C 98.65625 171.042969 98.0625 171.152344 97.464844 171.261719 L 96.601562 171.367188 L 96.222656 171.421875 L 95.898438 171.476562 C 94.441406 171.746094 92.925781 171.800781 91.414062 171.585938 C 85.359375 170.71875 81.902344 165.964844 83.738281 160.9375 L 83.847656 160.613281 C 84.980469 157.53125 86.171875 154.398438 87.359375 151.316406 C 88.546875 148.234375 89.738281 145.15625 90.980469 142.019531 L 92.816406 137.371094 L 94.710938 132.722656 C 95.628906 130.402344 96.601562 128.128906 97.574219 125.804688 C 94.007812 121.484375 91.144531 116.671875 88.871094 111.699219 C 86.550781 106.511719 84.875 101.054688 83.902344 95.484375 C 82.875 89.917969 82.550781 84.136719 82.875 78.351562 C 83.035156 75.433594 83.359375 72.515625 83.847656 69.542969 C 84.332031 66.625 85.035156 63.652344 85.898438 60.679688 C 86.710938 57.707031 87.738281 54.734375 89.089844 51.707031 Z M 89.089844 51.707031 " fill-opacity="1" fill-rule="nonzero"/></g><g fill="#4d433a" fill-opacity="1"><g transform="translate(2.060455, 357.612277)"><g><path d="M 3.546875 -1.40625 L 3.546875 -1.8125 C 3.546875 -1.957031 3.554688 -2.066406 3.578125 -2.140625 C 3.597656 -2.210938 3.703125 -2.328125 3.890625 -2.484375 C 4.003906 -2.515625 4.171875 -2.578125 4.390625 -2.671875 C 4.617188 -2.765625 4.847656 -2.867188 5.078125 -2.984375 C 5.304688 -3.097656 5.515625 -3.203125 5.703125 -3.296875 C 5.890625 -3.390625 5.984375 -3.457031 5.984375 -3.5 L 9.59375 -3.5 C 9.625 -3.5 9.742188 -3.515625 9.953125 -3.546875 C 10.160156 -3.585938 10.375 -3.632812 10.59375 -3.6875 C 10.820312 -3.75 11.039062 -3.796875 11.25 -3.828125 C 11.457031 -3.867188 11.5625 -3.890625 11.5625 -3.890625 L 15.453125 -3.890625 C 15.710938 -4.078125 15.9375 -4.28125 16.125 -4.5 C 16.3125 -4.726562 16.445312 -4.992188 16.53125 -5.296875 C 16.5625 -5.523438 16.601562 -5.941406 16.65625 -6.546875 C 16.71875 -7.148438 16.765625 -7.78125 16.796875 -8.4375 C 16.835938 -9.09375 16.867188 -9.71875 16.890625 -10.3125 C 16.910156 -10.914062 16.921875 -11.332031 16.921875 -11.5625 L 16.921875 -11.953125 C 16.921875 -12.253906 16.851562 -12.488281 16.71875 -12.65625 C 16.59375 -12.832031 16.53125 -13.03125 16.53125 -13.25 L 16.53125 -13.765625 C 16.53125 -13.910156 16.546875 -14.300781 16.578125 -14.9375 C 16.617188 -15.582031 16.664062 -16.28125 16.71875 -17.03125 C 16.78125 -17.78125 16.828125 -18.472656 16.859375 -19.109375 C 16.898438 -19.753906 16.921875 -20.171875 16.921875 -20.359375 L 16.921875 -26.0625 C 16.921875 -26.09375 16.9375 -26.210938 16.96875 -26.421875 C 17.007812 -26.628906 17.046875 -26.851562 17.078125 -27.09375 C 17.117188 -27.34375 17.160156 -27.570312 17.203125 -27.78125 C 17.242188 -27.988281 17.265625 -28.109375 17.265625 -28.140625 C 17.265625 -28.222656 17.242188 -28.410156 17.203125 -28.703125 C 17.160156 -29.003906 17.117188 -29.332031 17.078125 -29.6875 C 17.046875 -30.050781 17.007812 -30.390625 16.96875 -30.703125 C 16.9375 -31.023438 16.921875 -31.242188 16.921875 -31.359375 C 16.921875 -31.703125 16.921875 -32.332031 16.921875 -33.25 C 16.921875 -34.164062 16.929688 -35.148438 16.953125 -36.203125 C 16.972656 -37.265625 16.984375 -38.265625 16.984375 -39.203125 C 16.984375 -40.140625 16.984375 -40.816406 16.984375 -41.234375 L 16.984375 -42.25 L 17.265625 -52.796875 C 17.078125 -53.171875 16.972656 -53.441406 16.953125 -53.609375 C 16.929688 -53.773438 16.921875 -54.007812 16.921875 -54.3125 C 16.921875 -55.445312 17.085938 -56.53125 17.421875 -57.5625 C 17.765625 -58.59375 17.9375 -59.65625 17.9375 -60.75 C 17.9375 -61.3125 17.820312 -61.898438 17.59375 -62.515625 C 17.375 -63.140625 17.265625 -63.769531 17.265625 -64.40625 C 17.265625 -65.726562 17.328125 -67.046875 17.453125 -68.359375 C 17.585938 -69.671875 17.65625 -70.988281 17.65625 -72.3125 L 17.65625 -76.765625 C 17.539062 -77.703125 17.019531 -78.347656 16.09375 -78.703125 C 15.175781 -79.066406 14.109375 -79.332031 12.890625 -79.5 C 11.671875 -79.664062 10.445312 -79.820312 9.21875 -79.96875 C 8 -80.125 7.050781 -80.46875 6.375 -81 C 5.882812 -81.21875 5.640625 -81.707031 5.640625 -82.46875 C 5.640625 -82.914062 5.882812 -83.195312 6.375 -83.3125 C 6.863281 -83.425781 7.316406 -83.484375 7.734375 -83.484375 L 8.859375 -83.484375 C 11.410156 -83.296875 13.972656 -83.179688 16.546875 -83.140625 C 19.128906 -83.097656 21.71875 -82.96875 24.3125 -82.75 L 56.296875 -82.75 C 56.398438 -82.75 56.617188 -82.765625 56.953125 -82.796875 C 57.296875 -82.835938 57.664062 -82.875 58.0625 -82.90625 C 58.457031 -82.945312 58.820312 -82.984375 59.15625 -83.015625 C 59.5 -83.054688 59.75 -83.078125 59.90625 -83.078125 L 61.703125 -83.078125 C 61.929688 -83.078125 62.34375 -83.054688 62.9375 -83.015625 C 63.539062 -82.984375 64.171875 -82.945312 64.828125 -82.90625 C 65.492188 -82.875 66.125 -82.835938 66.71875 -82.796875 C 67.320312 -82.765625 67.738281 -82.75 67.96875 -82.75 C 68.15625 -82.664062 68.351562 -82.578125 68.5625 -82.484375 C 68.769531 -82.390625 68.925781 -82.25 69.03125 -82.0625 L 69.03125 -78.859375 C 69.03125 -78.585938 69.019531 -78.101562 69 -77.40625 C 68.988281 -76.71875 68.960938 -75.976562 68.921875 -75.1875 C 68.890625 -74.394531 68.84375 -73.648438 68.78125 -72.953125 C 68.726562 -72.265625 68.679688 -71.785156 68.640625 -71.515625 C 68.984375 -70.578125 69.191406 -69.640625 69.265625 -68.703125 C 69.335938 -67.765625 69.375 -66.820312 69.375 -65.875 L 69.375 -62.609375 C 69.226562 -62.234375 69.078125 -61.96875 68.921875 -61.8125 C 68.773438 -61.664062 68.492188 -61.59375 68.078125 -61.59375 C 67.515625 -61.59375 67.003906 -61.910156 66.546875 -62.546875 C 66.097656 -63.191406 65.6875 -63.9375 65.3125 -64.78125 C 64.9375 -65.625 64.585938 -66.476562 64.265625 -67.34375 C 63.953125 -68.207031 63.644531 -68.882812 63.34375 -69.375 C 63.34375 -69.375 63.285156 -69.457031 63.171875 -69.625 C 63.054688 -69.800781 62.914062 -69.988281 62.75 -70.1875 C 62.582031 -70.394531 62.421875 -70.59375 62.265625 -70.78125 C 62.117188 -70.96875 62.023438 -71.101562 61.984375 -71.1875 C 61.953125 -71.1875 61.894531 -71.335938 61.8125 -71.640625 L 61.703125 -72.078125 C 61.628906 -72.160156 61.5 -72.34375 61.3125 -72.625 C 61.125 -72.90625 61.007812 -73.082031 60.96875 -73.15625 C 60.144531 -74.28125 59.429688 -75.253906 58.828125 -76.078125 C 58.222656 -76.910156 57.582031 -77.582031 56.90625 -78.09375 C 56.226562 -78.601562 55.4375 -78.976562 54.53125 -79.21875 C 53.632812 -79.46875 52.453125 -79.59375 50.984375 -79.59375 C 50.578125 -79.59375 50.179688 -79.523438 49.796875 -79.390625 C 49.421875 -79.253906 49.03125 -79.1875 48.625 -79.1875 L 48.28125 -79.1875 C 48.164062 -79.1875 47.921875 -79.234375 47.546875 -79.328125 C 47.171875 -79.421875 46.925781 -79.507812 46.8125 -79.59375 L 39.09375 -79.59375 C 39.050781 -79.59375 38.925781 -79.609375 38.71875 -79.640625 C 38.507812 -79.679688 38.28125 -79.707031 38.03125 -79.71875 C 37.789062 -79.738281 37.554688 -79.769531 37.328125 -79.8125 C 37.109375 -79.851562 36.960938 -79.875 36.890625 -79.875 L 34.96875 -79.875 C 33.164062 -79.875 31.820312 -79.46875 30.9375 -78.65625 C 30.050781 -77.84375 29.609375 -76.476562 29.609375 -74.5625 L 29.609375 -74.171875 C 29.609375 -74.128906 29.644531 -73.984375 29.71875 -73.734375 C 29.800781 -73.492188 29.878906 -73.300781 29.953125 -73.15625 L 29.953125 -64.40625 C 29.953125 -63.320312 29.828125 -62.222656 29.578125 -61.109375 C 29.335938 -60.003906 29.21875 -58.925781 29.21875 -57.875 L 29.21875 -57.421875 C 29.21875 -57.304688 29.234375 -57.050781 29.265625 -56.65625 C 29.304688 -56.257812 29.351562 -55.84375 29.40625 -55.40625 C 29.46875 -54.976562 29.515625 -54.578125 29.546875 -54.203125 C 29.585938 -53.828125 29.609375 -53.601562 29.609375 -53.53125 L 29.609375 -44.328125 C 29.648438 -44.109375 29.722656 -43.921875 29.828125 -43.765625 C 29.941406 -43.617188 30.078125 -43.46875 30.234375 -43.3125 C 30.460938 -43.3125 30.835938 -43.332031 31.359375 -43.375 C 31.890625 -43.414062 32.453125 -43.453125 33.046875 -43.484375 C 33.648438 -43.523438 34.222656 -43.5625 34.765625 -43.59375 C 35.316406 -43.632812 35.703125 -43.65625 35.921875 -43.65625 C 36.035156 -43.65625 36.253906 -43.664062 36.578125 -43.6875 C 36.898438 -43.707031 37.226562 -43.734375 37.5625 -43.765625 C 37.90625 -43.804688 38.21875 -43.851562 38.5 -43.90625 C 38.78125 -43.96875 38.976562 -44.015625 39.09375 -44.046875 C 39.125 -44.046875 39.210938 -44.066406 39.359375 -44.109375 C 39.515625 -44.148438 39.664062 -44.175781 39.8125 -44.1875 C 39.96875 -44.207031 40.109375 -44.234375 40.234375 -44.265625 C 40.367188 -44.304688 40.457031 -44.328125 40.5 -44.328125 L 46.53125 -44.328125 C 46.90625 -44.328125 47.328125 -44.382812 47.796875 -44.5 C 48.265625 -44.613281 48.707031 -44.789062 49.125 -45.03125 C 49.539062 -45.28125 49.890625 -45.570312 50.171875 -45.90625 C 50.453125 -46.25 50.613281 -46.644531 50.65625 -47.09375 L 51.390625 -57.8125 C 51.460938 -58.300781 51.695312 -58.65625 52.09375 -58.875 C 52.488281 -59.101562 52.890625 -59.21875 53.296875 -59.21875 C 54.015625 -59.21875 54.644531 -59.03125 55.1875 -58.65625 C 55.738281 -58.28125 56.015625 -57.71875 56.015625 -56.96875 L 56.015625 -56.015625 C 56.015625 -55.898438 55.992188 -55.644531 55.953125 -55.25 C 55.910156 -54.851562 55.867188 -54.425781 55.828125 -53.96875 C 55.796875 -53.519531 55.757812 -53.117188 55.71875 -52.765625 C 55.6875 -52.410156 55.671875 -52.195312 55.671875 -52.125 L 55.671875 -45.46875 C 55.671875 -45.382812 55.648438 -45.226562 55.609375 -45 C 55.578125 -44.78125 55.53125 -44.546875 55.46875 -44.296875 C 55.414062 -44.054688 55.367188 -43.832031 55.328125 -43.625 C 55.296875 -43.414062 55.28125 -43.3125 55.28125 -43.3125 L 55.28125 -42.921875 C 55.28125 -40.628906 55.445312 -38.335938 55.78125 -36.046875 C 56.125 -33.753906 56.296875 -31.457031 56.296875 -29.15625 L 56.296875 -27.078125 C 56.066406 -26.429688 55.753906 -25.863281 55.359375 -25.375 C 54.960938 -24.894531 54.390625 -24.65625 53.640625 -24.65625 C 53.109375 -24.65625 52.664062 -24.796875 52.3125 -25.078125 C 51.957031 -25.359375 51.6875 -25.703125 51.5 -26.109375 C 51.3125 -26.523438 51.175781 -26.988281 51.09375 -27.5 C 51.019531 -28.007812 50.984375 -28.46875 50.984375 -28.875 C 50.984375 -29.476562 51.050781 -30.070312 51.1875 -30.65625 C 51.320312 -31.238281 51.390625 -31.847656 51.390625 -32.484375 C 51.390625 -33.617188 51.320312 -34.570312 51.1875 -35.34375 C 51.050781 -36.113281 50.796875 -36.734375 50.421875 -37.203125 C 50.046875 -37.671875 49.519531 -38.015625 48.84375 -38.234375 C 48.164062 -38.460938 47.28125 -38.597656 46.1875 -38.640625 C 46.082031 -38.640625 45.773438 -38.65625 45.265625 -38.6875 C 44.753906 -38.726562 44.21875 -38.773438 43.65625 -38.828125 C 43.09375 -38.890625 42.566406 -38.9375 42.078125 -38.96875 C 41.585938 -39.007812 41.285156 -39.03125 41.171875 -39.03125 C 39.742188 -39.101562 38.285156 -39.1875 36.796875 -39.28125 C 35.316406 -39.375 33.863281 -39.421875 32.4375 -39.421875 L 30.625 -39.421875 C 30.550781 -39.347656 30.375 -39.226562 30.09375 -39.0625 C 29.8125 -38.894531 29.648438 -38.753906 29.609375 -38.640625 C 29.578125 -38.597656 29.539062 -38.566406 29.5 -38.546875 C 29.457031 -38.535156 29.421875 -38.507812 29.390625 -38.46875 C 29.316406 -38.425781 29.257812 -38.390625 29.21875 -38.359375 L 29.21875 -22.046875 C 29.175781 -22.015625 29.132812 -21.90625 29.09375 -21.71875 C 29.0625 -21.53125 29.023438 -21.320312 28.984375 -21.09375 C 28.953125 -20.863281 28.914062 -20.644531 28.875 -20.4375 C 28.84375 -20.238281 28.828125 -20.082031 28.828125 -19.96875 C 28.828125 -19.894531 28.878906 -19.742188 28.984375 -19.515625 L 29.21875 -19.0625 L 29.21875 -18.28125 C 29.21875 -16.320312 29.148438 -14.375 29.015625 -12.4375 C 28.890625 -10.5 28.828125 -8.570312 28.828125 -6.65625 L 28.828125 -5.859375 C 28.828125 -5.523438 28.84375 -5.1875 28.875 -4.84375 C 28.914062 -4.507812 29.03125 -4.191406 29.21875 -3.890625 L 32.4375 -3.890625 C 32.582031 -3.890625 32.84375 -3.898438 33.21875 -3.921875 C 33.59375 -3.941406 34.003906 -3.96875 34.453125 -4 C 34.910156 -4.039062 35.335938 -4.078125 35.734375 -4.109375 C 36.128906 -4.148438 36.421875 -4.207031 36.609375 -4.28125 C 36.828125 -4.019531 37.019531 -3.867188 37.1875 -3.828125 C 37.363281 -3.796875 37.582031 -3.78125 37.84375 -3.78125 C 38.488281 -3.78125 39.070312 -3.910156 39.59375 -4.171875 C 40.125 -4.429688 40.648438 -4.5625 41.171875 -4.5625 C 41.515625 -4.5625 41.832031 -4.46875 42.125 -4.28125 C 42.425781 -4.09375 42.691406 -3.847656 42.921875 -3.546875 C 43.148438 -3.253906 43.335938 -2.9375 43.484375 -2.59375 C 43.640625 -2.257812 43.71875 -1.957031 43.71875 -1.6875 C 43.71875 -1.125 43.59375 -0.679688 43.34375 -0.359375 C 43.101562 -0.046875 42.785156 0.191406 42.390625 0.359375 C 41.992188 0.535156 41.550781 0.640625 41.0625 0.671875 C 40.570312 0.710938 40.101562 0.734375 39.65625 0.734375 L 36.328125 0.734375 C 35.835938 0.429688 35.5 0.234375 35.3125 0.140625 C 35.125 0.046875 34.820312 0 34.40625 0 C 33.769531 0 33.160156 0.0625 32.578125 0.1875 C 31.992188 0.320312 31.378906 0.390625 30.734375 0.390625 C 29.910156 0.390625 29.113281 0.320312 28.34375 0.1875 C 27.570312 0.0625 26.753906 0 25.890625 0 C 25.097656 0 24.28125 0.0625 23.4375 0.1875 C 22.59375 0.320312 21.773438 0.390625 20.984375 0.390625 C 20.117188 0.390625 19.289062 0.320312 18.5 0.1875 C 17.707031 0.0625 16.878906 0 16.015625 0 C 14.515625 0 13.03125 0.117188 11.5625 0.359375 C 10.09375 0.609375 8.585938 0.734375 7.046875 0.734375 L 5.359375 0.734375 C 4.867188 0.503906 4.441406 0.25 4.078125 -0.03125 C 3.722656 -0.3125 3.546875 -0.769531 3.546875 -1.40625 Z M 3.546875 -1.40625 "/></g></g></g><g fill="#4d433a" fill-opacity="1"><g transform="translate(74.53709, 357.612277)"><g><path d="M 13.65625 -23.6875 L 13.65625 -20.359375 C 13.6875 -20.054688 13.765625 -19.585938 13.890625 -18.953125 C 14.023438 -18.316406 14.1875 -17.648438 14.375 -16.953125 C 14.570312 -16.253906 14.765625 -15.601562 14.953125 -15 C 15.140625 -14.394531 15.304688 -13.984375 15.453125 -13.765625 C 15.492188 -13.648438 15.613281 -13.429688 15.8125 -13.109375 C 16.019531 -12.796875 16.242188 -12.457031 16.484375 -12.09375 C 16.734375 -11.738281 16.960938 -11.398438 17.171875 -11.078125 C 17.378906 -10.765625 17.503906 -10.566406 17.546875 -10.484375 C 17.578125 -10.410156 17.660156 -10.234375 17.796875 -9.953125 C 17.929688 -9.671875 18.082031 -9.378906 18.25 -9.078125 C 18.414062 -8.773438 18.5625 -8.484375 18.6875 -8.203125 C 18.820312 -7.921875 18.910156 -7.742188 18.953125 -7.671875 C 18.992188 -7.628906 19.078125 -7.53125 19.203125 -7.375 C 19.335938 -7.226562 19.488281 -7.082031 19.65625 -6.9375 C 19.820312 -6.789062 19.976562 -6.648438 20.125 -6.515625 C 20.28125 -6.378906 20.359375 -6.296875 20.359375 -6.265625 C 20.660156 -5.921875 21 -5.4375 21.375 -4.8125 C 21.75 -4.195312 22.144531 -3.757812 22.5625 -3.5 C 22.601562 -3.425781 22.828125 -3.34375 23.234375 -3.25 C 23.648438 -3.15625 23.894531 -3.085938 23.96875 -3.046875 C 24.71875 -2.742188 25.441406 -2.507812 26.140625 -2.34375 C 26.835938 -2.175781 27.640625 -2.09375 28.546875 -2.09375 C 29.222656 -2.09375 29.785156 -2.175781 30.234375 -2.34375 C 30.679688 -2.507812 31.101562 -2.742188 31.5 -3.046875 C 31.894531 -3.347656 32.289062 -3.695312 32.6875 -4.09375 C 33.082031 -4.488281 33.5625 -4.890625 34.125 -5.296875 C 34.6875 -5.710938 35.085938 -6.191406 35.328125 -6.734375 C 35.578125 -7.285156 35.890625 -7.820312 36.265625 -8.34375 C 36.609375 -8.90625 36.992188 -9.445312 37.421875 -9.96875 C 37.859375 -10.5 38.265625 -11.03125 38.640625 -11.5625 C 38.785156 -11.789062 38.882812 -11.976562 38.9375 -12.125 C 39 -12.28125 39.039062 -12.421875 39.0625 -12.546875 C 39.082031 -12.679688 39.097656 -12.84375 39.109375 -13.03125 C 39.128906 -13.21875 39.195312 -13.460938 39.3125 -13.765625 C 39.351562 -13.765625 39.4375 -13.882812 39.5625 -14.125 C 39.695312 -14.375 39.835938 -14.664062 39.984375 -15 C 40.140625 -15.34375 40.289062 -15.679688 40.4375 -16.015625 C 40.59375 -16.359375 40.726562 -16.640625 40.84375 -16.859375 C 40.875 -16.941406 40.910156 -17.035156 40.953125 -17.140625 C 40.984375 -17.222656 41.019531 -17.300781 41.0625 -17.375 C 41.101562 -17.445312 41.125 -17.503906 41.125 -17.546875 C 41.195312 -17.765625 41.28125 -18.097656 41.375 -18.546875 C 41.46875 -19.003906 41.550781 -19.457031 41.625 -19.90625 C 41.695312 -20.363281 41.757812 -20.769531 41.8125 -21.125 C 41.875 -21.476562 41.90625 -21.691406 41.90625 -21.765625 L 41.90625 -25.5 C 41.90625 -27.445312 41.800781 -29.4375 41.59375 -31.46875 C 41.382812 -33.5 40.90625 -35.457031 40.15625 -37.34375 C 39.519531 -38.769531 38.851562 -40.113281 38.15625 -41.375 C 37.457031 -42.632812 36.453125 -43.753906 35.140625 -44.734375 C 35.066406 -44.765625 34.820312 -44.882812 34.40625 -45.09375 C 33.988281 -45.300781 33.546875 -45.523438 33.078125 -45.765625 C 32.609375 -46.015625 32.164062 -46.242188 31.75 -46.453125 C 31.34375 -46.660156 31.082031 -46.78125 30.96875 -46.8125 C 30.925781 -46.851562 30.820312 -46.925781 30.65625 -47.03125 C 30.488281 -47.144531 30.300781 -47.257812 30.09375 -47.375 C 29.882812 -47.488281 29.6875 -47.59375 29.5 -47.6875 C 29.3125 -47.78125 29.195312 -47.828125 29.15625 -47.828125 C 29.15625 -47.898438 29.050781 -47.9375 28.84375 -47.9375 C 28.644531 -47.9375 28.503906 -47.9375 28.421875 -47.9375 C 26.992188 -47.9375 25.671875 -47.625 24.453125 -47 C 23.234375 -46.382812 22.125 -45.585938 21.125 -44.609375 C 20.125 -43.640625 19.238281 -42.539062 18.46875 -41.3125 C 17.695312 -40.09375 17.03125 -38.863281 16.46875 -37.625 C 15.488281 -35.476562 14.773438 -33.210938 14.328125 -30.828125 C 13.878906 -28.441406 13.65625 -26.0625 13.65625 -23.6875 Z M 3.390625 -25.09375 C 3.390625 -25.769531 3.460938 -26.632812 3.609375 -27.6875 C 3.753906 -28.75 3.957031 -29.832031 4.21875 -30.9375 C 4.488281 -32.050781 4.800781 -33.113281 5.15625 -34.125 C 5.519531 -35.132812 5.890625 -35.976562 6.265625 -36.65625 C 6.671875 -37.414062 7.144531 -38.066406 7.6875 -38.609375 C 8.238281 -39.148438 8.832031 -39.796875 9.46875 -40.546875 C 9.851562 -40.960938 10.140625 -41.472656 10.328125 -42.078125 C 10.515625 -42.679688 10.796875 -43.1875 11.171875 -43.59375 C 11.316406 -43.78125 11.566406 -44.050781 11.921875 -44.40625 C 12.285156 -44.769531 12.539062 -45.007812 12.6875 -45.125 C 12.757812 -45.164062 12.914062 -45.222656 13.15625 -45.296875 C 13.40625 -45.367188 13.570312 -45.40625 13.65625 -45.40625 C 14.144531 -45.632812 14.578125 -45.90625 14.953125 -46.21875 C 15.328125 -46.539062 15.679688 -46.859375 16.015625 -47.171875 C 16.359375 -47.492188 16.707031 -47.816406 17.0625 -48.140625 C 17.414062 -48.460938 17.820312 -48.753906 18.28125 -49.015625 C 19.851562 -49.878906 21.609375 -50.441406 23.546875 -50.703125 C 25.484375 -50.972656 27.335938 -51.109375 29.109375 -51.109375 C 29.597656 -51.109375 30.019531 -50.960938 30.375 -50.671875 C 30.726562 -50.390625 31.148438 -50.175781 31.640625 -50.03125 C 31.710938 -49.988281 31.878906 -49.945312 32.140625 -49.90625 C 32.410156 -49.875 32.703125 -49.847656 33.015625 -49.828125 C 33.335938 -49.816406 33.640625 -49.789062 33.921875 -49.75 C 34.203125 -49.707031 34.398438 -49.671875 34.515625 -49.640625 C 34.554688 -49.640625 34.71875 -49.59375 35 -49.5 C 35.28125 -49.40625 35.457031 -49.335938 35.53125 -49.296875 C 35.601562 -49.253906 35.769531 -49.164062 36.03125 -49.03125 C 36.300781 -48.90625 36.59375 -48.757812 36.90625 -48.59375 C 37.226562 -48.425781 37.53125 -48.265625 37.8125 -48.109375 C 38.09375 -47.960938 38.273438 -47.867188 38.359375 -47.828125 C 38.847656 -47.640625 39.4375 -47.460938 40.125 -47.296875 C 40.820312 -47.128906 41.414062 -46.875 41.90625 -46.53125 C 41.976562 -46.5 42.097656 -46.382812 42.265625 -46.1875 C 42.441406 -46 42.625 -45.800781 42.8125 -45.59375 C 43 -45.394531 43.175781 -45.207031 43.34375 -45.03125 C 43.507812 -44.863281 43.613281 -44.765625 43.65625 -44.734375 C 43.695312 -44.691406 43.800781 -44.625 43.96875 -44.53125 C 44.132812 -44.4375 44.3125 -44.320312 44.5 -44.1875 C 44.6875 -44.0625 44.875 -43.941406 45.0625 -43.828125 C 45.25 -43.710938 45.382812 -43.632812 45.46875 -43.59375 C 46.59375 -42.695312 47.554688 -41.570312 48.359375 -40.21875 C 49.171875 -38.863281 49.832031 -37.40625 50.34375 -35.84375 C 50.851562 -34.28125 51.226562 -32.695312 51.46875 -31.09375 C 51.707031 -29.5 51.828125 -28.007812 51.828125 -26.625 L 51.828125 -25.046875 C 51.796875 -24.671875 51.75 -24.148438 51.6875 -23.484375 C 51.632812 -22.828125 51.585938 -22.179688 51.546875 -21.546875 C 51.515625 -20.910156 51.488281 -20.347656 51.46875 -19.859375 C 51.445312 -19.367188 51.4375 -19.101562 51.4375 -19.0625 C 51.4375 -18.945312 51.359375 -18.65625 51.203125 -18.1875 C 51.054688 -17.71875 50.890625 -17.203125 50.703125 -16.640625 C 50.515625 -16.078125 50.316406 -15.519531 50.109375 -14.96875 C 49.910156 -14.425781 49.753906 -14.023438 49.640625 -13.765625 C 49.640625 -13.691406 49.582031 -13.550781 49.46875 -13.34375 C 49.351562 -13.132812 49.238281 -12.90625 49.125 -12.65625 C 49.007812 -12.414062 48.90625 -12.191406 48.8125 -11.984375 C 48.71875 -11.773438 48.65625 -11.632812 48.625 -11.5625 C 48.625 -11.488281 48.554688 -11.316406 48.421875 -11.046875 C 48.285156 -10.785156 48.21875 -10.597656 48.21875 -10.484375 C 48.113281 -10.335938 47.890625 -10.066406 47.546875 -9.671875 C 47.210938 -9.273438 46.851562 -8.851562 46.46875 -8.40625 C 46.09375 -7.957031 45.734375 -7.523438 45.390625 -7.109375 C 45.054688 -6.691406 44.835938 -6.410156 44.734375 -6.265625 C 44.648438 -6.179688 44.46875 -6.046875 44.1875 -5.859375 C 43.90625 -5.671875 43.726562 -5.578125 43.65625 -5.578125 C 43.539062 -5.390625 43.390625 -5.296875 43.203125 -5.296875 C 43.085938 -5.148438 42.867188 -4.941406 42.546875 -4.671875 C 42.234375 -4.410156 41.90625 -4.148438 41.5625 -3.890625 C 41.226562 -3.628906 40.921875 -3.382812 40.640625 -3.15625 C 40.359375 -2.925781 40.195312 -2.796875 40.15625 -2.765625 C 39.75 -2.503906 39.398438 -2.363281 39.109375 -2.34375 C 38.828125 -2.320312 38.460938 -2.238281 38.015625 -2.09375 C 37.898438 -2.007812 37.644531 -1.875 37.25 -1.6875 C 36.851562 -1.5 36.617188 -1.40625 36.546875 -1.40625 C 36.515625 -1.40625 36.382812 -1.375 36.15625 -1.3125 C 35.925781 -1.257812 35.671875 -1.210938 35.390625 -1.171875 C 35.109375 -1.140625 34.84375 -1.09375 34.59375 -1.03125 C 34.351562 -0.976562 34.195312 -0.953125 34.125 -0.953125 C 33.976562 -0.953125 33.675781 -0.859375 33.21875 -0.671875 C 32.769531 -0.484375 32.507812 -0.351562 32.4375 -0.28125 L 26.625 -0.28125 C 25.757812 -0.28125 24.910156 -0.289062 24.078125 -0.3125 C 23.253906 -0.332031 22.46875 -0.414062 21.71875 -0.5625 C 21.675781 -0.5625 21.578125 -0.597656 21.421875 -0.671875 C 21.273438 -0.753906 21.097656 -0.847656 20.890625 -0.953125 C 20.691406 -1.066406 20.515625 -1.171875 20.359375 -1.265625 C 20.210938 -1.359375 20.117188 -1.40625 20.078125 -1.40625 C 20.046875 -1.40625 19.929688 -1.414062 19.734375 -1.4375 C 19.546875 -1.457031 19.347656 -1.484375 19.140625 -1.515625 C 18.941406 -1.554688 18.753906 -1.59375 18.578125 -1.625 C 18.410156 -1.664062 18.3125 -1.6875 18.28125 -1.6875 C 18.238281 -1.6875 18.054688 -1.800781 17.734375 -2.03125 C 17.421875 -2.257812 17.222656 -2.375 17.140625 -2.375 C 17.066406 -2.445312 16.851562 -2.554688 16.5 -2.703125 C 16.144531 -2.859375 15.890625 -2.972656 15.734375 -3.046875 C 14.867188 -3.460938 13.992188 -4 13.109375 -4.65625 C 12.222656 -5.3125 11.394531 -6.050781 10.625 -6.875 C 9.851562 -7.707031 9.148438 -8.570312 8.515625 -9.46875 C 7.878906 -10.375 7.375 -11.296875 7 -12.234375 C 6.957031 -12.390625 6.890625 -12.710938 6.796875 -13.203125 C 6.703125 -13.691406 6.65625 -13.972656 6.65625 -14.046875 C 6.582031 -14.078125 6.453125 -14.253906 6.265625 -14.578125 C 6.078125 -14.898438 5.941406 -15.097656 5.859375 -15.171875 C 5.523438 -15.804688 5.207031 -16.546875 4.90625 -17.390625 C 4.601562 -18.242188 4.335938 -19.117188 4.109375 -20.015625 C 3.890625 -20.921875 3.710938 -21.816406 3.578125 -22.703125 C 3.453125 -23.585938 3.390625 -24.382812 3.390625 -25.09375 Z M 3.390625 -25.09375 "/></g></g></g><g fill="#4d433a" fill-opacity="1"><g transform="translate(130.149505, 357.612277)"><g><path d="M 13.65625 -23.6875 L 13.65625 -20.359375 C 13.6875 -20.054688 13.765625 -19.585938 13.890625 -18.953125 C 14.023438 -18.316406 14.1875 -17.648438 14.375 -16.953125 C 14.570312 -16.253906 14.765625 -15.601562 14.953125 -15 C 15.140625 -14.394531 15.304688 -13.984375 15.453125 -13.765625 C 15.492188 -13.648438 15.613281 -13.429688 15.8125 -13.109375 C 16.019531 -12.796875 16.242188 -12.457031 16.484375 -12.09375 C 16.734375 -11.738281 16.960938 -11.398438 17.171875 -11.078125 C 17.378906 -10.765625 17.503906 -10.566406 17.546875 -10.484375 C 17.578125 -10.410156 17.660156 -10.234375 17.796875 -9.953125 C 17.929688 -9.671875 18.082031 -9.378906 18.25 -9.078125 C 18.414062 -8.773438 18.5625 -8.484375 18.6875 -8.203125 C 18.820312 -7.921875 18.910156 -7.742188 18.953125 -7.671875 C 18.992188 -7.628906 19.078125 -7.53125 19.203125 -7.375 C 19.335938 -7.226562 19.488281 -7.082031 19.65625 -6.9375 C 19.820312 -6.789062 19.976562 -6.648438 20.125 -6.515625 C 20.28125 -6.378906 20.359375 -6.296875 20.359375 -6.265625 C 20.660156 -5.921875 21 -5.4375 21.375 -4.8125 C 21.75 -4.195312 22.144531 -3.757812 22.5625 -3.5 C 22.601562 -3.425781 22.828125 -3.34375 23.234375 -3.25 C 23.648438 -3.15625 23.894531 -3.085938 23.96875 -3.046875 C 24.71875 -2.742188 25.441406 -2.507812 26.140625 -2.34375 C 26.835938 -2.175781 27.640625 -2.09375 28.546875 -2.09375 C 29.222656 -2.09375 29.785156 -2.175781 30.234375 -2.34375 C 30.679688 -2.507812 31.101562 -2.742188 31.5 -3.046875 C 31.894531 -3.347656 32.289062 -3.695312 32.6875 -4.09375 C 33.082031 -4.488281 33.5625 -4.890625 34.125 -5.296875 C 34.6875 -5.710938 35.085938 -6.191406 35.328125 -6.734375 C 35.578125 -7.285156 35.890625 -7.820312 36.265625 -8.34375 C 36.609375 -8.90625 36.992188 -9.445312 37.421875 -9.96875 C 37.859375 -10.5 38.265625 -11.03125 38.640625 -11.5625 C 38.785156 -11.789062 38.882812 -11.976562 38.9375 -12.125 C 39 -12.28125 39.039062 -12.421875 39.0625 -12.546875 C 39.082031 -12.679688 39.097656 -12.84375 39.109375 -13.03125 C 39.128906 -13.21875 39.195312 -13.460938 39.3125 -13.765625 C 39.351562 -13.765625 39.4375 -13.882812 39.5625 -14.125 C 39.695312 -14.375 39.835938 -14.664062 39.984375 -15 C 40.140625 -15.34375 40.289062 -15.679688 40.4375 -16.015625 C 40.59375 -16.359375 40.726562 -16.640625 40.84375 -16.859375 C 40.875 -16.941406 40.910156 -17.035156 40.953125 -17.140625 C 40.984375 -17.222656 41.019531 -17.300781 41.0625 -17.375 C 41.101562 -17.445312 41.125 -17.503906 41.125 -17.546875 C 41.195312 -17.765625 41.28125 -18.097656 41.375 -18.546875 C 41.46875 -19.003906 41.550781 -19.457031 41.625 -19.90625 C 41.695312 -20.363281 41.757812 -20.769531 41.8125 -21.125 C 41.875 -21.476562 41.90625 -21.691406 41.90625 -21.765625 L 41.90625 -25.5 C 41.90625 -27.445312 41.800781 -29.4375 41.59375 -31.46875 C 41.382812 -33.5 40.90625 -35.457031 40.15625 -37.34375 C 39.519531 -38.769531 38.851562 -40.113281 38.15625 -41.375 C 37.457031 -42.632812 36.453125 -43.753906 35.140625 -44.734375 C 35.066406 -44.765625 34.820312 -44.882812 34.40625 -45.09375 C 33.988281 -45.300781 33.546875 -45.523438 33.078125 -45.765625 C 32.609375 -46.015625 32.164062 -46.242188 31.75 -46.453125 C 31.34375 -46.660156 31.082031 -46.78125 30.96875 -46.8125 C 30.925781 -46.851562 30.820312 -46.925781 30.65625 -47.03125 C 30.488281 -47.144531 30.300781 -47.257812 30.09375 -47.375 C 29.882812 -47.488281 29.6875 -47.59375 29.5 -47.6875 C 29.3125 -47.78125 29.195312 -47.828125 29.15625 -47.828125 C 29.15625 -47.898438 29.050781 -47.9375 28.84375 -47.9375 C 28.644531 -47.9375 28.503906 -47.9375 28.421875 -47.9375 C 26.992188 -47.9375 25.671875 -47.625 24.453125 -47 C 23.234375 -46.382812 22.125 -45.585938 21.125 -44.609375 C 20.125 -43.640625 19.238281 -42.539062 18.46875 -41.3125 C 17.695312 -40.09375 17.03125 -38.863281 16.46875 -37.625 C 15.488281 -35.476562 14.773438 -33.210938 14.328125 -30.828125 C 13.878906 -28.441406 13.65625 -26.0625 13.65625 -23.6875 Z M 3.390625 -25.09375 C 3.390625 -25.769531 3.460938 -26.632812 3.609375 -27.6875 C 3.753906 -28.75 3.957031 -29.832031 4.21875 -30.9375 C 4.488281 -32.050781 4.800781 -33.113281 5.15625 -34.125 C 5.519531 -35.132812 5.890625 -35.976562 6.265625 -36.65625 C 6.671875 -37.414062 7.144531 -38.066406 7.6875 -38.609375 C 8.238281 -39.148438 8.832031 -39.796875 9.46875 -40.546875 C 9.851562 -40.960938 10.140625 -41.472656 10.328125 -42.078125 C 10.515625 -42.679688 10.796875 -43.1875 11.171875 -43.59375 C 11.316406 -43.78125 11.566406 -44.050781 11.921875 -44.40625 C 12.285156 -44.769531 12.539062 -45.007812 12.6875 -45.125 C 12.757812 -45.164062 12.914062 -45.222656 13.15625 -45.296875 C 13.40625 -45.367188 13.570312 -45.40625 13.65625 -45.40625 C 14.144531 -45.632812 14.578125 -45.90625 14.953125 -46.21875 C 15.328125 -46.539062 15.679688 -46.859375 16.015625 -47.171875 C 16.359375 -47.492188 16.707031 -47.816406 17.0625 -48.140625 C 17.414062 -48.460938 17.820312 -48.753906 18.28125 -49.015625 C 19.851562 -49.878906 21.609375 -50.441406 23.546875 -50.703125 C 25.484375 -50.972656 27.335938 -51.109375 29.109375 -51.109375 C 29.597656 -51.109375 30.019531 -50.960938 30.375 -50.671875 C 30.726562 -50.390625 31.148438 -50.175781 31.640625 -50.03125 C 31.710938 -49.988281 31.878906 -49.945312 32.140625 -49.90625 C 32.410156 -49.875 32.703125 -49.847656 33.015625 -49.828125 C 33.335938 -49.816406 33.640625 -49.789062 33.921875 -49.75 C 34.203125 -49.707031 34.398438 -49.671875 34.515625 -49.640625 C 34.554688 -49.640625 34.71875 -49.59375 35 -49.5 C 35.28125 -49.40625 35.457031 -49.335938 35.53125 -49.296875 C 35.601562 -49.253906 35.769531 -49.164062 36.03125 -49.03125 C 36.300781 -48.90625 36.59375 -48.757812 36.90625 -48.59375 C 37.226562 -48.425781 37.53125 -48.265625 37.8125 -48.109375 C 38.09375 -47.960938 38.273438 -47.867188 38.359375 -47.828125 C 38.847656 -47.640625 39.4375 -47.460938 40.125 -47.296875 C 40.820312 -47.128906 41.414062 -46.875 41.90625 -46.53125 C 41.976562 -46.5 42.097656 -46.382812 42.265625 -46.1875 C 42.441406 -46 42.625 -45.800781 42.8125 -45.59375 C 43 -45.394531 43.175781 -45.207031 43.34375 -45.03125 C 43.507812 -44.863281 43.613281 -44.765625 43.65625 -44.734375 C 43.695312 -44.691406 43.800781 -44.625 43.96875 -44.53125 C 44.132812 -44.4375 44.3125 -44.320312 44.5 -44.1875 C 44.6875 -44.0625 44.875 -43.941406 45.0625 -43.828125 C 45.25 -43.710938 45.382812 -43.632812 45.46875 -43.59375 C 46.59375 -42.695312 47.554688 -41.570312 48.359375 -40.21875 C 49.171875 -38.863281 49.832031 -37.40625 50.34375 -35.84375 C 50.851562 -34.28125 51.226562 -32.695312 51.46875 -31.09375 C 51.707031 -29.5 51.828125 -28.007812 51.828125 -26.625 L 51.828125 -25.046875 C 51.796875 -24.671875 51.75 -24.148438 51.6875 -23.484375 C 51.632812 -22.828125 51.585938 -22.179688 51.546875 -21.546875 C 51.515625 -20.910156 51.488281 -20.347656 51.46875 -19.859375 C 51.445312 -19.367188 51.4375 -19.101562 51.4375 -19.0625 C 51.4375 -18.945312 51.359375 -18.65625 51.203125 -18.1875 C 51.054688 -17.71875 50.890625 -17.203125 50.703125 -16.640625 C 50.515625 -16.078125 50.316406 -15.519531 50.109375 -14.96875 C 49.910156 -14.425781 49.753906 -14.023438 49.640625 -13.765625 C 49.640625 -13.691406 49.582031 -13.550781 49.46875 -13.34375 C 49.351562 -13.132812 49.238281 -12.90625 49.125 -12.65625 C 49.007812 -12.414062 48.90625 -12.191406 48.8125 -11.984375 C 48.71875 -11.773438 48.65625 -11.632812 48.625 -11.5625 C 48.625 -11.488281 48.554688 -11.316406 48.421875 -11.046875 C 48.285156 -10.785156 48.21875 -10.597656 48.21875 -10.484375 C 48.113281 -10.335938 47.890625 -10.066406 47.546875 -9.671875 C 47.210938 -9.273438 46.851562 -8.851562 46.46875 -8.40625 C 46.09375 -7.957031 45.734375 -7.523438 45.390625 -7.109375 C 45.054688 -6.691406 44.835938 -6.410156 44.734375 -6.265625 C 44.648438 -6.179688 44.46875 -6.046875 44.1875 -5.859375 C 43.90625 -5.671875 43.726562 -5.578125 43.65625 -5.578125 C 43.539062 -5.390625 43.390625 -5.296875 43.203125 -5.296875 C 43.085938 -5.148438 42.867188 -4.941406 42.546875 -4.671875 C 42.234375 -4.410156 41.90625 -4.148438 41.5625 -3.890625 C 41.226562 -3.628906 40.921875 -3.382812 40.640625 -3.15625 C 40.359375 -2.925781 40.195312 -2.796875 40.15625 -2.765625 C 39.75 -2.503906 39.398438 -2.363281 39.109375 -2.34375 C 38.828125 -2.320312 38.460938 -2.238281 38.015625 -2.09375 C 37.898438 -2.007812 37.644531 -1.875 37.25 -1.6875 C 36.851562 -1.5 36.617188 -1.40625 36.546875 -1.40625 C 36.515625 -1.40625 36.382812 -1.375 36.15625 -1.3125 C 35.925781 -1.257812 35.671875 -1.210938 35.390625 -1.171875 C 35.109375 -1.140625 34.84375 -1.09375 34.59375 -1.03125 C 34.351562 -0.976562 34.195312 -0.953125 34.125 -0.953125 C 33.976562 -0.953125 33.675781 -0.859375 33.21875 -0.671875 C 32.769531 -0.484375 32.507812 -0.351562 32.4375 -0.28125 L 26.625 -0.28125 C 25.757812 -0.28125 24.910156 -0.289062 24.078125 -0.3125 C 23.253906 -0.332031 22.46875 -0.414062 21.71875 -0.5625 C 21.675781 -0.5625 21.578125 -0.597656 21.421875 -0.671875 C 21.273438 -0.753906 21.097656 -0.847656 20.890625 -0.953125 C 20.691406 -1.066406 20.515625 -1.171875 20.359375 -1.265625 C 20.210938 -1.359375 20.117188 -1.40625 20.078125 -1.40625 C 20.046875 -1.40625 19.929688 -1.414062 19.734375 -1.4375 C 19.546875 -1.457031 19.347656 -1.484375 19.140625 -1.515625 C 18.941406 -1.554688 18.753906 -1.59375 18.578125 -1.625 C 18.410156 -1.664062 18.3125 -1.6875 18.28125 -1.6875 C 18.238281 -1.6875 18.054688 -1.800781 17.734375 -2.03125 C 17.421875 -2.257812 17.222656 -2.375 17.140625 -2.375 C 17.066406 -2.445312 16.851562 -2.554688 16.5 -2.703125 C 16.144531 -2.859375 15.890625 -2.972656 15.734375 -3.046875 C 14.867188 -3.460938 13.992188 -4 13.109375 -4.65625 C 12.222656 -5.3125 11.394531 -6.050781 10.625 -6.875 C 9.851562 -7.707031 9.148438 -8.570312 8.515625 -9.46875 C 7.878906 -10.375 7.375 -11.296875 7 -12.234375 C 6.957031 -12.390625 6.890625 -12.710938 6.796875 -13.203125 C 6.703125 -13.691406 6.65625 -13.972656 6.65625 -14.046875 C 6.582031 -14.078125 6.453125 -14.253906 6.265625 -14.578125 C 6.078125 -14.898438 5.941406 -15.097656 5.859375 -15.171875 C 5.523438 -15.804688 5.207031 -16.546875 4.90625 -17.390625 C 4.601562 -18.242188 4.335938 -19.117188 4.109375 -20.015625 C 3.890625 -20.921875 3.710938 -21.816406 3.578125 -22.703125 C 3.453125 -23.585938 3.390625 -24.382812 3.390625 -25.09375 Z M 3.390625 -25.09375 "/></g></g></g><g fill="#4d433a" fill-opacity="1"><g transform="translate(185.761921, 357.612277)"><g><path d="M 24.078125 -6.546875 C 24.265625 -6.503906 24.625 -6.445312 25.15625 -6.375 C 25.6875 -6.300781 26.25 -6.222656 26.84375 -6.140625 C 27.445312 -6.066406 28.03125 -5.992188 28.59375 -5.921875 C 29.15625 -5.847656 29.550781 -5.789062 29.78125 -5.75 L 30.171875 -5.75 C 31.222656 -5.75 32.171875 -5.832031 33.015625 -6 C 33.867188 -6.175781 34.785156 -6.453125 35.765625 -6.828125 C 35.796875 -6.828125 35.941406 -6.890625 36.203125 -7.015625 C 36.472656 -7.148438 36.625 -7.21875 36.65625 -7.21875 C 36.8125 -7.445312 36.992188 -7.726562 37.203125 -8.0625 C 37.410156 -8.40625 37.609375 -8.78125 37.796875 -9.1875 C 37.984375 -9.601562 38.140625 -10.023438 38.265625 -10.453125 C 38.398438 -10.890625 38.46875 -11.296875 38.46875 -11.671875 L 38.46875 -11.734375 C 38.46875 -11.878906 38.457031 -12.101562 38.4375 -12.40625 C 38.414062 -12.707031 38.382812 -13.023438 38.34375 -13.359375 C 38.3125 -13.703125 38.273438 -14.023438 38.234375 -14.328125 C 38.203125 -14.628906 38.164062 -14.835938 38.125 -14.953125 L 38.125 -31.921875 C 38.125 -32.148438 38.113281 -32.570312 38.09375 -33.1875 C 38.082031 -33.8125 38.054688 -34.476562 38.015625 -35.1875 C 37.972656 -35.90625 37.929688 -36.582031 37.890625 -37.21875 C 37.859375 -37.863281 37.84375 -38.316406 37.84375 -38.578125 C 37.84375 -38.765625 37.773438 -39.023438 37.640625 -39.359375 C 37.515625 -39.703125 37.453125 -39.910156 37.453125 -39.984375 C 37.191406 -40.472656 36.851562 -40.847656 36.4375 -41.109375 C 36.019531 -41.378906 35.585938 -41.597656 35.140625 -41.765625 C 34.691406 -41.929688 34.238281 -42.085938 33.78125 -42.234375 C 33.332031 -42.390625 32.921875 -42.617188 32.546875 -42.921875 C 31.234375 -43.785156 30.007812 -44.507812 28.875 -45.09375 C 27.75 -45.675781 26.378906 -45.96875 24.765625 -45.96875 C 24.234375 -45.96875 23.710938 -45.828125 23.203125 -45.546875 C 22.703125 -45.265625 22.210938 -44.914062 21.734375 -44.5 C 21.265625 -44.082031 20.804688 -43.648438 20.359375 -43.203125 C 19.910156 -42.753906 19.476562 -42.378906 19.0625 -42.078125 C 18.988281 -42.035156 18.929688 -42 18.890625 -41.96875 C 18.816406 -41.894531 18.78125 -41.835938 18.78125 -41.796875 C 17.800781 -40.515625 16.953125 -39.140625 16.234375 -37.671875 C 15.523438 -36.210938 14.851562 -34.765625 14.21875 -33.328125 C 14.132812 -33.179688 14.054688 -33.003906 13.984375 -32.796875 C 13.910156 -32.585938 13.835938 -32.390625 13.765625 -32.203125 C 13.648438 -31.984375 13.554688 -31.757812 13.484375 -31.53125 L 13.484375 -23.796875 C 13.703125 -23.046875 13.820312 -22.285156 13.84375 -21.515625 C 13.863281 -20.742188 13.988281 -19.945312 14.21875 -19.125 C 14.738281 -16.863281 15.582031 -14.929688 16.75 -13.328125 C 17.914062 -11.734375 19.382812 -10.164062 21.15625 -8.625 C 21.644531 -8.21875 22.09375 -7.804688 22.5 -7.390625 C 22.914062 -6.972656 23.441406 -6.691406 24.078125 -6.546875 Z M 3.5 -20.46875 L 3.5 -20.59375 C 3.613281 -20.8125 3.753906 -21.132812 3.921875 -21.5625 C 4.085938 -22 4.171875 -22.367188 4.171875 -22.671875 C 4.171875 -22.859375 4.125 -23.046875 4.03125 -23.234375 C 3.9375 -23.421875 3.890625 -23.664062 3.890625 -23.96875 C 3.890625 -24.53125 4 -25.117188 4.21875 -25.734375 C 4.445312 -26.359375 4.601562 -27.007812 4.6875 -27.6875 C 4.757812 -29.34375 4.953125 -30.90625 5.265625 -32.375 C 5.585938 -33.84375 6.203125 -35.3125 7.109375 -36.78125 C 7.109375 -36.851562 7.15625 -36.9375 7.25 -37.03125 C 7.34375 -37.125 7.390625 -37.191406 7.390625 -37.234375 C 7.535156 -37.378906 7.722656 -37.582031 7.953125 -37.84375 C 8.179688 -38.101562 8.40625 -38.363281 8.625 -38.625 C 8.851562 -38.894531 9.0625 -39.132812 9.25 -39.34375 C 9.4375 -39.550781 9.550781 -39.671875 9.59375 -39.703125 C 9.625 -39.742188 9.707031 -39.867188 9.84375 -40.078125 C 9.976562 -40.285156 10.117188 -40.507812 10.265625 -40.75 C 10.410156 -41 10.550781 -41.222656 10.6875 -41.421875 C 10.820312 -41.628906 10.925781 -41.753906 11 -41.796875 C 11.414062 -42.210938 11.988281 -42.5625 12.71875 -42.84375 C 13.445312 -43.125 14.039062 -43.46875 14.5 -43.875 C 14.570312 -43.957031 14.710938 -44.097656 14.921875 -44.296875 C 15.128906 -44.503906 15.34375 -44.726562 15.5625 -44.96875 C 15.789062 -45.21875 16.007812 -45.4375 16.21875 -45.625 C 16.425781 -45.8125 16.546875 -45.925781 16.578125 -45.96875 C 16.617188 -46.007812 16.75 -46.066406 16.96875 -46.140625 C 17.195312 -46.210938 17.429688 -46.296875 17.671875 -46.390625 C 17.921875 -46.484375 18.148438 -46.566406 18.359375 -46.640625 C 18.566406 -46.722656 18.707031 -46.78125 18.78125 -46.8125 C 18.96875 -46.8125 19.0625 -46.90625 19.0625 -47.09375 C 21.019531 -47.46875 23.03125 -47.863281 25.09375 -48.28125 C 27.164062 -48.695312 29.234375 -48.90625 31.296875 -48.90625 C 32.054688 -48.90625 32.800781 -48.816406 33.53125 -48.640625 C 34.257812 -48.472656 35.003906 -48.390625 35.765625 -48.390625 C 36.171875 -48.390625 36.503906 -48.554688 36.765625 -48.890625 C 37.035156 -49.234375 37.242188 -49.628906 37.390625 -50.078125 C 37.546875 -50.535156 37.648438 -51.015625 37.703125 -51.515625 C 37.765625 -52.023438 37.8125 -52.453125 37.84375 -52.796875 C 37.914062 -54.484375 37.976562 -56.25 38.03125 -58.09375 C 38.09375 -59.9375 38.125 -61.757812 38.125 -63.5625 L 38.125 -65.375 C 38.125 -65.519531 38.101562 -65.835938 38.0625 -66.328125 C 38.03125 -66.816406 38.003906 -67.332031 37.984375 -67.875 C 37.960938 -68.425781 37.929688 -68.945312 37.890625 -69.4375 C 37.859375 -69.925781 37.84375 -70.242188 37.84375 -70.390625 L 37.84375 -72.3125 C 37.84375 -72.832031 37.820312 -73.347656 37.78125 -73.859375 C 37.75 -74.367188 37.640625 -74.832031 37.453125 -75.25 C 37.222656 -75.726562 36.789062 -76.097656 36.15625 -76.359375 C 35.519531 -76.628906 34.851562 -76.859375 34.15625 -77.046875 C 33.457031 -77.234375 32.832031 -77.429688 32.28125 -77.640625 C 31.738281 -77.847656 31.46875 -78.117188 31.46875 -78.453125 C 31.46875 -78.566406 31.535156 -78.726562 31.671875 -78.9375 C 31.804688 -79.144531 31.957031 -79.34375 32.125 -79.53125 C 32.289062 -79.71875 32.46875 -79.882812 32.65625 -80.03125 C 32.84375 -80.1875 33.015625 -80.265625 33.171875 -80.265625 C 33.242188 -80.265625 33.421875 -80.195312 33.703125 -80.0625 C 33.984375 -79.9375 34.160156 -79.875 34.234375 -79.875 C 34.347656 -79.875 34.5 -79.925781 34.6875 -80.03125 C 34.800781 -80.113281 34.894531 -80.191406 34.96875 -80.265625 C 35.082031 -80.296875 35.335938 -80.378906 35.734375 -80.515625 C 36.128906 -80.648438 36.550781 -80.800781 37 -80.96875 C 37.445312 -81.132812 37.882812 -81.28125 38.3125 -81.40625 C 38.75 -81.539062 39.0625 -81.628906 39.25 -81.671875 C 40.457031 -82.085938 41.632812 -82.539062 42.78125 -83.03125 C 43.925781 -83.519531 45.160156 -83.765625 46.484375 -83.765625 L 47.09375 -83.765625 C 47.507812 -83.765625 47.875 -83.707031 48.1875 -83.59375 C 48.507812 -83.476562 48.726562 -83.195312 48.84375 -82.75 L 48.84375 -79.703125 C 48.84375 -77.671875 48.757812 -75.648438 48.59375 -73.640625 C 48.425781 -71.628906 48.34375 -69.566406 48.34375 -67.453125 C 48.34375 -67.046875 48.359375 -66.726562 48.390625 -66.5 C 48.429688 -66.269531 48.582031 -65.894531 48.84375 -65.375 C 48.8125 -65.144531 48.773438 -64.75 48.734375 -64.1875 C 48.691406 -63.625 48.640625 -63.019531 48.578125 -62.375 C 48.523438 -61.738281 48.476562 -61.140625 48.4375 -60.578125 C 48.40625 -60.015625 48.375 -59.617188 48.34375 -59.390625 C 48.257812 -55.109375 48.207031 -50.832031 48.1875 -46.5625 C 48.175781 -42.289062 48.132812 -38.015625 48.0625 -33.734375 C 48.0625 -33.578125 48.039062 -33.226562 48 -32.6875 C 47.957031 -32.144531 47.910156 -31.539062 47.859375 -30.875 C 47.804688 -30.21875 47.757812 -29.617188 47.71875 -29.078125 C 47.675781 -28.535156 47.65625 -28.1875 47.65625 -28.03125 L 47.65625 -26.453125 C 47.65625 -23.441406 47.738281 -20.46875 47.90625 -17.53125 C 48.082031 -14.601562 48.132812 -11.632812 48.0625 -8.625 C 48.164062 -7.945312 48.453125 -7.421875 48.921875 -7.046875 C 49.398438 -6.671875 49.957031 -6.378906 50.59375 -6.171875 C 51.226562 -5.960938 51.882812 -5.835938 52.5625 -5.796875 C 53.238281 -5.765625 53.820312 -5.75 54.3125 -5.75 C 54.5 -5.71875 54.664062 -5.554688 54.8125 -5.265625 C 54.96875 -4.984375 55.046875 -4.804688 55.046875 -4.734375 C 55.046875 -4.546875 54.976562 -4.359375 54.84375 -4.171875 C 54.71875 -3.984375 54.5625 -3.8125 54.375 -3.65625 C 54.1875 -3.507812 54 -3.367188 53.8125 -3.234375 C 53.625 -3.109375 53.472656 -3.007812 53.359375 -2.9375 C 53.285156 -2.851562 53.097656 -2.785156 52.796875 -2.734375 C 52.492188 -2.679688 52.304688 -2.65625 52.234375 -2.65625 C 50.992188 -2.3125 49.769531 -1.960938 48.5625 -1.609375 C 47.363281 -1.253906 46.125 -0.90625 44.84375 -0.5625 C 44.09375 -0.332031 43.367188 -0.0859375 42.671875 0.171875 C 41.972656 0.429688 41.210938 0.5625 40.390625 0.5625 C 39.628906 0.5625 39.128906 0.300781 38.890625 -0.21875 C 38.648438 -0.75 38.476562 -1.320312 38.375 -1.9375 C 38.28125 -2.5625 38.195312 -3.132812 38.125 -3.65625 C 38.050781 -4.1875 37.828125 -4.453125 37.453125 -4.453125 C 37.378906 -4.453125 37.160156 -4.382812 36.796875 -4.25 C 36.441406 -4.125 36.191406 -4.039062 36.046875 -4 C 34.460938 -2.6875 32.785156 -1.597656 31.015625 -0.734375 C 29.253906 0.128906 27.359375 0.5625 25.328125 0.5625 C 22.546875 0.5625 19.96875 0.164062 17.59375 -0.625 C 15.226562 -1.414062 13.125 -2.914062 11.28125 -5.125 C 11.238281 -5.207031 11.203125 -5.304688 11.171875 -5.421875 C 11.097656 -5.566406 11.039062 -5.675781 11 -5.75 C 11 -5.789062 10.957031 -5.90625 10.875 -6.09375 C 10.800781 -6.28125 10.726562 -6.46875 10.65625 -6.65625 C 10.582031 -6.84375 10.507812 -7.019531 10.4375 -7.1875 C 10.363281 -7.363281 10.304688 -7.46875 10.265625 -7.5 C 10.265625 -7.539062 10.195312 -7.578125 10.0625 -7.609375 C 9.9375 -7.648438 9.785156 -7.6875 9.609375 -7.71875 C 9.441406 -7.757812 9.289062 -7.789062 9.15625 -7.8125 C 9.03125 -7.832031 8.945312 -7.84375 8.90625 -7.84375 C 8.269531 -8.175781 7.628906 -8.890625 6.984375 -9.984375 C 6.347656 -11.078125 5.765625 -12.289062 5.234375 -13.625 C 4.710938 -14.957031 4.289062 -16.257812 3.96875 -17.53125 C 3.65625 -18.8125 3.5 -19.789062 3.5 -20.46875 Z M 3.5 -20.46875 "/></g></g></g><g fill="#4d433a" fill-opacity="1"><g transform="translate(242.615181, 357.612277)"><g><path d="M 9.640625 -76.9375 C 9.640625 -77.644531 9.769531 -78.328125 10.03125 -78.984375 C 10.300781 -79.648438 10.660156 -80.226562 11.109375 -80.71875 C 11.554688 -81.207031 12.09375 -81.597656 12.71875 -81.890625 C 13.34375 -82.191406 14.03125 -82.34375 14.78125 -82.34375 C 15.488281 -82.34375 16.238281 -82.21875 17.03125 -81.96875 C 17.820312 -81.726562 18.554688 -81.382812 19.234375 -80.9375 C 19.910156 -80.488281 20.472656 -79.929688 20.921875 -79.265625 C 21.378906 -78.609375 21.609375 -77.867188 21.609375 -77.046875 C 21.609375 -75.921875 21.4375 -74.972656 21.09375 -74.203125 C 20.757812 -73.429688 20.289062 -72.8125 19.6875 -72.34375 C 19.082031 -71.875 18.359375 -71.523438 17.515625 -71.296875 C 16.671875 -71.066406 15.757812 -70.953125 14.78125 -70.953125 C 14.59375 -70.953125 14.253906 -70.96875 13.765625 -71 C 13.273438 -71.039062 12.953125 -71.0625 12.796875 -71.0625 C 11.828125 -71.820312 11.054688 -72.679688 10.484375 -73.640625 C 9.921875 -74.597656 9.640625 -75.695312 9.640625 -76.9375 Z M 1.40625 -1.359375 C 1.40625 -1.953125 1.800781 -2.332031 2.59375 -2.5 C 3.382812 -2.675781 4.273438 -2.789062 5.265625 -2.84375 C 6.265625 -2.90625 7.195312 -2.984375 8.0625 -3.078125 C 8.925781 -3.171875 9.453125 -3.441406 9.640625 -3.890625 C 9.941406 -4.640625 10.148438 -5.425781 10.265625 -6.25 C 10.378906 -7.082031 10.4375 -7.929688 10.4375 -8.796875 C 10.4375 -9.472656 10.414062 -10.148438 10.375 -10.828125 C 10.34375 -11.503906 10.328125 -12.160156 10.328125 -12.796875 L 10.328125 -13.765625 C 10.398438 -15.453125 10.53125 -17.132812 10.71875 -18.8125 C 10.90625 -20.488281 11.019531 -22.207031 11.0625 -23.96875 L 11.0625 -37.625 C 11.25 -38.03125 11.359375 -38.394531 11.390625 -38.71875 C 11.429688 -39.039062 11.453125 -39.410156 11.453125 -39.828125 C 11.453125 -40.347656 11.300781 -40.738281 11 -41 C 10.695312 -41.269531 10.335938 -41.457031 9.921875 -41.5625 C 9.515625 -41.675781 9.082031 -41.742188 8.625 -41.765625 C 8.175781 -41.785156 7.820312 -41.832031 7.5625 -41.90625 C 7.21875 -41.90625 6.859375 -41.941406 6.484375 -42.015625 C 6.109375 -42.097656 5.757812 -42.222656 5.4375 -42.390625 C 5.125 -42.554688 4.863281 -42.769531 4.65625 -43.03125 C 4.445312 -43.300781 4.34375 -43.625 4.34375 -44 C 4.34375 -44.375 4.4375 -44.664062 4.625 -44.875 C 4.8125 -45.082031 5.046875 -45.234375 5.328125 -45.328125 C 5.609375 -45.421875 5.910156 -45.484375 6.234375 -45.515625 C 6.554688 -45.554688 6.863281 -45.613281 7.15625 -45.6875 C 7.195312 -45.6875 7.328125 -45.722656 7.546875 -45.796875 C 7.773438 -45.867188 8.003906 -45.953125 8.234375 -46.046875 C 8.460938 -46.140625 8.675781 -46.222656 8.875 -46.296875 C 9.082031 -46.378906 9.207031 -46.421875 9.25 -46.421875 C 9.363281 -46.421875 9.609375 -46.4375 9.984375 -46.46875 C 10.359375 -46.507812 10.769531 -46.546875 11.21875 -46.578125 C 11.675781 -46.617188 12.09375 -46.660156 12.46875 -46.703125 C 12.84375 -46.742188 13.066406 -46.78125 13.140625 -46.8125 C 13.742188 -46.96875 14.375 -47.175781 15.03125 -47.4375 C 15.6875 -47.695312 16.332031 -47.957031 16.96875 -48.21875 C 17.613281 -48.488281 18.265625 -48.71875 18.921875 -48.90625 C 19.578125 -49.09375 20.242188 -49.1875 20.921875 -49.1875 L 21.375 -49.1875 C 21.71875 -49.1875 21.925781 -49.09375 22 -48.90625 L 22 -47.5 C 22 -45.382812 21.847656 -43.3125 21.546875 -41.28125 C 21.242188 -39.25 21.09375 -37.179688 21.09375 -35.078125 C 21.09375 -34.253906 21.175781 -33.515625 21.34375 -32.859375 C 21.519531 -32.203125 21.609375 -31.515625 21.609375 -30.796875 C 21.609375 -30.453125 21.597656 -30.175781 21.578125 -29.96875 C 21.554688 -29.769531 21.472656 -29.5 21.328125 -29.15625 C 21.359375 -26.226562 21.28125 -23.296875 21.09375 -20.359375 C 20.90625 -17.429688 20.8125 -14.5 20.8125 -11.5625 L 20.8125 -9.59375 C 20.8125 -8.613281 20.828125 -7.660156 20.859375 -6.734375 C 20.898438 -5.816406 21.054688 -4.867188 21.328125 -3.890625 C 21.546875 -3.554688 21.785156 -3.3125 22.046875 -3.15625 C 22.316406 -3.007812 22.597656 -2.90625 22.890625 -2.84375 C 23.191406 -2.789062 23.507812 -2.753906 23.84375 -2.734375 C 24.1875 -2.710938 24.566406 -2.628906 24.984375 -2.484375 C 25.097656 -2.484375 25.265625 -2.4375 25.484375 -2.34375 C 25.710938 -2.25 25.957031 -2.144531 26.21875 -2.03125 C 26.488281 -1.914062 26.742188 -1.800781 26.984375 -1.6875 C 27.234375 -1.570312 27.429688 -1.476562 27.578125 -1.40625 L 27.921875 -1.125 L 27.921875 -0.84375 C 27.921875 -0.65625 27.832031 -0.503906 27.65625 -0.390625 C 27.488281 -0.273438 27.300781 -0.191406 27.09375 -0.140625 C 26.894531 -0.0859375 26.691406 -0.0507812 26.484375 -0.03125 C 26.273438 -0.0078125 26.148438 0 26.109375 0 C 22.460938 -0.0703125 18.832031 -0.0234375 15.21875 0.140625 C 11.613281 0.304688 7.988281 0.390625 4.34375 0.390625 C 4.039062 0.390625 3.71875 0.378906 3.375 0.359375 C 3.039062 0.347656 2.734375 0.285156 2.453125 0.171875 C 2.171875 0.0546875 1.925781 -0.109375 1.71875 -0.328125 C 1.507812 -0.554688 1.40625 -0.898438 1.40625 -1.359375 Z M 1.40625 -1.359375 "/></g></g></g><g fill="#4d433a" fill-opacity="1"><g transform="translate(273.354304, 357.612277)"><g><path d="M 14.71875 -36.21875 C 14.71875 -36.132812 14.765625 -36.046875 14.859375 -35.953125 C 14.953125 -35.859375 15.035156 -35.8125 15.109375 -35.8125 C 15.222656 -35.78125 15.394531 -35.742188 15.625 -35.703125 C 15.851562 -35.660156 16.097656 -35.617188 16.359375 -35.578125 C 16.617188 -35.546875 16.859375 -35.507812 17.078125 -35.46875 C 17.304688 -35.4375 17.460938 -35.421875 17.546875 -35.421875 L 32.265625 -35.421875 C 32.898438 -35.421875 33.523438 -35.597656 34.140625 -35.953125 C 34.765625 -36.316406 35.078125 -36.875 35.078125 -37.625 C 35.078125 -38.632812 34.914062 -39.617188 34.59375 -40.578125 C 34.28125 -41.535156 33.84375 -42.4375 33.28125 -43.28125 C 32.71875 -44.132812 32.050781 -44.890625 31.28125 -45.546875 C 30.507812 -46.203125 29.671875 -46.71875 28.765625 -47.09375 C 28.347656 -47.28125 28.023438 -47.492188 27.796875 -47.734375 C 27.578125 -47.984375 27.222656 -48.109375 26.734375 -48.109375 C 25.492188 -48.109375 24.164062 -47.785156 22.75 -47.140625 C 21.34375 -46.503906 20.035156 -45.679688 18.828125 -44.671875 C 17.628906 -43.660156 16.625 -42.523438 15.8125 -41.265625 C 15.007812 -40.003906 14.609375 -38.753906 14.609375 -37.515625 C 14.609375 -37.359375 14.625 -37.117188 14.65625 -36.796875 C 14.695312 -36.484375 14.71875 -36.289062 14.71875 -36.21875 Z M 4.234375 -24.140625 C 4.046875 -24.398438 3.910156 -24.691406 3.828125 -25.015625 C 3.753906 -25.335938 3.71875 -25.648438 3.71875 -25.953125 C 3.71875 -26.242188 3.734375 -26.507812 3.765625 -26.75 C 3.804688 -27 3.828125 -27.21875 3.828125 -27.40625 L 3.828125 -29.15625 C 3.828125 -29.238281 3.863281 -29.421875 3.9375 -29.703125 C 4.019531 -29.984375 4.117188 -30.289062 4.234375 -30.625 C 4.347656 -30.96875 4.457031 -31.296875 4.5625 -31.609375 C 4.675781 -31.929688 4.769531 -32.164062 4.84375 -32.3125 C 4.84375 -32.394531 4.957031 -32.578125 5.1875 -32.859375 C 5.414062 -33.140625 5.53125 -33.296875 5.53125 -33.328125 C 5.789062 -34.191406 5.957031 -35.054688 6.03125 -35.921875 C 6.101562 -36.796875 6.40625 -37.585938 6.9375 -38.296875 C 7.007812 -38.367188 7.148438 -38.523438 7.359375 -38.765625 C 7.566406 -39.015625 7.789062 -39.28125 8.03125 -39.5625 C 8.28125 -39.84375 8.507812 -40.097656 8.71875 -40.328125 C 8.925781 -40.554688 9.066406 -40.6875 9.140625 -40.71875 C 9.210938 -40.832031 9.320312 -41.085938 9.46875 -41.484375 C 9.625 -41.878906 9.738281 -42.113281 9.8125 -42.1875 C 10.039062 -42.5625 10.425781 -42.890625 10.96875 -43.171875 C 11.507812 -43.453125 11.929688 -43.726562 12.234375 -44 C 12.722656 -44.375 13.203125 -44.796875 13.671875 -45.265625 C 14.148438 -45.734375 14.625 -46.203125 15.09375 -46.671875 C 15.5625 -47.140625 16.046875 -47.570312 16.546875 -47.96875 C 17.054688 -48.363281 17.613281 -48.675781 18.21875 -48.90625 C 19.082031 -49.207031 19.984375 -49.453125 20.921875 -49.640625 C 21.867188 -49.828125 22.773438 -49.921875 23.640625 -49.921875 C 24.765625 -49.921875 26.003906 -49.898438 27.359375 -49.859375 C 28.710938 -49.828125 29.878906 -49.734375 30.859375 -49.578125 C 31.566406 -49.460938 32.46875 -49.179688 33.5625 -48.734375 C 34.65625 -48.285156 35.734375 -47.75 36.796875 -47.125 C 37.867188 -46.5 38.859375 -45.835938 39.765625 -45.140625 C 40.671875 -44.453125 41.328125 -43.804688 41.734375 -43.203125 C 42.109375 -42.640625 42.539062 -41.984375 43.03125 -41.234375 C 43.519531 -40.484375 43.976562 -39.679688 44.40625 -38.828125 C 44.84375 -37.984375 45.210938 -37.15625 45.515625 -36.34375 C 45.816406 -35.539062 45.96875 -34.800781 45.96875 -34.125 C 45.96875 -33.03125 45.5 -32.203125 44.5625 -31.640625 C 44.300781 -31.640625 43.820312 -31.617188 43.125 -31.578125 C 42.425781 -31.546875 41.679688 -31.5 40.890625 -31.4375 C 40.097656 -31.382812 39.34375 -31.335938 38.625 -31.296875 C 37.914062 -31.265625 37.429688 -31.25 37.171875 -31.25 L 32.9375 -31.25 C 31.132812 -31.25 29.382812 -31.34375 27.6875 -31.53125 C 26 -31.71875 24.269531 -31.847656 22.5 -31.921875 L 19.625 -31.921875 C 19.550781 -31.921875 19.328125 -31.984375 18.953125 -32.109375 C 18.578125 -32.242188 18.332031 -32.3125 18.21875 -32.3125 C 18.070312 -32.351562 17.816406 -32.398438 17.453125 -32.453125 C 17.097656 -32.515625 16.710938 -32.582031 16.296875 -32.65625 C 15.890625 -32.726562 15.492188 -32.789062 15.109375 -32.84375 C 14.734375 -32.90625 14.472656 -32.957031 14.328125 -33 C 14.023438 -32.925781 13.710938 -32.742188 13.390625 -32.453125 C 13.078125 -32.171875 12.828125 -31.898438 12.640625 -31.640625 C 12.597656 -31.523438 12.554688 -31.304688 12.515625 -30.984375 C 12.484375 -30.671875 12.445312 -30.316406 12.40625 -29.921875 C 12.375 -29.523438 12.335938 -29.148438 12.296875 -28.796875 C 12.253906 -28.441406 12.234375 -28.1875 12.234375 -28.03125 L 12.234375 -27.75 C 12.273438 -27.632812 12.332031 -27.519531 12.40625 -27.40625 C 12.476562 -27.144531 12.554688 -27.015625 12.640625 -27.015625 C 12.640625 -26.941406 12.75 -26.765625 12.96875 -26.484375 C 13.195312 -26.203125 13.3125 -26.023438 13.3125 -25.953125 C 13.238281 -25.867188 13.179688 -25.769531 13.140625 -25.65625 L 13.03125 -25.328125 L 13.03125 -24.421875 C 13.03125 -23.898438 13.09375 -23.457031 13.21875 -23.09375 C 13.351562 -22.738281 13.515625 -22.28125 13.703125 -21.71875 C 14.117188 -20.175781 14.625 -18.742188 15.21875 -17.421875 C 15.820312 -16.109375 16.597656 -14.757812 17.546875 -13.375 C 17.847656 -12.882812 18.15625 -12.582031 18.46875 -12.46875 C 18.789062 -12.351562 19.175781 -12.179688 19.625 -11.953125 C 19.695312 -11.878906 19.875 -11.765625 20.15625 -11.609375 C 20.445312 -11.460938 20.628906 -11.351562 20.703125 -11.28125 C 22.171875 -10.039062 23.75 -9.082031 25.4375 -8.40625 C 27.125 -7.726562 28.945312 -7.390625 30.90625 -7.390625 C 31.25 -7.390625 31.53125 -7.4375 31.75 -7.53125 C 31.976562 -7.625 32.195312 -7.726562 32.40625 -7.84375 C 32.613281 -7.957031 32.8125 -8.066406 33 -8.171875 C 33.1875 -8.285156 33.410156 -8.378906 33.671875 -8.453125 L 35.359375 -8.453125 C 35.960938 -8.535156 36.546875 -8.675781 37.109375 -8.875 C 37.671875 -9.082031 38.222656 -9.289062 38.765625 -9.5 C 39.316406 -9.707031 39.875 -9.894531 40.4375 -10.0625 C 41 -10.238281 41.582031 -10.328125 42.1875 -10.328125 C 42.1875 -10.054688 42.175781 -9.851562 42.15625 -9.71875 C 42.144531 -9.59375 42.109375 -9.472656 42.046875 -9.359375 C 41.992188 -9.242188 41.921875 -9.117188 41.828125 -8.984375 C 41.734375 -8.859375 41.609375 -8.679688 41.453125 -8.453125 C 40.890625 -7.554688 40.351562 -6.832031 39.84375 -6.28125 C 39.34375 -5.738281 38.804688 -5.257812 38.234375 -4.84375 C 37.671875 -4.4375 37.039062 -4.050781 36.34375 -3.6875 C 35.65625 -3.332031 34.859375 -2.929688 33.953125 -2.484375 C 33.691406 -2.328125 33.484375 -2.179688 33.328125 -2.046875 C 33.179688 -1.921875 33.023438 -1.800781 32.859375 -1.6875 C 32.691406 -1.570312 32.503906 -1.457031 32.296875 -1.34375 C 32.085938 -1.238281 31.8125 -1.128906 31.46875 -1.015625 C 31.320312 -0.972656 31.113281 -0.953125 30.84375 -0.953125 C 30.582031 -0.953125 30.320312 -0.925781 30.0625 -0.875 C 29.800781 -0.820312 29.546875 -0.726562 29.296875 -0.59375 C 29.054688 -0.457031 28.878906 -0.257812 28.765625 0 L 25.046875 0 C 22.597656 0 20.347656 -0.242188 18.296875 -0.734375 C 16.253906 -1.222656 14.234375 -2.273438 12.234375 -3.890625 C 10.546875 -5.203125 9.164062 -6.816406 8.09375 -8.734375 C 7.019531 -10.660156 6.164062 -12.675781 5.53125 -14.78125 C 5.457031 -14.851562 5.398438 -14.945312 5.359375 -15.0625 C 5.285156 -15.28125 5.25 -15.445312 5.25 -15.5625 C 5.132812 -15.75 5.019531 -16.007812 4.90625 -16.34375 C 4.789062 -16.6875 4.6875 -17.023438 4.59375 -17.359375 C 4.5 -17.703125 4.414062 -17.992188 4.34375 -18.234375 C 4.269531 -18.484375 4.234375 -18.628906 4.234375 -18.671875 C 4.160156 -18.859375 4.101562 -19.222656 4.0625 -19.765625 C 4.019531 -20.316406 4 -20.875 4 -21.4375 C 4 -22 4.019531 -22.539062 4.0625 -23.0625 C 4.101562 -23.59375 4.160156 -23.953125 4.234375 -24.140625 Z M 4.234375 -24.140625 "/></g></g></g><g fill="#4d433a" fill-opacity="1"><g transform="translate(321.634452, 357.612277)"><g><path d="M 21.09375 -43.203125 C 21.164062 -43.203125 21.238281 -43.0625 21.3125 -42.78125 C 21.394531 -42.5 21.492188 -42.171875 21.609375 -41.796875 C 21.828125 -41.003906 22.144531 -40.238281 22.5625 -39.5 C 22.976562 -38.769531 23.421875 -38.039062 23.890625 -37.3125 C 24.359375 -36.582031 24.828125 -35.859375 25.296875 -35.140625 C 25.765625 -34.421875 26.171875 -33.707031 26.515625 -33 L 27.1875 -33 C 28.164062 -33 28.984375 -33.375 29.640625 -34.125 C 30.296875 -34.875 30.773438 -35.679688 31.078125 -36.546875 C 31.078125 -36.585938 31.113281 -36.726562 31.1875 -36.96875 C 31.257812 -37.21875 31.320312 -37.484375 31.375 -37.765625 C 31.4375 -38.046875 31.503906 -38.304688 31.578125 -38.546875 C 31.660156 -38.796875 31.703125 -38.957031 31.703125 -39.03125 C 31.773438 -39.101562 31.941406 -39.269531 32.203125 -39.53125 C 32.472656 -39.800781 32.75 -40.09375 33.03125 -40.40625 C 33.3125 -40.726562 33.5625 -41.019531 33.78125 -41.28125 C 34.007812 -41.550781 34.144531 -41.722656 34.1875 -41.796875 C 34.375 -42.023438 34.503906 -42.34375 34.578125 -42.75 C 34.648438 -43.164062 34.6875 -43.539062 34.6875 -43.875 C 34.6875 -44.40625 34.457031 -44.800781 34 -45.0625 C 33.550781 -45.332031 33.046875 -45.566406 32.484375 -45.765625 C 31.921875 -45.972656 31.410156 -46.21875 30.953125 -46.5 C 30.503906 -46.78125 30.28125 -47.222656 30.28125 -47.828125 C 30.28125 -48.359375 30.476562 -48.90625 30.875 -49.46875 C 31.269531 -50.03125 31.804688 -50.3125 32.484375 -50.3125 L 42.359375 -50.3125 C 42.804688 -50.457031 43.226562 -50.539062 43.625 -50.5625 C 44.019531 -50.582031 44.484375 -50.59375 45.015625 -50.59375 L 45.75 -50.59375 C 46.269531 -50.59375 46.820312 -50.535156 47.40625 -50.421875 C 47.988281 -50.304688 48.28125 -49.988281 48.28125 -49.46875 C 48.28125 -48.820312 48.109375 -48.253906 47.765625 -47.765625 C 47.429688 -47.285156 47.019531 -46.847656 46.53125 -46.453125 C 46.039062 -46.054688 45.515625 -45.707031 44.953125 -45.40625 C 44.390625 -45.101562 43.863281 -44.835938 43.375 -44.609375 C 43.332031 -44.609375 43.207031 -44.570312 43 -44.5 C 42.800781 -44.425781 42.585938 -44.359375 42.359375 -44.296875 C 42.128906 -44.242188 41.898438 -44.179688 41.671875 -44.109375 C 41.453125 -44.035156 41.320312 -44 41.28125 -44 L 40.890625 -43.59375 C 40.703125 -43.332031 40.4375 -42.984375 40.09375 -42.546875 C 39.757812 -42.117188 39.554688 -41.867188 39.484375 -41.796875 C 39.484375 -41.753906 39.414062 -41.609375 39.28125 -41.359375 C 39.15625 -41.117188 39.015625 -40.859375 38.859375 -40.578125 C 38.710938 -40.296875 38.5625 -40.03125 38.40625 -39.78125 C 38.257812 -39.539062 38.148438 -39.382812 38.078125 -39.3125 C 38.035156 -39.269531 37.9375 -39.164062 37.78125 -39 C 37.632812 -38.832031 37.457031 -38.65625 37.25 -38.46875 C 37.039062 -38.28125 36.851562 -38.097656 36.6875 -37.921875 C 36.519531 -37.753906 36.414062 -37.65625 36.375 -37.625 C 36.269531 -37.550781 36.082031 -37.269531 35.8125 -36.78125 C 35.550781 -36.289062 35.382812 -35.96875 35.3125 -35.8125 C 34.75 -35.175781 34.179688 -34.566406 33.609375 -33.984375 C 33.046875 -33.398438 32.5 -32.804688 31.96875 -32.203125 C 31.445312 -31.597656 30.953125 -30.957031 30.484375 -30.28125 C 30.015625 -29.613281 29.613281 -28.863281 29.28125 -28.03125 C 29.351562 -27.988281 29.441406 -27.875 29.546875 -27.6875 C 29.660156 -27.5 29.765625 -27.289062 29.859375 -27.0625 C 29.953125 -26.84375 30.046875 -26.628906 30.140625 -26.421875 C 30.234375 -26.210938 30.28125 -26.054688 30.28125 -25.953125 C 30.695312 -25.191406 31.175781 -24.539062 31.71875 -24 C 32.269531 -23.457031 32.753906 -22.847656 33.171875 -22.171875 C 33.242188 -22.085938 33.382812 -21.875 33.59375 -21.53125 C 33.800781 -21.195312 34.023438 -20.832031 34.265625 -20.4375 C 34.503906 -20.050781 34.726562 -19.6875 34.9375 -19.34375 C 35.144531 -19.007812 35.269531 -18.785156 35.3125 -18.671875 C 35.945312 -17.617188 36.507812 -16.472656 37 -15.234375 C 37.488281 -13.992188 38.09375 -12.898438 38.8125 -11.953125 C 38.882812 -11.878906 39.117188 -11.710938 39.515625 -11.453125 C 39.910156 -11.191406 40.160156 -11.003906 40.265625 -10.890625 C 40.535156 -10.359375 40.742188 -9.929688 40.890625 -9.609375 C 41.046875 -9.296875 41.175781 -9.046875 41.28125 -8.859375 C 41.394531 -8.671875 41.488281 -8.535156 41.5625 -8.453125 C 41.644531 -8.378906 41.78125 -8.238281 41.96875 -8.03125 C 42.15625 -7.832031 42.34375 -7.617188 42.53125 -7.390625 C 42.71875 -7.160156 42.894531 -6.941406 43.0625 -6.734375 C 43.226562 -6.535156 43.332031 -6.414062 43.375 -6.375 C 43.488281 -6.257812 43.617188 -6.125 43.765625 -5.96875 C 43.921875 -5.820312 44.070312 -5.664062 44.21875 -5.5 C 44.375 -5.332031 44.503906 -5.191406 44.609375 -5.078125 C 44.722656 -4.960938 44.78125 -4.90625 44.78125 -4.90625 C 44.820312 -4.90625 44.953125 -4.882812 45.171875 -4.84375 C 45.398438 -4.8125 45.625 -4.773438 45.84375 -4.734375 C 46.070312 -4.703125 46.289062 -4.664062 46.5 -4.625 C 46.707031 -4.582031 46.832031 -4.5625 46.875 -4.5625 C 47.507812 -4.414062 48.144531 -4.144531 48.78125 -3.75 C 49.425781 -3.351562 49.75 -2.800781 49.75 -2.09375 C 49.75 -1.601562 49.671875 -1.207031 49.515625 -0.90625 C 49.367188 -0.601562 49.085938 -0.300781 48.671875 0 L 45.015625 0 C 42.941406 0 40.90625 -0.0703125 38.90625 -0.21875 C 36.914062 -0.375 34.867188 -0.429688 32.765625 -0.390625 L 32.65625 -0.390625 C 32.507812 -0.390625 32.238281 -0.351562 31.84375 -0.28125 C 31.445312 -0.207031 31.117188 -0.171875 30.859375 -0.171875 L 30.125 -0.171875 C 29.96875 -0.171875 29.785156 -0.171875 29.578125 -0.171875 C 29.378906 -0.171875 29.179688 -0.207031 28.984375 -0.28125 C 28.910156 -0.394531 28.859375 -0.507812 28.828125 -0.625 C 28.742188 -0.695312 28.691406 -0.769531 28.671875 -0.84375 C 28.660156 -0.914062 28.632812 -0.972656 28.59375 -1.015625 L 28.59375 -1.359375 C 28.59375 -1.617188 28.757812 -1.832031 29.09375 -2 C 29.4375 -2.164062 29.820312 -2.351562 30.25 -2.5625 C 30.6875 -2.769531 31.070312 -3.023438 31.40625 -3.328125 C 31.75 -3.628906 31.921875 -4.039062 31.921875 -4.5625 C 31.921875 -4.644531 31.882812 -4.722656 31.8125 -4.796875 L 31.703125 -4.90625 C 31.703125 -5.050781 31.660156 -5.253906 31.578125 -5.515625 C 31.503906 -5.785156 31.4375 -6.050781 31.375 -6.3125 C 31.320312 -6.582031 31.257812 -6.816406 31.1875 -7.015625 C 31.113281 -7.222656 31.078125 -7.347656 31.078125 -7.390625 C 31.003906 -7.535156 30.816406 -7.878906 30.515625 -8.421875 C 30.210938 -8.972656 29.875 -9.566406 29.5 -10.203125 C 29.125 -10.847656 28.773438 -11.441406 28.453125 -11.984375 C 28.128906 -12.523438 27.929688 -12.890625 27.859375 -13.078125 C 27.671875 -13.421875 27.453125 -13.835938 27.203125 -14.328125 C 26.960938 -14.816406 26.691406 -15.3125 26.390625 -15.8125 C 26.097656 -16.320312 25.78125 -16.789062 25.4375 -17.21875 C 25.101562 -17.65625 24.765625 -18.007812 24.421875 -18.28125 C 23.328125 -17.300781 22.347656 -16.195312 21.484375 -14.96875 C 20.617188 -13.75 19.867188 -12.519531 19.234375 -11.28125 C 19.160156 -11.238281 19.078125 -11.113281 18.984375 -10.90625 C 18.890625 -10.707031 18.785156 -10.472656 18.671875 -10.203125 C 18.554688 -9.941406 18.453125 -9.679688 18.359375 -9.421875 C 18.265625 -9.160156 18.179688 -8.953125 18.109375 -8.796875 C 17.953125 -8.460938 17.769531 -8.15625 17.5625 -7.875 C 17.363281 -7.59375 17.175781 -7.304688 17 -7.015625 C 16.832031 -6.734375 16.679688 -6.429688 16.546875 -6.109375 C 16.421875 -5.796875 16.359375 -5.429688 16.359375 -5.015625 C 16.359375 -4.828125 16.453125 -4.609375 16.640625 -4.359375 C 16.828125 -4.117188 17.039062 -3.867188 17.28125 -3.609375 C 17.53125 -3.347656 17.796875 -3.113281 18.078125 -2.90625 C 18.359375 -2.695312 18.613281 -2.554688 18.84375 -2.484375 L 19.859375 -2.484375 C 20.265625 -2.410156 20.664062 -2.191406 21.0625 -1.828125 C 21.457031 -1.472656 21.65625 -1.085938 21.65625 -0.671875 C 21.65625 -0.265625 21.429688 0.0546875 20.984375 0.296875 C 20.535156 0.546875 20.101562 0.671875 19.6875 0.671875 L 19.234375 0.671875 C 16.867188 0.410156 14.507812 0.25 12.15625 0.1875 C 9.800781 0.132812 7.441406 0.0703125 5.078125 0 C 4.734375 -0.0390625 4.410156 -0.0625 4.109375 -0.0625 C 3.816406 -0.0625 3.554688 -0.0976562 3.328125 -0.171875 C 3.097656 -0.242188 2.90625 -0.363281 2.75 -0.53125 C 2.601562 -0.707031 2.53125 -1 2.53125 -1.40625 C 2.53125 -1.894531 2.671875 -2.289062 2.953125 -2.59375 C 3.242188 -2.894531 3.601562 -3.140625 4.03125 -3.328125 C 4.46875 -3.515625 4.910156 -3.671875 5.359375 -3.796875 C 5.804688 -3.929688 6.203125 -4.09375 6.546875 -4.28125 C 7.929688 -4.882812 9.078125 -5.523438 9.984375 -6.203125 C 10.890625 -6.878906 11.695312 -7.617188 12.40625 -8.421875 C 13.125 -9.234375 13.828125 -10.097656 14.515625 -11.015625 C 15.210938 -11.941406 16.050781 -12.96875 17.03125 -14.09375 L 18.109375 -15.171875 C 18.140625 -15.171875 18.257812 -15.234375 18.46875 -15.359375 C 18.675781 -15.492188 18.898438 -15.632812 19.140625 -15.78125 C 19.390625 -15.9375 19.617188 -16.085938 19.828125 -16.234375 C 20.035156 -16.390625 20.175781 -16.503906 20.25 -16.578125 C 20.289062 -16.765625 20.328125 -16.9375 20.359375 -17.09375 C 20.429688 -17.351562 20.523438 -17.519531 20.640625 -17.59375 C 20.679688 -17.707031 20.773438 -17.929688 20.921875 -18.265625 C 21.078125 -18.609375 21.238281 -18.96875 21.40625 -19.34375 C 21.570312 -19.71875 21.738281 -20.070312 21.90625 -20.40625 C 22.082031 -20.75 22.226562 -21 22.34375 -21.15625 L 22.34375 -21.890625 C 22 -23.015625 21.515625 -24.113281 20.890625 -25.1875 C 20.273438 -26.257812 19.597656 -27.3125 18.859375 -28.34375 C 18.128906 -29.375 17.378906 -30.394531 16.609375 -31.40625 C 15.835938 -32.425781 15.148438 -33.425781 14.546875 -34.40625 C 14.515625 -34.476562 14.457031 -34.65625 14.375 -34.9375 C 14.300781 -35.21875 14.265625 -35.378906 14.265625 -35.421875 C 13.472656 -37.109375 12.644531 -38.617188 11.78125 -39.953125 C 10.914062 -41.296875 10.070312 -42.703125 9.25 -44.171875 C 9.0625 -44.390625 8.910156 -44.601562 8.796875 -44.8125 C 8.679688 -45.019531 8.625 -45.273438 8.625 -45.578125 C 8.507812 -45.609375 8.3125 -45.648438 8.03125 -45.703125 C 7.75 -45.765625 7.457031 -45.832031 7.15625 -45.90625 C 6.863281 -45.988281 6.582031 -46.066406 6.3125 -46.140625 C 6.050781 -46.210938 5.863281 -46.285156 5.75 -46.359375 C 5.53125 -46.398438 5.191406 -46.476562 4.734375 -46.59375 C 4.285156 -46.707031 3.828125 -46.847656 3.359375 -47.015625 C 2.890625 -47.179688 2.472656 -47.382812 2.109375 -47.625 C 1.753906 -47.875 1.578125 -48.164062 1.578125 -48.5 L 1.578125 -48.796875 L 1.6875 -48.90625 C 1.800781 -49.019531 1.894531 -49.078125 1.96875 -49.078125 C 2.125 -49.222656 2.367188 -49.390625 2.703125 -49.578125 C 3.046875 -49.765625 3.234375 -49.859375 3.265625 -49.859375 L 13.25 -49.859375 C 13.332031 -49.742188 13.585938 -49.648438 14.015625 -49.578125 C 14.453125 -49.503906 14.765625 -49.46875 14.953125 -49.46875 C 15.023438 -49.46875 15.203125 -49.53125 15.484375 -49.65625 C 15.765625 -49.789062 15.941406 -49.859375 16.015625 -49.859375 L 17.421875 -49.859375 C 18.367188 -49.859375 19.242188 -49.835938 20.046875 -49.796875 C 20.859375 -49.765625 21.753906 -49.65625 22.734375 -49.46875 C 23.035156 -49.394531 23.222656 -49.316406 23.296875 -49.234375 C 23.367188 -49.160156 23.40625 -49.050781 23.40625 -48.90625 L 23.40625 -48.390625 C 23.40625 -47.984375 23.300781 -47.644531 23.09375 -47.375 C 22.882812 -47.113281 22.628906 -46.90625 22.328125 -46.75 C 22.035156 -46.601562 21.695312 -46.5 21.3125 -46.4375 C 20.9375 -46.382812 20.582031 -46.359375 20.25 -46.359375 C 20.25 -46.285156 20.238281 -46.226562 20.21875 -46.1875 C 20.195312 -46.15625 20.1875 -46.101562 20.1875 -46.03125 L 20.1875 -45.40625 C 20.1875 -45.332031 20.207031 -45.257812 20.25 -45.1875 C 20.25 -45.144531 20.285156 -45.03125 20.359375 -44.84375 C 20.429688 -44.65625 20.523438 -44.445312 20.640625 -44.21875 C 20.753906 -43.988281 20.859375 -43.78125 20.953125 -43.59375 C 21.046875 -43.40625 21.09375 -43.273438 21.09375 -43.203125 Z M 21.09375 -43.203125 "/></g></g></g></svg>