<svg xmlns="http://www.w3.org/2000/svg" xmlns:xlink="http://www.w3.org/1999/xlink" width="500" zoomAndPan="magnify" viewBox="0 0 375 374.999991" height="500" preserveAspectRatio="xMidYMid meet" version="1.0"><defs><clipPath id="e0c9a9249b"><path d="M 34.339844 134.167969 L 270.589844 134.167969 L 270.589844 370.417969 L 34.339844 370.417969 Z M 34.339844 134.167969 " clip-rule="nonzero"/></clipPath><clipPath id="3ff918e05a"><path d="M 54 4.324219 L 340.980469 4.324219 L 340.980469 235 L 54 235 Z M 54 4.324219 " clip-rule="nonzero"/></clipPath></defs><g clip-path="url(#e0c9a9249b)"><path fill="#f1f1f1" d="M 152.636719 134.128906 C 217.949219 134.128906 270.890625 187.074219 270.890625 252.382812 C 270.890625 302.226562 240.046875 344.863281 196.40625 362.265625 L 194.679688 325.003906 L 194.679688 324.933594 C 194.773438 317.5625 197.886719 311.757812 204.789062 308.835938 L 205.675781 308.480469 L 205.722656 308.464844 L 205.78125 308.441406 L 205.867188 308.410156 C 210.949219 306.351562 215.089844 303.578125 217.910156 298.78125 C 221.433594 292.804688 222.113281 284.835938 222.113281 278.058594 C 222.113281 265.027344 218.273438 249.640625 211.65625 238.375 C 206.953125 230.371094 199.53125 222.269531 189.515625 222.269531 C 179.5 222.269531 172.082031 230.371094 167.378906 238.375 C 160.757812 249.640625 156.917969 265.027344 156.917969 278.058594 C 156.917969 284.84375 157.597656 292.8125 161.125 298.78125 C 163.972656 303.609375 168.160156 306.390625 173.269531 308.449219 C 173.410156 308.503906 173.554688 308.566406 173.695312 308.621094 L 173.734375 308.621094 L 174.179688 308.8125 C 181.109375 311.726562 184.257812 317.46875 184.355469 324.933594 L 184.355469 325.003906 L 182.414062 366.859375 C 172.898438 369.328125 162.921875 370.644531 152.636719 370.644531 C 141.984375 370.644531 131.667969 369.226562 121.851562 366.589844 L 120.035156 327.402344 L 120.035156 327.316406 C 120.132812 319.761719 123.355469 313.808594 130.425781 310.816406 L 131.328125 310.460938 L 131.359375 310.453125 L 131.390625 310.4375 L 131.496094 310.398438 C 136.484375 308.378906 140.550781 305.660156 143.324219 300.949219 C 146.800781 295.050781 147.464844 287.140625 147.464844 280.449219 C 147.464844 279.800781 147.441406 279.152344 147.402344 278.503906 C 147.378906 278.132812 147.347656 277.757812 147.296875 277.394531 L 147.234375 276.847656 L 147.339844 276.476562 L 143.039062 226.457031 L 138.542969 226.46875 L 138.152344 279.328125 L 130.664062 280.070312 L 126.214844 220.324219 L 121.335938 220.617188 L 120.371094 280.808594 L 117.71875 280.917969 C 117.164062 280.941406 116.609375 280.949219 116.0625 280.949219 C 115.507812 280.949219 114.945312 280.941406 114.390625 280.917969 L 111.753906 280.808594 L 110.402344 220.617188 L 105.523438 220.332031 L 101.460938 280.078125 L 93.964844 279.335938 L 93.582031 226.46875 L 89.0625 226.46875 L 83.25 276.5 L 83.34375 276.855469 L 83.28125 277.386719 C 83.242188 277.757812 83.210938 278.132812 83.1875 278.503906 C 83.148438 279.152344 83.125 279.800781 83.125 280.449219 C 83.125 287.140625 83.789062 295.050781 87.265625 300.949219 C 90.058594 305.703125 94.175781 308.417969 99.195312 310.4375 C 99.316406 310.484375 99.433594 310.53125 99.546875 310.578125 L 99.585938 310.578125 L 100.109375 310.800781 C 107.195312 313.785156 110.449219 319.675781 110.550781 327.316406 L 110.550781 327.402344 L 108.9375 362.320312 C 65.238281 344.949219 34.347656 302.28125 34.347656 252.390625 C 34.382812 187.066406 87.320312 134.128906 152.636719 134.128906 " fill-opacity="1" fill-rule="evenodd"/></g><path fill="#f6f5f4" d="M 198.503906 60.089844 C 200.609375 60.089844 200.609375 56.792969 198.503906 56.792969 C 196.398438 56.792969 196.398438 60.089844 198.503906 60.089844 Z M 198.503906 60.089844 " fill-opacity="1" fill-rule="nonzero"/><g clip-path="url(#3ff918e05a)"><path fill="#ffa500" d="M 62.320312 48.71875 C 64.074219 44.859375 66.109375 40.925781 68.777344 37.066406 C 71.375 33.207031 74.460938 29.273438 78.535156 25.484375 C 80.570312 23.589844 82.886719 21.691406 85.484375 19.9375 C 86.605469 19.164062 87.589844 18.535156 88.714844 17.832031 C 89.765625 17.128906 90.890625 16.5 92.011719 15.867188 C 96.503906 13.269531 101.417969 10.882812 106.894531 8.917969 C 112.300781 6.953125 118.265625 5.476562 124.304688 4.84375 C 125.847656 4.707031 127.320312 4.566406 128.867188 4.496094 C 130.410156 4.425781 131.886719 4.425781 133.359375 4.496094 C 136.378906 4.566406 139.253906 4.914062 142.0625 5.40625 C 147.679688 6.390625 152.734375 8.003906 157.296875 10.039062 C 161.789062 12.074219 165.789062 14.390625 169.371094 16.917969 C 171.125 18.183594 172.878906 19.515625 174.496094 20.851562 C 176.109375 22.183594 177.652344 23.589844 179.058594 24.992188 C 180.53125 26.394531 181.9375 27.800781 183.269531 29.273438 C 183.972656 29.976562 184.605469 30.75 185.234375 31.449219 L 186.21875 32.574219 L 187.058594 33.625 C 188.183594 34.960938 189.238281 36.222656 190.359375 37.558594 L 192.042969 39.523438 L 193.800781 41.488281 C 202.433594 51.035156 211.769531 60.441406 221.386719 69.777344 C 222.863281 69.429688 224.335938 69.148438 225.878906 68.9375 C 227.84375 68.585938 229.8125 68.375 231.847656 68.164062 C 233.8125 67.953125 235.847656 67.8125 237.8125 67.742188 C 238.796875 67.671875 239.847656 67.671875 240.832031 67.671875 C 241.816406 67.671875 242.867188 67.671875 243.851562 67.671875 C 251.851562 67.8125 259.996094 69.007812 267.507812 71.605469 C 269.402344 72.234375 271.226562 73.007812 273.054688 73.851562 C 274.878906 74.691406 276.5625 75.675781 278.246094 76.660156 C 279.933594 77.710938 281.476562 78.835938 282.949219 80.027344 C 284.425781 81.222656 285.828125 82.554688 287.09375 83.957031 C 287.726562 84.660156 288.355469 85.363281 288.917969 86.066406 C 289.480469 86.765625 290.042969 87.539062 290.601562 88.3125 C 291.65625 89.785156 292.566406 91.398438 293.410156 92.945312 C 294.042969 94.136719 294.605469 95.402344 295.09375 96.664062 C 296.710938 96.875 298.253906 97.15625 299.726562 97.507812 C 303.308594 98.277344 306.820312 99.261719 310.1875 100.597656 C 316.925781 103.191406 323.035156 106.914062 327.878906 111.6875 C 330.335938 114.074219 332.371094 116.671875 334.125 119.480469 C 334.96875 120.882812 335.738281 122.285156 336.441406 123.691406 C 337.144531 125.164062 337.707031 126.640625 338.195312 128.113281 C 339.179688 131.0625 339.882812 134.082031 340.234375 137.097656 C 340.304688 137.871094 340.375 138.574219 340.445312 139.34375 C 340.511719 140.117188 340.511719 140.820312 340.582031 141.589844 C 340.582031 142.363281 340.652344 143.066406 340.652344 143.835938 L 340.652344 146.085938 C 340.511719 149.242188 340.023438 152.542969 339.039062 156.050781 C 337.988281 159.5625 336.371094 163.210938 333.84375 166.863281 C 332.582031 168.6875 331.105469 170.511719 329.351562 172.199219 C 327.597656 173.882812 325.703125 175.496094 323.667969 176.972656 C 321.628906 178.445312 319.453125 179.710938 317.207031 180.761719 C 314.960938 181.886719 312.714844 182.726562 310.46875 183.5 C 305.976562 185.042969 301.625 185.957031 297.410156 186.519531 C 293.269531 187.078125 289.269531 187.289062 285.40625 187.359375 C 283.652344 187.359375 281.898438 187.289062 280.214844 187.21875 C 279.300781 191.222656 278.386719 195.152344 277.476562 199.152344 C 276.492188 203.367188 275.441406 207.578125 274.386719 211.789062 C 273.335938 216 272.28125 220.214844 271.15625 224.425781 L 270.597656 226.601562 C 269.964844 228.988281 268.210938 231.234375 265.402344 232.777344 C 260.136719 235.796875 253.328125 235.09375 250.167969 231.234375 C 250.167969 231.234375 250.027344 231.09375 249.957031 231.023438 L 249.746094 230.8125 L 249.257812 230.390625 L 248.273438 229.480469 C 247.640625 228.847656 246.941406 228.285156 246.238281 227.65625 C 244.832031 226.460938 243.429688 225.269531 242.027344 224.074219 C 239.148438 221.6875 236.199219 219.300781 233.25 217.054688 C 227.285156 212.421875 220.964844 208 214.507812 203.71875 C 207.980469 199.433594 201.242188 195.363281 194.222656 191.503906 C 187.199219 187.640625 179.832031 184.0625 172.179688 180.621094 C 174.425781 180.832031 176.671875 181.042969 178.917969 181.394531 C 180.039062 181.535156 181.164062 181.746094 182.285156 181.886719 L 185.585938 182.445312 L 187.269531 182.726562 L 188.886719 183.078125 L 192.183594 183.78125 C 193.238281 183.992188 194.359375 184.273438 195.414062 184.554688 C 196.46875 184.832031 197.589844 185.042969 198.644531 185.324219 C 207.207031 187.5 215.5625 190.238281 223.5625 193.398438 C 231.566406 196.558594 239.359375 200.136719 246.800781 204.066406 C 247.710938 204.558594 248.554688 205.050781 249.464844 205.472656 C 249.605469 204.207031 249.746094 203.015625 249.957031 201.75 C 249.675781 201.539062 249.394531 201.261719 249.117188 201.050781 C 248.273438 200.347656 247.359375 199.644531 246.449219 198.945312 C 242.867188 196.207031 239.21875 193.539062 235.355469 191.011719 C 231.496094 188.484375 227.496094 186.097656 223.28125 183.851562 C 219.070312 181.675781 214.648438 179.710938 209.804688 178.164062 C 215.140625 178.375 220.476562 179.078125 225.738281 180.058594 C 230.933594 181.042969 236.058594 182.304688 241.113281 183.710938 C 244.761719 184.761719 248.34375 185.886719 251.851562 187.007812 C 251.921875 186.660156 251.921875 186.238281 251.992188 185.886719 C 252.0625 185.183594 252.203125 184.484375 252.273438 183.78125 C 250.800781 182.445312 249.328125 181.042969 247.78125 179.78125 C 245.605469 178.023438 243.359375 176.199219 240.902344 174.65625 C 238.445312 173.039062 235.917969 171.566406 232.96875 170.371094 C 236.410156 170.230469 239.917969 170.511719 243.359375 170.863281 C 246.800781 171.285156 250.167969 171.847656 253.539062 172.550781 C 253.679688 172.550781 253.75 172.617188 253.890625 172.617188 C 253.960938 172.199219 254.101562 171.707031 254.238281 171.285156 C 256.558594 164.96875 264.628906 160.753906 272.28125 161.878906 L 273.683594 162.089844 L 275.230469 162.300781 C 275.859375 162.371094 276.492188 162.441406 277.125 162.511719 C 278.386719 162.652344 279.652344 162.792969 280.984375 162.863281 C 283.582031 163.070312 286.109375 163.070312 288.636719 163.003906 C 293.550781 162.933594 298.253906 162.160156 301.414062 161.035156 C 303.027344 160.476562 304.222656 159.84375 305.203125 159.210938 C 305.695312 158.859375 306.117188 158.507812 306.539062 158.160156 C 306.957031 157.738281 307.308594 157.316406 307.660156 156.824219 C 308.433594 155.839844 309.066406 154.507812 309.625 152.964844 C 310.117188 151.417969 310.539062 149.59375 310.679688 147.699219 L 310.75 147.347656 L 310.75 146.925781 L 310.820312 146.15625 C 310.890625 145.664062 310.890625 145.101562 310.890625 144.609375 L 310.890625 143.066406 C 310.890625 142.574219 310.890625 142.082031 310.820312 141.589844 C 310.679688 139.625 310.46875 137.730469 309.976562 135.90625 C 309.554688 134.082031 308.925781 132.324219 308.152344 130.710938 C 307.378906 129.097656 306.398438 127.550781 305.203125 126.078125 C 304.011719 124.605469 302.675781 123.269531 301.132812 122.007812 C 299.589844 120.742188 297.832031 119.621094 295.9375 118.566406 C 294.042969 117.511719 291.9375 116.671875 289.761719 115.898438 C 288.636719 115.546875 287.515625 115.195312 286.390625 114.847656 C 285.828125 114.707031 285.269531 114.566406 284.707031 114.425781 L 283.933594 114.285156 L 283.582031 114.214844 L 283.371094 114.214844 L 283.441406 114.214844 L 274.316406 107.265625 C 274.175781 104.738281 273.894531 102.210938 273.265625 99.824219 C 272.632812 97.4375 271.71875 95.121094 270.527344 92.945312 C 268.070312 88.59375 264.347656 84.660156 259.363281 81.433594 C 256.90625 79.816406 254.101562 78.414062 251.152344 77.148438 C 249.675781 76.519531 248.132812 75.957031 246.519531 75.394531 C 244.902344 74.832031 243.289062 74.339844 241.605469 73.851562 C 240.761719 73.640625 239.917969 73.429688 239.078125 73.21875 C 238.234375 73.007812 237.394531 72.796875 236.480469 72.585938 C 234.726562 72.164062 232.96875 71.886719 231.144531 71.535156 C 228.125 71.042969 225.109375 70.550781 221.949219 70.269531 C 222.511719 70.832031 223.070312 71.394531 223.632812 71.886719 L 231.496094 79.394531 L 239.429688 86.976562 C 244.761719 92.03125 250.027344 97.085938 255.363281 102.28125 C 251.433594 100.945312 247.710938 99.402344 243.992188 97.789062 C 242.167969 97.015625 240.269531 96.171875 238.445312 95.332031 L 233.039062 92.804688 C 225.808594 89.363281 218.859375 85.644531 212.050781 81.78125 C 205.242188 77.851562 198.644531 73.78125 192.253906 69.359375 C 185.867188 65.003906 179.691406 60.371094 173.792969 55.457031 C 172.320312 54.195312 170.84375 53 169.441406 51.738281 C 167.964844 50.472656 166.5625 49.210938 165.160156 47.878906 L 163.191406 46.121094 C 162.5625 45.558594 161.929688 45 161.296875 44.4375 C 160.035156 43.3125 158.769531 42.261719 157.4375 41.277344 C 154.839844 39.242188 152.171875 37.347656 149.433594 35.664062 C 146.695312 34.046875 143.890625 32.574219 141.082031 31.519531 C 138.273438 30.398438 135.535156 29.695312 132.796875 29.273438 C 130.128906 28.851562 127.460938 28.851562 124.792969 29.132812 C 122.128906 29.414062 119.390625 30.117188 116.511719 31.101562 C 115.039062 31.589844 113.632812 32.222656 112.089844 32.925781 C 110.613281 33.625 109.070312 34.398438 107.597656 35.171875 C 106.824219 35.59375 106.050781 36.011719 105.351562 36.503906 C 104.578125 36.925781 103.804688 37.417969 103.105469 37.910156 C 102.191406 38.46875 101.207031 39.242188 100.15625 40.085938 C 98.121094 41.839844 96.082031 44.15625 94.257812 46.683594 C 92.433594 49.210938 90.679688 51.949219 89.132812 54.828125 C 87.589844 57.703125 86.257812 60.722656 85.0625 63.742188 C 83.871094 66.832031 82.816406 69.917969 81.972656 73.078125 C 81.0625 76.238281 80.359375 79.464844 79.796875 82.625 C 78.605469 89.082031 78.113281 95.542969 78.113281 102 C 78.183594 112.738281 79.9375 123.410156 83.800781 133.589844 C 83.871094 133.589844 83.941406 133.519531 83.941406 133.519531 C 86.117188 132.816406 88.292969 132.113281 90.46875 131.414062 C 90.1875 129.515625 90.046875 127.691406 89.90625 125.796875 C 89.625 122.007812 89.554688 118.214844 89.625 114.425781 C 89.695312 110.632812 89.90625 106.84375 90.328125 103.054688 C 90.75 99.261719 91.308594 95.542969 92.011719 91.75 C 92.714844 88.03125 93.625 84.238281 94.609375 80.519531 L 95.382812 77.710938 C 95.664062 76.796875 95.945312 75.886719 96.292969 74.972656 C 96.855469 73.148438 97.558594 71.324219 98.191406 69.5 C 100.925781 62.199219 104.296875 55.039062 108.296875 48.085938 C 105.910156 55.316406 104.226562 62.617188 103.242188 69.847656 C 103.035156 71.675781 102.753906 73.429688 102.613281 75.253906 C 102.542969 76.167969 102.472656 77.078125 102.402344 77.921875 L 102.261719 80.589844 C 102.121094 84.167969 102.050781 87.75 102.261719 91.257812 C 102.402344 94.769531 102.683594 98.28125 103.171875 101.71875 C 103.664062 105.160156 104.226562 108.597656 105 111.96875 C 105.769531 115.335938 106.683594 118.636719 107.738281 121.867188 C 108.296875 123.480469 108.859375 125.09375 109.421875 126.640625 C 109.421875 126.710938 109.492188 126.78125 109.492188 126.851562 C 112.160156 126.359375 114.898438 126.007812 117.5625 125.65625 C 117.5625 125.375 117.632812 125.023438 117.632812 124.671875 C 117.84375 122.355469 118.125 120.039062 118.546875 117.792969 C 119.320312 113.230469 120.300781 108.738281 121.636719 104.316406 L 122.128906 102.632812 L 122.6875 100.945312 C 123.039062 99.824219 123.390625 98.769531 123.8125 97.648438 C 124.65625 95.472656 125.425781 93.296875 126.410156 91.117188 C 128.234375 86.835938 130.480469 82.625 132.796875 78.484375 C 132.09375 82.835938 131.535156 87.117188 131.464844 91.398438 C 131.324219 93.503906 131.394531 95.613281 131.464844 97.71875 C 131.464844 98.769531 131.605469 99.824219 131.605469 100.875 L 131.675781 102.421875 L 131.816406 103.964844 C 132.234375 108.105469 132.9375 112.109375 133.851562 116.039062 C 134.339844 118.003906 134.902344 119.96875 135.464844 121.867188 C 135.746094 122.636719 136.027344 123.480469 136.308594 124.253906 L 142.484375 124.253906 C 142.554688 123.621094 142.625 123.058594 142.695312 122.425781 C 143.046875 119.339844 143.539062 116.320312 144.308594 113.371094 L 144.589844 112.25 L 144.871094 111.125 C 145.082031 110.351562 145.292969 109.652344 145.503906 108.878906 C 145.996094 107.40625 146.414062 105.929688 146.976562 104.527344 C 147.960938 101.648438 149.292969 98.769531 150.628906 96.03125 C 150.980469 98.839844 151.328125 101.578125 152.03125 104.246094 C 152.3125 105.578125 152.734375 106.914062 153.15625 108.175781 C 153.367188 108.808594 153.574219 109.441406 153.785156 110.144531 L 154.136719 111.125 L 154.488281 112.039062 C 155.472656 114.566406 156.59375 117.023438 157.859375 119.339844 C 158.488281 120.53125 159.191406 121.65625 159.894531 122.777344 C 160.246094 123.339844 160.597656 123.902344 161.015625 124.394531 C 161.226562 124.671875 161.367188 124.882812 161.578125 125.164062 C 161.648438 125.234375 161.71875 125.375 161.789062 125.445312 C 164.597656 125.726562 167.335938 126.078125 170.003906 126.5 C 176.671875 127.480469 183.199219 128.746094 189.585938 130.289062 C 195.976562 131.765625 202.152344 133.589844 208.191406 135.625 C 211.207031 136.609375 214.15625 137.660156 217.105469 138.855469 C 220.054688 139.976562 222.863281 141.171875 225.738281 142.433594 C 231.355469 144.960938 236.832031 147.628906 241.886719 150.789062 C 229.039062 148.679688 216.261719 146.996094 203.488281 145.734375 C 197.097656 145.101562 190.78125 144.609375 184.394531 144.257812 C 181.09375 144.046875 177.863281 143.976562 174.636719 143.835938 C 171.546875 143.769531 168.527344 143.699219 165.441406 143.699219 C 159.121094 143.699219 152.875 143.90625 146.625 144.257812 C 146.066406 144.328125 145.433594 144.328125 144.871094 144.398438 C 143.890625 144.46875 142.90625 144.539062 141.992188 144.609375 L 140.800781 144.679688 L 139.675781 144.820312 L 135.042969 145.242188 C 134.273438 145.3125 133.5 145.453125 132.726562 145.523438 C 131.183594 145.734375 129.707031 145.875 128.164062 146.15625 L 123.671875 146.855469 L 122.546875 147.066406 L 121.425781 147.277344 L 116.933594 148.121094 C 116.160156 148.261719 115.457031 148.472656 114.757812 148.609375 C 113.28125 148.960938 111.808594 149.3125 110.402344 149.664062 L 106.121094 150.859375 L 105.070312 151.136719 C 104.71875 151.207031 104.367188 151.347656 104.015625 151.488281 L 101.910156 152.191406 C 101.558594 152.261719 101.207031 152.402344 100.855469 152.472656 C 100.15625 154.4375 99.382812 156.472656 98.609375 158.4375 C 98.609375 158.507812 98.539062 158.578125 98.539062 158.648438 L 96.363281 164.40625 L 96.222656 164.6875 L 93.835938 170.722656 C 92.785156 173.390625 91.730469 176.058594 90.679688 178.726562 C 90.75 178.726562 90.820312 178.726562 90.960938 178.726562 C 94.609375 178.585938 98.191406 178.515625 101.769531 178.515625 C 103.59375 178.515625 105.351562 178.515625 107.175781 178.585938 C 109 178.585938 110.753906 178.726562 112.511719 178.726562 C 116.089844 178.867188 119.601562 179.078125 123.179688 179.359375 C 124.933594 179.5 126.691406 179.640625 128.445312 179.847656 L 131.113281 180.128906 L 133.710938 180.410156 C 137.21875 180.832031 140.660156 181.324219 144.097656 181.886719 L 149.222656 182.796875 C 150.910156 183.078125 152.59375 183.5 154.277344 183.851562 C 161.015625 185.324219 167.617188 187.007812 173.933594 189.1875 C 174.707031 189.464844 175.546875 189.675781 176.320312 189.957031 L 180.953125 191.644531 C 181.726562 191.921875 182.496094 192.203125 183.269531 192.554688 C 184.8125 193.1875 186.289062 193.820312 187.761719 194.449219 C 188.535156 194.730469 189.238281 195.082031 190.007812 195.433594 L 192.183594 196.488281 C 193.660156 197.1875 195.0625 197.820312 196.46875 198.664062 L 200.609375 200.910156 C 201.941406 201.679688 203.277344 202.523438 204.609375 203.367188 L 206.574219 204.628906 L 208.472656 205.964844 C 209.734375 206.804688 210.929688 207.71875 212.191406 208.628906 C 213.386719 209.542969 214.578125 210.527344 215.703125 211.4375 L 217.457031 212.84375 C 218.019531 213.332031 218.507812 213.824219 219.070312 214.316406 C 220.125 215.300781 221.175781 216.351562 222.230469 217.335938 C 220.683594 216.773438 219.210938 216.210938 217.738281 215.652344 C 216.964844 215.371094 216.261719 215.089844 215.492188 214.808594 L 213.246094 214.035156 C 211.699219 213.542969 210.226562 212.984375 208.75 212.492188 C 207.207031 212 205.664062 211.578125 204.1875 211.085938 L 201.941406 210.386719 L 199.625 209.753906 L 195.0625 208.492188 C 191.972656 207.789062 188.957031 206.945312 185.796875 206.3125 L 183.480469 205.824219 C 182.707031 205.683594 181.9375 205.472656 181.164062 205.332031 C 179.621094 205.050781 178.003906 204.769531 176.460938 204.488281 C 174.917969 204.207031 173.300781 203.996094 171.757812 203.714844 L 169.441406 203.367188 C 168.667969 203.226562 167.828125 203.15625 167.054688 203.085938 C 160.734375 202.171875 154.347656 201.609375 147.960938 201.121094 C 141.570312 200.628906 135.113281 200.417969 128.65625 200.347656 L 123.8125 200.347656 C 122.199219 200.347656 120.582031 200.347656 118.96875 200.417969 C 117.355469 200.488281 115.738281 200.488281 114.125 200.558594 C 112.511719 200.628906 110.894531 200.628906 109.28125 200.699219 C 106.050781 200.839844 102.824219 200.980469 99.523438 201.191406 C 97.910156 201.332031 96.292969 201.398438 94.679688 201.539062 L 92.222656 201.75 L 89.835938 201.960938 C 86.605469 202.242188 83.378906 202.59375 80.21875 203.015625 C 78.605469 203.226562 77.058594 203.4375 75.515625 203.648438 C 74.742188 203.71875 73.972656 203.855469 73.199219 203.996094 L 72.074219 204.136719 L 71.585938 204.207031 L 71.164062 204.277344 C 69.269531 204.628906 67.300781 204.699219 65.335938 204.417969 C 57.476562 203.296875 52.980469 197.117188 55.367188 190.589844 L 55.507812 190.167969 C 56.984375 186.167969 58.527344 182.097656 60.070312 178.09375 C 61.617188 174.09375 63.160156 170.09375 64.777344 166.019531 L 67.164062 159.984375 L 69.617188 153.945312 C 70.8125 150.929688 72.074219 147.980469 73.339844 144.960938 C 68.707031 139.34375 64.984375 133.097656 62.039062 126.640625 C 59.019531 119.898438 56.84375 112.808594 55.578125 105.578125 C 54.246094 98.347656 53.824219 90.839844 54.246094 83.328125 C 54.457031 79.535156 54.878906 75.746094 55.507812 71.882812 C 56.140625 68.09375 57.054688 64.234375 58.175781 60.371094 C 59.230469 56.511719 60.5625 52.652344 62.320312 48.71875 Z M 62.320312 48.71875 " fill-opacity="1" fill-rule="nonzero"/></g></svg>